<?xml version="1.0" encoding="UTF-8" standalone="no"?>
<!DOCTYPE svg PUBLIC "-//W3C//DTD SVG 1.1//EN"
 "http://www.w3.org/Graphics/SVG/1.1/DTD/svg11.dtd">
<!-- Generated by graphviz version 2.26.0 (20091210.2329)
 -->
<!-- Title: search_line_acc_char Pages: 1 -->
<svg width="2982pt" height="114pt"
 viewBox="0.00 0.00 2982.00 114.00" xmlns="http://www.w3.org/2000/svg" xmlns:xlink="http://www.w3.org/1999/xlink">
<g id="graph1" class="graph" transform="scale(1 1) rotate(0) translate(4 110)">
<title>search_line_acc_char</title>
<polygon fill="white" stroke="white" points="-4,5 -4,-110 2979,-110 2979,5 -4,5"/>
<!-- Basic Block 1 -->
<g id="node1" class="node"><title>Basic Block 1</title>
<polygon fill="#ffffcc" stroke="black" points="93,-41 1,-41 1,-5 93,-5 93,-41"/>
<text text-anchor="middle" x="47" y="-19.9" font-family="Times Roman,serif" font-size="14.00">Basic Block 1</text>
</g>
<!-- Addr 1 -->
<g id="node17" class="node"><title>Addr 1</title>
<polygon fill="lightgrey" stroke="black" points="185,-41 131,-41 131,-5 185,-5 185,-41"/>
<text text-anchor="middle" x="158" y="-19.9" font-family="Times Roman,serif" font-size="14.00">Addr 1</text>
</g>
<!-- Basic Block 1&#45;&gt;Addr 1 -->
<g id="edge2" class="edge"><title>Basic Block 1&#45;&gt;Addr 1</title>
<path fill="none" stroke="black" d="M93.7523,-23C102.598,-23 111.748,-23 120.272,-23"/>
<polygon fill="black" stroke="black" points="120.298,-26.5001 130.298,-23 120.298,-19.5001 120.298,-26.5001"/>
</g>
<!-- Basic Block 2 -->
<g id="node2" class="node"><title>Basic Block 2</title>
<polygon fill="#ffffcc" stroke="black" points="315,-41 223,-41 223,-5 315,-5 315,-41"/>
<text text-anchor="middle" x="269" y="-19.9" font-family="Times Roman,serif" font-size="14.00">Basic Block 2</text>
</g>
<!-- Addr 2 -->
<g id="node18" class="node"><title>Addr 2</title>
<polygon fill="lightgrey" stroke="black" points="407,-41 353,-41 353,-5 407,-5 407,-41"/>
<text text-anchor="middle" x="380" y="-19.9" font-family="Times Roman,serif" font-size="14.00">Addr 2</text>
</g>
<!-- Basic Block 2&#45;&gt;Addr 2 -->
<g id="edge6" class="edge"><title>Basic Block 2&#45;&gt;Addr 2</title>
<path fill="none" stroke="black" d="M315.752,-23C324.598,-23 333.748,-23 342.272,-23"/>
<polygon fill="black" stroke="black" points="342.298,-26.5001 352.298,-23 342.298,-19.5001 342.298,-26.5001"/>
</g>
<!-- Basic Block 3 -->
<g id="node3" class="node"><title>Basic Block 3</title>
<polygon fill="#ffffcc" stroke="black" points="537,-41 445,-41 445,-5 537,-5 537,-41"/>
<text text-anchor="middle" x="491" y="-19.9" font-family="Times Roman,serif" font-size="14.00">Basic Block 3</text>
</g>
<!-- Addr 3 -->
<g id="node19" class="node"><title>Addr 3</title>
<polygon fill="lightgrey" stroke="black" points="629,-41 575,-41 575,-5 629,-5 629,-41"/>
<text text-anchor="middle" x="602" y="-19.9" font-family="Times Roman,serif" font-size="14.00">Addr 3</text>
</g>
<!-- Basic Block 3&#45;&gt;Addr 3 -->
<g id="edge10" class="edge"><title>Basic Block 3&#45;&gt;Addr 3</title>
<path fill="none" stroke="black" d="M537.752,-23C546.598,-23 555.748,-23 564.272,-23"/>
<polygon fill="black" stroke="black" points="564.298,-26.5001 574.298,-23 564.298,-19.5001 564.298,-26.5001"/>
</g>
<!-- Basic Block 4 -->
<g id="node4" class="node"><title>Basic Block 4</title>
<polygon fill="#ffffcc" stroke="black" points="759,-41 667,-41 667,-5 759,-5 759,-41"/>
<text text-anchor="middle" x="713" y="-19.9" font-family="Times Roman,serif" font-size="14.00">Basic Block 4</text>
</g>
<!-- Addr 4 -->
<g id="node20" class="node"><title>Addr 4</title>
<polygon fill="lightgrey" stroke="black" points="851,-41 797,-41 797,-5 851,-5 851,-41"/>
<text text-anchor="middle" x="824" y="-19.9" font-family="Times Roman,serif" font-size="14.00">Addr 4</text>
</g>
<!-- Basic Block 4&#45;&gt;Addr 4 -->
<g id="edge14" class="edge"><title>Basic Block 4&#45;&gt;Addr 4</title>
<path fill="none" stroke="black" d="M759.752,-23C768.598,-23 777.748,-23 786.272,-23"/>
<polygon fill="black" stroke="black" points="786.298,-26.5001 796.298,-23 786.298,-19.5001 786.298,-26.5001"/>
</g>
<!-- Basic Block 5 -->
<g id="node5" class="node"><title>Basic Block 5</title>
<polygon fill="#ffeda0" stroke="black" points="981,-41 889,-41 889,-5 981,-5 981,-41"/>
<text text-anchor="middle" x="935" y="-19.9" font-family="Times Roman,serif" font-size="14.00">Basic Block 5</text>
</g>
<!-- Basic Block 6 -->
<g id="node6" class="node"><title>Basic Block 6</title>
<polygon fill="#ffffcc" stroke="black" points="1111,-64 1019,-64 1019,-28 1111,-28 1111,-64"/>
<text text-anchor="middle" x="1065" y="-42.9" font-family="Times Roman,serif" font-size="14.00">Basic Block 6</text>
</g>
<!-- Basic Block 5&#45;&gt;Basic Block 6 -->
<g id="edge20" class="edge"><title>Basic Block 5&#45;&gt;Basic Block 6</title>
<path fill="none" stroke="black" d="M981.566,-31.2386C990.247,-32.7745 999.406,-34.395 1008.35,-35.9776"/>
<polygon fill="black" stroke="black" points="1007.87,-39.4459 1018.32,-37.7417 1009.09,-32.5529 1007.87,-39.4459"/>
</g>
<!-- Basic Block 8 -->
<g id="node8" class="node"><title>Basic Block 8</title>
<polygon fill="#feb24c" stroke="black" points="1463,-41 1371,-41 1371,-5 1463,-5 1463,-41"/>
<text text-anchor="middle" x="1417" y="-19.9" font-family="Times Roman,serif" font-size="14.00">Basic Block 8</text>
</g>
<!-- Basic Block 5&#45;&gt;Basic Block 8 -->
<g id="edge18" class="edge"><title>Basic Block 5&#45;&gt;Basic Block 8</title>
<path fill="none" stroke="black" d="M981.518,-20.363C993.408,-19.7976 1006.17,-19.2848 1018,-19 1158.4,-15.6187 1193.6,-15.6187 1334,-19 1342.5,-19.2047 1351.49,-19.5272 1360.28,-19.9023"/>
<polygon fill="black" stroke="black" points="1360.33,-23.4081 1370.48,-20.363 1360.65,-16.4153 1360.33,-23.4081"/>
</g>
<!-- Addr 5 -->
<g id="node21" class="node"><title>Addr 5</title>
<polygon fill="lightgrey" stroke="black" points="1203,-64 1149,-64 1149,-28 1203,-28 1203,-64"/>
<text text-anchor="middle" x="1176" y="-42.9" font-family="Times Roman,serif" font-size="14.00">Addr 5</text>
</g>
<!-- Basic Block 6&#45;&gt;Addr 5 -->
<g id="edge22" class="edge"><title>Basic Block 6&#45;&gt;Addr 5</title>
<path fill="none" stroke="black" d="M1111.75,-46C1120.6,-46 1129.75,-46 1138.27,-46"/>
<polygon fill="black" stroke="black" points="1138.3,-49.5001 1148.3,-46 1138.3,-42.5001 1138.3,-49.5001"/>
</g>
<!-- Basic Block 7 -->
<g id="node7" class="node"><title>Basic Block 7</title>
<polygon fill="#ffffcc" stroke="black" points="1333,-64 1241,-64 1241,-28 1333,-28 1333,-64"/>
<text text-anchor="middle" x="1287" y="-42.9" font-family="Times Roman,serif" font-size="14.00">Basic Block 7</text>
</g>
<!-- Basic Block 7&#45;&gt;Basic Block 8 -->
<g id="edge26" class="edge"><title>Basic Block 7&#45;&gt;Basic Block 8</title>
<path fill="none" stroke="black" d="M1333.57,-37.7614C1342.25,-36.2255 1351.41,-34.605 1360.35,-33.0224"/>
<polygon fill="black" stroke="black" points="1361.09,-36.4471 1370.32,-31.2583 1359.87,-29.5541 1361.09,-36.4471"/>
</g>
<!-- Addr 6 -->
<g id="node22" class="node"><title>Addr 6</title>
<polygon fill="lightgrey" stroke="black" points="1555,-64 1501,-64 1501,-28 1555,-28 1555,-64"/>
<text text-anchor="middle" x="1528" y="-42.9" font-family="Times Roman,serif" font-size="14.00">Addr 6</text>
</g>
<!-- Basic Block 8&#45;&gt;Addr 6 -->
<g id="edge28" class="edge"><title>Basic Block 8&#45;&gt;Addr 6</title>
<path fill="none" stroke="black" d="M1463.75,-32.6874C1472.6,-34.5203 1481.75,-36.4162 1490.27,-38.1825"/>
<polygon fill="black" stroke="black" points="1489.8,-41.658 1500.3,-40.2599 1491.22,-34.8036 1489.8,-41.658"/>
</g>
<!-- Basic Block 9 -->
<g id="node9" class="node"><title>Basic Block 9</title>
<polygon fill="#fd8d3c" stroke="black" points="1685,-64 1593,-64 1593,-28 1685,-28 1685,-64"/>
<text text-anchor="middle" x="1639" y="-42.9" font-family="Times Roman,serif" font-size="14.00">Basic Block 9</text>
</g>
<!-- Addr 7 -->
<g id="node23" class="node"><title>Addr 7</title>
<polygon fill="lightgrey" stroke="black" points="1777,-64 1723,-64 1723,-28 1777,-28 1777,-64"/>
<text text-anchor="middle" x="1750" y="-42.9" font-family="Times Roman,serif" font-size="14.00">Addr 7</text>
</g>
<!-- Basic Block 9&#45;&gt;Addr 7 -->
<g id="edge32" class="edge"><title>Basic Block 9&#45;&gt;Addr 7</title>
<path fill="none" stroke="black" d="M1685.75,-46C1694.6,-46 1703.75,-46 1712.27,-46"/>
<polygon fill="black" stroke="black" points="1712.3,-49.5001 1722.3,-46 1712.3,-42.5001 1712.3,-49.5001"/>
</g>
<!-- Basic Block 10 -->
<g id="node10" class="node"><title>Basic Block 10</title>
<polygon fill="#fc4e2a" stroke="black" points="1914,-64 1814,-64 1814,-28 1914,-28 1914,-64"/>
<text text-anchor="middle" x="1864" y="-42.9" font-family="Times Roman,serif" font-size="14.00">Basic Block 10</text>
</g>
<!-- Addr 8 -->
<g id="node24" class="node"><title>Addr 8</title>
<polygon fill="lightgrey" stroke="black" points="2005,-64 1951,-64 1951,-28 2005,-28 2005,-64"/>
<text text-anchor="middle" x="1978" y="-42.9" font-family="Times Roman,serif" font-size="14.00">Addr 8</text>
</g>
<!-- Basic Block 10&#45;&gt;Addr 8 -->
<g id="edge36" class="edge"><title>Basic Block 10&#45;&gt;Addr 8</title>
<path fill="none" stroke="black" d="M1914,-46C1922.75,-46 1931.72,-46 1940.08,-46"/>
<polygon fill="black" stroke="black" points="1940.27,-49.5001 1950.27,-46 1940.27,-42.5001 1940.27,-49.5001"/>
</g>
<!-- Basic Block 11 -->
<g id="node11" class="node"><title>Basic Block 11</title>
<polygon fill="#fc4e2a" stroke="black" points="2142,-64 2042,-64 2042,-28 2142,-28 2142,-64"/>
<text text-anchor="middle" x="2092" y="-42.9" font-family="Times Roman,serif" font-size="14.00">Basic Block 11</text>
</g>
<!-- Addr 9 -->
<g id="node25" class="node"><title>Addr 9</title>
<polygon fill="lightgrey" stroke="black" points="2233,-64 2179,-64 2179,-28 2233,-28 2233,-64"/>
<text text-anchor="middle" x="2206" y="-42.9" font-family="Times Roman,serif" font-size="14.00">Addr 9</text>
</g>
<!-- Basic Block 11&#45;&gt;Addr 9 -->
<g id="edge40" class="edge"><title>Basic Block 11&#45;&gt;Addr 9</title>
<path fill="none" stroke="black" d="M2142,-46C2150.75,-46 2159.72,-46 2168.08,-46"/>
<polygon fill="black" stroke="black" points="2168.27,-49.5001 2178.27,-46 2168.27,-42.5001 2168.27,-49.5001"/>
</g>
<!-- Basic Block 12 -->
<g id="node12" class="node"><title>Basic Block 12</title>
<polygon fill="#800026" stroke="black" points="2370,-64 2270,-64 2270,-28 2370,-28 2370,-64"/>
<text text-anchor="middle" x="2320" y="-42.9" font-family="Times Roman,serif" font-size="14.00">Basic Block 12</text>
</g>
<!-- Basic Block 13 -->
<g id="node13" class="node"><title>Basic Block 13</title>
<polygon fill="#fed976" stroke="black" points="2506,-102 2406,-102 2406,-66 2506,-66 2506,-102"/>
<text text-anchor="middle" x="2456" y="-80.9" font-family="Times Roman,serif" font-size="14.00">Basic Block 13</text>
</g>
<!-- Basic Block 12&#45;&gt;Basic Block 13 -->
<g id="edge46" class="edge"><title>Basic Block 12&#45;&gt;Basic Block 13</title>
<path fill="none" stroke="black" d="M2370.25,-60.0418C2378.72,-62.4074 2387.58,-64.8833 2396.26,-67.3083"/>
<polygon fill="black" stroke="black" points="2395.38,-70.6957 2405.95,-70.0159 2397.26,-63.9539 2395.38,-70.6957"/>
</g>
<!-- Basic Block 16 -->
<g id="node16" class="node"><title>Basic Block 16</title>
<polygon fill="#fd8d3c" stroke="black" points="2876,-52 2776,-52 2776,-16 2876,-16 2876,-52"/>
<text text-anchor="middle" x="2826" y="-30.9" font-family="Times Roman,serif" font-size="14.00">Basic Block 16</text>
</g>
<!-- Basic Block 12&#45;&gt;Basic Block 16 -->
<g id="edge44" class="edge"><title>Basic Block 12&#45;&gt;Basic Block 16</title>
<path fill="none" stroke="black" d="M2370.37,-44.8055C2464.14,-42.5817 2665.08,-37.8163 2765.82,-35.4272"/>
<polygon fill="black" stroke="black" points="2765.92,-38.9258 2775.84,-35.1896 2765.76,-31.9278 2765.92,-38.9258"/>
</g>
<!-- Addr 10 -->
<g id="node26" class="node"><title>Addr 10</title>
<polygon fill="lightgrey" stroke="black" points="2604,-102 2542,-102 2542,-66 2604,-66 2604,-102"/>
<text text-anchor="middle" x="2573" y="-80.9" font-family="Times Roman,serif" font-size="14.00">Addr 10</text>
</g>
<!-- Basic Block 13&#45;&gt;Addr 10 -->
<g id="edge48" class="edge"><title>Basic Block 13&#45;&gt;Addr 10</title>
<path fill="none" stroke="black" d="M2506.3,-84C2514.75,-84 2523.43,-84 2531.62,-84"/>
<polygon fill="black" stroke="black" points="2531.68,-87.5001 2541.67,-84 2531.67,-80.5001 2531.68,-87.5001"/>
</g>
<!-- Basic Block 14 -->
<g id="node14" class="node"><title>Basic Block 14</title>
<polygon fill="#ffffcc" stroke="black" points="2740,-102 2640,-102 2640,-66 2740,-66 2740,-102"/>
<text text-anchor="middle" x="2690" y="-80.9" font-family="Times Roman,serif" font-size="14.00">Basic Block 14</text>
</g>
<!-- Basic Block 15 -->
<g id="node15" class="node"><title>Basic Block 15</title>
<polygon fill="#ffffcc" stroke="black" points="2876,-106 2776,-106 2776,-70 2876,-70 2876,-106"/>
<text text-anchor="middle" x="2826" y="-84.9" font-family="Times Roman,serif" font-size="14.00">Basic Block 15</text>
</g>
<!-- Basic Block 14&#45;&gt;Basic Block 15 -->
<g id="edge54" class="edge"><title>Basic Block 14&#45;&gt;Basic Block 15</title>
<path fill="none" stroke="black" d="M2740.25,-85.4781C2748.54,-85.7217 2757.2,-85.9765 2765.7,-86.2265"/>
<polygon fill="black" stroke="black" points="2765.85,-89.7324 2775.95,-86.528 2766.06,-82.7354 2765.85,-89.7324"/>
</g>
<!-- Basic Block 14&#45;&gt;Basic Block 16 -->
<g id="edge52" class="edge"><title>Basic Block 14&#45;&gt;Basic Block 16</title>
<path fill="none" stroke="black" d="M2739.1,-65.9489C2748.25,-62.5856 2757.89,-59.0401 2767.29,-55.5834"/>
<polygon fill="black" stroke="black" points="2768.79,-58.7604 2776.97,-52.0247 2766.38,-52.1903 2768.79,-58.7604"/>
</g>
<!-- Addr 11 -->
<g id="node27" class="node"><title>Addr 11</title>
<polygon fill="lightgrey" stroke="black" points="2974,-106 2912,-106 2912,-70 2974,-70 2974,-106"/>
<text text-anchor="middle" x="2943" y="-84.9" font-family="Times Roman,serif" font-size="14.00">Addr 11</text>
</g>
<!-- Basic Block 15&#45;&gt;Addr 11 -->
<g id="edge56" class="edge"><title>Basic Block 15&#45;&gt;Addr 11</title>
<path fill="none" stroke="black" d="M2876.3,-88C2884.75,-88 2893.43,-88 2901.62,-88"/>
<polygon fill="black" stroke="black" points="2901.68,-91.5001 2911.67,-88 2901.67,-84.5001 2901.68,-91.5001"/>
</g>
<!-- Basic Block 16&#45;&gt;Basic Block 8 -->
<g id="edge58" class="edge"><title>Basic Block 16&#45;&gt;Basic Block 8</title>
<path fill="none" stroke="black" d="M2775.86,-23.2422C2725.01,-13.2812 2643.91,-0 2573,-0 1639,-0 1639,-0 1639,-0 1582.56,-0 1518.48,-7.44551 1473.72,-13.8641"/>
<polygon fill="black" stroke="black" points="1473.02,-10.4302 1463.63,-15.3413 1474.03,-17.3564 1473.02,-10.4302"/>
</g>
<!-- Addr 1&#45;&gt;Basic Block 2 -->
<g id="edge4" class="edge"><title>Addr 1&#45;&gt;Basic Block 2</title>
<path fill="none" stroke="black" d="M185.724,-23C193.748,-23 202.817,-23 211.942,-23"/>
<polygon fill="black" stroke="black" points="212.215,-26.5001 222.215,-23 212.215,-19.5001 212.215,-26.5001"/>
</g>
<!-- Addr 2&#45;&gt;Basic Block 3 -->
<g id="edge8" class="edge"><title>Addr 2&#45;&gt;Basic Block 3</title>
<path fill="none" stroke="black" d="M407.724,-23C415.748,-23 424.817,-23 433.942,-23"/>
<polygon fill="black" stroke="black" points="434.215,-26.5001 444.215,-23 434.215,-19.5001 434.215,-26.5001"/>
</g>
<!-- Addr 3&#45;&gt;Basic Block 4 -->
<g id="edge12" class="edge"><title>Addr 3&#45;&gt;Basic Block 4</title>
<path fill="none" stroke="black" d="M629.724,-23C637.748,-23 646.817,-23 655.942,-23"/>
<polygon fill="black" stroke="black" points="656.215,-26.5001 666.215,-23 656.215,-19.5001 656.215,-26.5001"/>
</g>
<!-- Addr 4&#45;&gt;Basic Block 5 -->
<g id="edge16" class="edge"><title>Addr 4&#45;&gt;Basic Block 5</title>
<path fill="none" stroke="black" d="M851.724,-23C859.748,-23 868.817,-23 877.942,-23"/>
<polygon fill="black" stroke="black" points="878.215,-26.5001 888.215,-23 878.215,-19.5001 878.215,-26.5001"/>
</g>
<!-- Addr 5&#45;&gt;Basic Block 7 -->
<g id="edge24" class="edge"><title>Addr 5&#45;&gt;Basic Block 7</title>
<path fill="none" stroke="black" d="M1203.72,-46C1211.75,-46 1220.82,-46 1229.94,-46"/>
<polygon fill="black" stroke="black" points="1230.22,-49.5001 1240.22,-46 1230.22,-42.5001 1230.22,-49.5001"/>
</g>
<!-- Addr 6&#45;&gt;Basic Block 9 -->
<g id="edge30" class="edge"><title>Addr 6&#45;&gt;Basic Block 9</title>
<path fill="none" stroke="black" d="M1555.72,-46C1563.75,-46 1572.82,-46 1581.94,-46"/>
<polygon fill="black" stroke="black" points="1582.22,-49.5001 1592.22,-46 1582.22,-42.5001 1582.22,-49.5001"/>
</g>
<!-- Addr 7&#45;&gt;Basic Block 10 -->
<g id="edge34" class="edge"><title>Addr 7&#45;&gt;Basic Block 10</title>
<path fill="none" stroke="black" d="M1777.6,-46C1785.54,-46 1794.54,-46 1803.65,-46"/>
<polygon fill="black" stroke="black" points="1803.94,-49.5001 1813.94,-46 1803.94,-42.5001 1803.94,-49.5001"/>
</g>
<!-- Addr 8&#45;&gt;Basic Block 11 -->
<g id="edge38" class="edge"><title>Addr 8&#45;&gt;Basic Block 11</title>
<path fill="none" stroke="black" d="M2005.6,-46C2013.54,-46 2022.54,-46 2031.65,-46"/>
<polygon fill="black" stroke="black" points="2031.94,-49.5001 2041.94,-46 2031.94,-42.5001 2031.94,-49.5001"/>
</g>
<!-- Addr 9&#45;&gt;Basic Block 12 -->
<g id="edge42" class="edge"><title>Addr 9&#45;&gt;Basic Block 12</title>
<path fill="none" stroke="black" d="M2233.6,-46C2241.54,-46 2250.54,-46 2259.65,-46"/>
<polygon fill="black" stroke="black" points="2259.94,-49.5001 2269.94,-46 2259.94,-42.5001 2259.94,-49.5001"/>
</g>
<!-- Addr 10&#45;&gt;Basic Block 14 -->
<g id="edge50" class="edge"><title>Addr 10&#45;&gt;Basic Block 14</title>
<path fill="none" stroke="black" d="M2604.05,-84C2612.02,-84 2620.86,-84 2629.76,-84"/>
<polygon fill="black" stroke="black" points="2629.79,-87.5001 2639.79,-84 2629.79,-80.5001 2629.79,-87.5001"/>
</g>
</g>
</svg>
