<?xml version="1.0" encoding="UTF-8" standalone="no"?>
<!DOCTYPE svg PUBLIC "-//W3C//DTD SVG 1.1//EN"
 "http://www.w3.org/Graphics/SVG/1.1/DTD/svg11.dtd">
<!-- Generated by graphviz version 2.26.0 (20091210.2329)
 -->
<!-- Title: c_parser_peek_token Pages: 1 -->
<svg width="676pt" height="67pt"
 viewBox="0.00 0.00 676.00 67.00" xmlns="http://www.w3.org/2000/svg" xmlns:xlink="http://www.w3.org/1999/xlink">
<g id="graph1" class="graph" transform="scale(1 1) rotate(0) translate(4 63)">
<title>c_parser_peek_token</title>
<polygon fill="white" stroke="white" points="-4,5 -4,-63 673,-63 673,5 -4,5"/>
<!-- Basic Block 1 -->
<g id="node1" class="node"><title>Basic Block 1</title>
<polygon fill="#800026" stroke="black" points="93,-36 1,-36 1,-1.77636e-14 93,-3.55271e-15 93,-36"/>
<text text-anchor="middle" x="47" y="-14.9" font-family="Times Roman,serif" font-size="14.00">Basic Block 1</text>
</g>
<!-- Basic Block 2 -->
<g id="node2" class="node"><title>Basic Block 2</title>
<polygon fill="#ffffcc" stroke="black" points="223,-59 131,-59 131,-23 223,-23 223,-59"/>
<text text-anchor="middle" x="177" y="-37.9" font-family="Times Roman,serif" font-size="14.00">Basic Block 2</text>
</g>
<!-- Basic Block 1&#45;&gt;Basic Block 2 -->
<g id="edge4" class="edge"><title>Basic Block 1&#45;&gt;Basic Block 2</title>
<path fill="none" stroke="black" d="M93.5658,-26.2386C102.247,-27.7745 111.406,-29.395 120.351,-30.9776"/>
<polygon fill="black" stroke="black" points="119.866,-34.4459 130.322,-32.7417 121.085,-27.5529 119.866,-34.4459"/>
</g>
<!-- Basic Block 4 -->
<g id="node4" class="node"><title>Basic Block 4</title>
<polygon fill="#fed976" stroke="black" points="575,-36 483,-36 483,-1.77636e-14 575,-3.55271e-15 575,-36"/>
<text text-anchor="middle" x="529" y="-14.9" font-family="Times Roman,serif" font-size="14.00">Basic Block 4</text>
</g>
<!-- Basic Block 1&#45;&gt;Basic Block 4 -->
<g id="edge2" class="edge"><title>Basic Block 1&#45;&gt;Basic Block 4</title>
<path fill="none" stroke="black" d="M93.5177,-15.363C105.408,-14.7976 118.174,-14.2848 130,-14 270.404,-10.6187 305.596,-10.6187 446,-14 454.5,-14.2047 463.486,-14.5272 472.283,-14.9023"/>
<polygon fill="black" stroke="black" points="472.335,-18.4081 482.482,-15.363 472.65,-11.4153 472.335,-18.4081"/>
</g>
<!-- Addr 1 -->
<g id="node5" class="node"><title>Addr 1</title>
<polygon fill="lightgrey" stroke="black" points="315,-59 261,-59 261,-23 315,-23 315,-59"/>
<text text-anchor="middle" x="288" y="-37.9" font-family="Times Roman,serif" font-size="14.00">Addr 1</text>
</g>
<!-- Basic Block 2&#45;&gt;Addr 1 -->
<g id="edge6" class="edge"><title>Basic Block 2&#45;&gt;Addr 1</title>
<path fill="none" stroke="black" d="M223.752,-41C232.598,-41 241.748,-41 250.272,-41"/>
<polygon fill="black" stroke="black" points="250.298,-44.5001 260.298,-41 250.298,-37.5001 250.298,-44.5001"/>
</g>
<!-- Basic Block 3 -->
<g id="node3" class="node"><title>Basic Block 3</title>
<polygon fill="#ffffcc" stroke="black" points="445,-59 353,-59 353,-23 445,-23 445,-59"/>
<text text-anchor="middle" x="399" y="-37.9" font-family="Times Roman,serif" font-size="14.00">Basic Block 3</text>
</g>
<!-- Basic Block 3&#45;&gt;Basic Block 4 -->
<g id="edge10" class="edge"><title>Basic Block 3&#45;&gt;Basic Block 4</title>
<path fill="none" stroke="black" d="M445.566,-32.7614C454.247,-31.2255 463.406,-29.605 472.351,-28.0224"/>
<polygon fill="black" stroke="black" points="473.085,-31.4471 482.322,-26.2583 471.866,-24.5541 473.085,-31.4471"/>
</g>
<!-- Addr 2 -->
<g id="node6" class="node"><title>Addr 2</title>
<polygon fill="lightgrey" stroke="black" points="667,-36 613,-36 613,-1.77636e-14 667,-3.55271e-15 667,-36"/>
<text text-anchor="middle" x="640" y="-14.9" font-family="Times Roman,serif" font-size="14.00">Addr 2</text>
</g>
<!-- Basic Block 4&#45;&gt;Addr 2 -->
<g id="edge12" class="edge"><title>Basic Block 4&#45;&gt;Addr 2</title>
<path fill="none" stroke="black" d="M575.752,-18C584.598,-18 593.748,-18 602.272,-18"/>
<polygon fill="black" stroke="black" points="602.298,-21.5001 612.298,-18 602.298,-14.5001 602.298,-21.5001"/>
</g>
<!-- Addr 1&#45;&gt;Basic Block 3 -->
<g id="edge8" class="edge"><title>Addr 1&#45;&gt;Basic Block 3</title>
<path fill="none" stroke="black" d="M315.724,-41C323.748,-41 332.817,-41 341.942,-41"/>
<polygon fill="black" stroke="black" points="342.215,-44.5001 352.215,-41 342.215,-37.5001 342.215,-44.5001"/>
</g>
</g>
</svg>
