<?xml version="1.0" encoding="UTF-8" standalone="no"?>
<!DOCTYPE svg PUBLIC "-//W3C//DTD SVG 1.1//EN"
 "http://www.w3.org/Graphics/SVG/1.1/DTD/svg11.dtd">
<!-- Generated by graphviz version 2.26.0 (20091210.2329)
 -->
<!-- Title: df_ref_create_structure Pages: 1 -->
<svg width="3346pt" height="321pt"
 viewBox="0.00 0.00 3346.00 321.36" xmlns="http://www.w3.org/2000/svg" xmlns:xlink="http://www.w3.org/1999/xlink">
<g id="graph1" class="graph" transform="scale(1 1) rotate(0) translate(4 317.359)">
<title>df_ref_create_structure</title>
<polygon fill="white" stroke="white" points="-4,5 -4,-317.359 3343,-317.359 3343,5 -4,5"/>
<!-- Basic Block 1 -->
<g id="node1" class="node"><title>Basic Block 1</title>
<polygon fill="#ffeda0" stroke="black" points="93,-81.3592 1,-81.3592 1,-45.3592 93,-45.3592 93,-81.3592"/>
<text text-anchor="middle" x="47" y="-60.2592" font-family="Times Roman,serif" font-size="14.00">Basic Block 1</text>
</g>
<!-- Basic Block 2 -->
<g id="node2" class="node"><title>Basic Block 2</title>
<polygon fill="#ffffcc" stroke="black" points="223,-108.359 131,-108.359 131,-72.3592 223,-72.3592 223,-108.359"/>
<text text-anchor="middle" x="177" y="-87.2592" font-family="Times Roman,serif" font-size="14.00">Basic Block 2</text>
</g>
<!-- Basic Block 1&#45;&gt;Basic Block 2 -->
<g id="edge4" class="edge"><title>Basic Block 1&#45;&gt;Basic Block 2</title>
<path fill="none" stroke="black" d="M93.5658,-73.0306C102.247,-74.8336 111.406,-76.7359 120.351,-78.5937"/>
<polygon fill="black" stroke="black" points="119.82,-82.0579 130.322,-80.6646 121.243,-75.2041 119.82,-82.0579"/>
</g>
<!-- Basic Block 3 -->
<g id="node3" class="node"><title>Basic Block 3</title>
<polygon fill="#ffffcc" stroke="black" points="223,-54.3592 131,-54.3592 131,-18.3592 223,-18.3592 223,-54.3592"/>
<text text-anchor="middle" x="177" y="-33.2592" font-family="Times Roman,serif" font-size="14.00">Basic Block 3</text>
</g>
<!-- Basic Block 1&#45;&gt;Basic Block 3 -->
<g id="edge2" class="edge"><title>Basic Block 1&#45;&gt;Basic Block 3</title>
<path fill="none" stroke="black" d="M93.5658,-53.6878C102.247,-51.8848 111.406,-49.9825 120.351,-48.1247"/>
<polygon fill="black" stroke="black" points="121.243,-51.5143 130.322,-46.0538 119.82,-44.6605 121.243,-51.5143"/>
</g>
<!-- Basic Block 4 -->
<g id="node4" class="node"><title>Basic Block 4</title>
<polygon fill="#ffffcc" stroke="black" points="353,-81.3592 261,-81.3592 261,-45.3592 353,-45.3592 353,-81.3592"/>
<text text-anchor="middle" x="307" y="-60.2592" font-family="Times Roman,serif" font-size="14.00">Basic Block 4</text>
</g>
<!-- Basic Block 2&#45;&gt;Basic Block 4 -->
<g id="edge6" class="edge"><title>Basic Block 2&#45;&gt;Basic Block 4</title>
<path fill="none" stroke="black" d="M223.566,-80.6878C232.247,-78.8848 241.406,-76.9825 250.351,-75.1247"/>
<polygon fill="black" stroke="black" points="251.243,-78.5143 260.322,-73.0538 249.82,-71.6605 251.243,-78.5143"/>
</g>
<!-- Basic Block 3&#45;&gt;Basic Block 4 -->
<g id="edge8" class="edge"><title>Basic Block 3&#45;&gt;Basic Block 4</title>
<path fill="none" stroke="black" d="M223.566,-46.0306C232.247,-47.8336 241.406,-49.7359 250.351,-51.5937"/>
<polygon fill="black" stroke="black" points="249.82,-55.0579 260.322,-53.6646 251.243,-48.2041 249.82,-55.0579"/>
</g>
<!-- Addr 1 -->
<g id="node36" class="node"><title>Addr 1</title>
<polygon fill="lightgrey" stroke="black" points="445,-81.3592 391,-81.3592 391,-45.3592 445,-45.3592 445,-81.3592"/>
<text text-anchor="middle" x="418" y="-60.2592" font-family="Times Roman,serif" font-size="14.00">Addr 1</text>
</g>
<!-- Basic Block 4&#45;&gt;Addr 1 -->
<g id="edge10" class="edge"><title>Basic Block 4&#45;&gt;Addr 1</title>
<path fill="none" stroke="black" d="M353.752,-63.3592C362.598,-63.3592 371.748,-63.3592 380.272,-63.3592"/>
<polygon fill="black" stroke="black" points="380.298,-66.8593 390.298,-63.3592 380.298,-59.8593 380.298,-66.8593"/>
</g>
<!-- Basic Block 5 -->
<g id="node5" class="node"><title>Basic Block 5</title>
<polygon fill="#fed976" stroke="black" points="575,-81.3592 483,-81.3592 483,-45.3592 575,-45.3592 575,-81.3592"/>
<text text-anchor="middle" x="529" y="-60.2592" font-family="Times Roman,serif" font-size="14.00">Basic Block 5</text>
</g>
<!-- Basic Block 6 -->
<g id="node6" class="node"><title>Basic Block 6</title>
<polygon fill="#ffffcc" stroke="black" points="708,-127.359 616,-127.359 616,-91.3592 708,-91.3592 708,-127.359"/>
<text text-anchor="middle" x="662" y="-106.259" font-family="Times Roman,serif" font-size="14.00">Basic Block 6</text>
</g>
<!-- Basic Block 5&#45;&gt;Basic Block 6 -->
<g id="edge16" class="edge"><title>Basic Block 5&#45;&gt;Basic Block 6</title>
<path fill="none" stroke="black" d="M575.517,-79.4478C585.281,-82.8248 595.678,-86.4209 605.754,-89.9057"/>
<polygon fill="black" stroke="black" points="604.69,-93.241 615.285,-93.202 606.978,-86.6255 604.69,-93.241"/>
</g>
<!-- Basic Block 11 -->
<g id="node11" class="node"><title>Basic Block 11</title>
<polygon fill="#ffffcc" stroke="black" points="712,-54.3592 612,-54.3592 612,-18.3592 712,-18.3592 712,-54.3592"/>
<text text-anchor="middle" x="662" y="-33.2592" font-family="Times Roman,serif" font-size="14.00">Basic Block 11</text>
</g>
<!-- Basic Block 5&#45;&gt;Basic Block 11 -->
<g id="edge14" class="edge"><title>Basic Block 5&#45;&gt;Basic Block 11</title>
<path fill="none" stroke="black" d="M575.517,-53.9159C584.007,-52.1923 592.977,-50.3714 601.797,-48.5808"/>
<polygon fill="black" stroke="black" points="602.555,-51.9984 611.659,-46.5788 601.163,-45.1383 602.555,-51.9984"/>
</g>
<!-- Basic Block 7 -->
<g id="node7" class="node"><title>Basic Block 7</title>
<polygon fill="#ffffcc" stroke="black" points="841,-127.359 749,-127.359 749,-91.3592 841,-91.3592 841,-127.359"/>
<text text-anchor="middle" x="795" y="-106.259" font-family="Times Roman,serif" font-size="14.00">Basic Block 7</text>
</g>
<!-- Basic Block 6&#45;&gt;Basic Block 7 -->
<g id="edge20" class="edge"><title>Basic Block 6&#45;&gt;Basic Block 7</title>
<path fill="none" stroke="black" d="M708.517,-109.359C718.08,-109.359 728.25,-109.359 738.13,-109.359"/>
<polygon fill="black" stroke="black" points="738.285,-112.859 748.285,-109.359 738.284,-105.859 738.285,-112.859"/>
</g>
<!-- Basic Block 9 -->
<g id="node9" class="node"><title>Basic Block 9</title>
<polygon fill="#ffeda0" stroke="black" points="841,-183.359 749,-183.359 749,-147.359 841,-147.359 841,-183.359"/>
<text text-anchor="middle" x="795" y="-162.259" font-family="Times Roman,serif" font-size="14.00">Basic Block 9</text>
</g>
<!-- Basic Block 6&#45;&gt;Basic Block 9 -->
<g id="edge18" class="edge"><title>Basic Block 6&#45;&gt;Basic Block 9</title>
<path fill="none" stroke="black" d="M704.814,-127.386C716.796,-132.431 729.957,-137.973 742.434,-143.226"/>
<polygon fill="black" stroke="black" points="741.236,-146.519 751.81,-147.174 743.952,-140.068 741.236,-146.519"/>
</g>
<!-- Basic Block 8 -->
<g id="node8" class="node"><title>Basic Block 8</title>
<polygon fill="#ffffcc" stroke="black" points="1246,-86.3592 1154,-86.3592 1154,-50.3592 1246,-50.3592 1246,-86.3592"/>
<text text-anchor="middle" x="1200" y="-65.2592" font-family="Times Roman,serif" font-size="14.00">Basic Block 8</text>
</g>
<!-- Basic Block 7&#45;&gt;Basic Block 8 -->
<g id="edge24" class="edge"><title>Basic Block 7&#45;&gt;Basic Block 8</title>
<path fill="none" stroke="black" d="M841.616,-95.2534C853.39,-92.1758 866.077,-89.2713 878,-87.3592 969.923,-72.6172 1078.25,-69.0094 1142.91,-68.2917"/>
<polygon fill="black" stroke="black" points="1143.32,-71.7882 1153.29,-68.1973 1143.26,-64.7885 1143.32,-71.7882"/>
</g>
<!-- Basic Block 13 -->
<g id="node13" class="node"><title>Basic Block 13</title>
<polygon fill="#ffffcc" stroke="black" points="978,-132.359 878,-132.359 878,-96.3592 978,-96.3592 978,-132.359"/>
<text text-anchor="middle" x="928" y="-111.259" font-family="Times Roman,serif" font-size="14.00">Basic Block 13</text>
</g>
<!-- Basic Block 7&#45;&gt;Basic Block 13 -->
<g id="edge22" class="edge"><title>Basic Block 7&#45;&gt;Basic Block 13</title>
<path fill="none" stroke="black" d="M841.517,-111.108C849.916,-111.424 858.784,-111.757 867.513,-112.085"/>
<polygon fill="black" stroke="black" points="867.535,-115.588 877.659,-112.467 867.798,-108.593 867.535,-115.588"/>
</g>
<!-- Basic Block 15 -->
<g id="node15" class="node"><title>Basic Block 15</title>
<polygon fill="#800026" stroke="black" points="1386,-113.359 1286,-113.359 1286,-77.3592 1386,-77.3592 1386,-113.359"/>
<text text-anchor="middle" x="1336" y="-92.2592" font-family="Times Roman,serif" font-size="14.00">Basic Block 15</text>
</g>
<!-- Basic Block 8&#45;&gt;Basic Block 15 -->
<g id="edge26" class="edge"><title>Basic Block 8&#45;&gt;Basic Block 15</title>
<path fill="none" stroke="black" d="M1246.8,-77.6511C1256.16,-79.5078 1266.1,-81.4825 1275.83,-83.4142"/>
<polygon fill="black" stroke="black" points="1275.37,-86.8905 1285.86,-85.4049 1276.73,-80.0245 1275.37,-86.8905"/>
</g>
<!-- Addr 2 -->
<g id="node37" class="node"><title>Addr 2</title>
<polygon fill="lightgrey" stroke="black" points="955,-186.359 901,-186.359 901,-150.359 955,-150.359 955,-186.359"/>
<text text-anchor="middle" x="928" y="-165.259" font-family="Times Roman,serif" font-size="14.00">Addr 2</text>
</g>
<!-- Basic Block 9&#45;&gt;Addr 2 -->
<g id="edge28" class="edge"><title>Basic Block 9&#45;&gt;Addr 2</title>
<path fill="none" stroke="black" d="M841.517,-166.408C857.463,-166.768 875.099,-167.166 890.264,-167.508"/>
<polygon fill="black" stroke="black" points="890.24,-171.008 900.316,-167.735 890.398,-164.01 890.24,-171.008"/>
</g>
<!-- Basic Block 10 -->
<g id="node10" class="node"><title>Basic Block 10</title>
<polygon fill="#ffffcc" stroke="black" points="1114,-186.359 1014,-186.359 1014,-150.359 1114,-150.359 1114,-186.359"/>
<text text-anchor="middle" x="1064" y="-165.259" font-family="Times Roman,serif" font-size="14.00">Basic Block 10</text>
</g>
<!-- Basic Block 10&#45;&gt;Basic Block 15 -->
<g id="edge32" class="edge"><title>Basic Block 10&#45;&gt;Basic Block 15</title>
<path fill="none" stroke="black" d="M1114.27,-169.36C1152.47,-168.672 1205.8,-164.561 1250,-149.359 1269.83,-142.538 1289.81,-130.395 1305.51,-119.349"/>
<polygon fill="black" stroke="black" points="1307.72,-122.069 1313.76,-113.366 1303.61,-116.401 1307.72,-122.069"/>
</g>
<!-- Addr 3 -->
<g id="node38" class="node"><title>Addr 3</title>
<polygon fill="lightgrey" stroke="black" points="955,-40.3592 901,-40.3592 901,-4.3592 955,-4.3592 955,-40.3592"/>
<text text-anchor="middle" x="928" y="-19.2592" font-family="Times Roman,serif" font-size="14.00">Addr 3</text>
</g>
<!-- Basic Block 11&#45;&gt;Addr 3 -->
<g id="edge34" class="edge"><title>Basic Block 11&#45;&gt;Addr 3</title>
<path fill="none" stroke="black" d="M712.033,-33.7259C763.801,-31.0013 843.491,-26.807 890.218,-24.3477"/>
<polygon fill="black" stroke="black" points="890.425,-27.8417 900.228,-23.8209 890.057,-20.8514 890.425,-27.8417"/>
</g>
<!-- Basic Block 12 -->
<g id="node12" class="node"><title>Basic Block 12</title>
<polygon fill="#ffffcc" stroke="black" points="1114,-40.3592 1014,-40.3592 1014,-4.3592 1114,-4.3592 1114,-40.3592"/>
<text text-anchor="middle" x="1064" y="-19.2592" font-family="Times Roman,serif" font-size="14.00">Basic Block 12</text>
</g>
<!-- Basic Block 12&#45;&gt;Basic Block 15 -->
<g id="edge38" class="edge"><title>Basic Block 12&#45;&gt;Basic Block 15</title>
<path fill="none" stroke="black" d="M1114.27,-21.3583C1152.47,-22.0463 1205.8,-26.1579 1250,-41.3592 1269.83,-48.1803 1289.81,-60.3238 1305.51,-71.3696"/>
<polygon fill="black" stroke="black" points="1303.61,-74.3174 1313.76,-77.3525 1307.72,-68.6497 1303.61,-74.3174"/>
</g>
<!-- Addr 4 -->
<g id="node39" class="node"><title>Addr 4</title>
<polygon fill="lightgrey" stroke="black" points="1091,-132.359 1037,-132.359 1037,-96.3592 1091,-96.3592 1091,-132.359"/>
<text text-anchor="middle" x="1064" y="-111.259" font-family="Times Roman,serif" font-size="14.00">Addr 4</text>
</g>
<!-- Basic Block 13&#45;&gt;Addr 4 -->
<g id="edge40" class="edge"><title>Basic Block 13&#45;&gt;Addr 4</title>
<path fill="none" stroke="black" d="M978.255,-114.359C994.086,-114.359 1011.3,-114.359 1026.12,-114.359"/>
<polygon fill="black" stroke="black" points="1026.43,-117.859 1036.43,-114.359 1026.43,-110.859 1026.43,-117.859"/>
</g>
<!-- Basic Block 14 -->
<g id="node14" class="node"><title>Basic Block 14</title>
<polygon fill="#ffffcc" stroke="black" points="1250,-140.359 1150,-140.359 1150,-104.359 1250,-104.359 1250,-140.359"/>
<text text-anchor="middle" x="1200" y="-119.259" font-family="Times Roman,serif" font-size="14.00">Basic Block 14</text>
</g>
<!-- Basic Block 14&#45;&gt;Basic Block 15 -->
<g id="edge44" class="edge"><title>Basic Block 14&#45;&gt;Basic Block 15</title>
<path fill="none" stroke="black" d="M1250.25,-112.382C1258.63,-110.719 1267.39,-108.98 1275.98,-107.275"/>
<polygon fill="black" stroke="black" points="1276.82,-110.676 1285.95,-105.295 1275.46,-103.81 1276.82,-110.676"/>
</g>
<!-- Basic Block 16 -->
<g id="node16" class="node"><title>Basic Block 16</title>
<polygon fill="#ffeda0" stroke="black" points="1522,-218.359 1422,-218.359 1422,-182.359 1522,-182.359 1522,-218.359"/>
<text text-anchor="middle" x="1472" y="-197.259" font-family="Times Roman,serif" font-size="14.00">Basic Block 16</text>
</g>
<!-- Basic Block 15&#45;&gt;Basic Block 16 -->
<g id="edge48" class="edge"><title>Basic Block 15&#45;&gt;Basic Block 16</title>
<path fill="none" stroke="black" d="M1359.38,-113.409C1381.76,-130.688 1415.69,-156.881 1440.45,-176.003"/>
<polygon fill="black" stroke="black" points="1438.42,-178.852 1448.47,-182.193 1442.69,-173.312 1438.42,-178.852"/>
</g>
<!-- Basic Block 25 -->
<g id="node25" class="node"><title>Basic Block 25</title>
<polygon fill="#ffffcc" stroke="black" points="2474,-186.359 2374,-186.359 2374,-150.359 2474,-150.359 2474,-186.359"/>
<text text-anchor="middle" x="2424" y="-165.259" font-family="Times Roman,serif" font-size="14.00">Basic Block 25</text>
</g>
<!-- Basic Block 15&#45;&gt;Basic Block 25 -->
<g id="edge46" class="edge"><title>Basic Block 15&#45;&gt;Basic Block 25</title>
<path fill="none" stroke="black" d="M1368.81,-77.3387C1418.85,-51.5932 1517.92,-7.3592 1608,-7.3592 1608,-7.3592 1608,-7.3592 2152,-7.3592 2235.1,-7.3592 2267.77,18.0634 2338,-26.3592 2379.72,-52.7496 2404.11,-107.393 2415.69,-140.669"/>
<polygon fill="black" stroke="black" points="2412.4,-141.869 2418.87,-150.255 2419.04,-139.661 2412.4,-141.869"/>
</g>
<!-- Basic Block 17 -->
<g id="node17" class="node"><title>Basic Block 17</title>
<polygon fill="#fed976" stroke="black" points="1658,-218.359 1558,-218.359 1558,-182.359 1658,-182.359 1658,-218.359"/>
<text text-anchor="middle" x="1608" y="-197.259" font-family="Times Roman,serif" font-size="14.00">Basic Block 17</text>
</g>
<!-- Basic Block 16&#45;&gt;Basic Block 17 -->
<g id="edge52" class="edge"><title>Basic Block 16&#45;&gt;Basic Block 17</title>
<path fill="none" stroke="black" d="M1522.25,-200.359C1530.54,-200.359 1539.2,-200.359 1547.7,-200.359"/>
<polygon fill="black" stroke="black" points="1547.95,-203.859 1557.95,-200.359 1547.95,-196.859 1547.95,-203.859"/>
</g>
<!-- Basic Block 16&#45;&gt;Basic Block 25 -->
<g id="edge50" class="edge"><title>Basic Block 16&#45;&gt;Basic Block 25</title>
<path fill="none" stroke="black" d="M1498.86,-218.409C1546.21,-248.43 1648.58,-305.359 1744,-305.359 1744,-305.359 1744,-305.359 2152,-305.359 2238.33,-305.359 2263.25,-292.552 2338,-249.359 2362.95,-234.943 2386.41,-211.957 2402.51,-194.147"/>
<polygon fill="black" stroke="black" points="2405.37,-196.192 2409.37,-186.378 2400.13,-191.56 2405.37,-196.192"/>
</g>
<!-- Basic Block 18 -->
<g id="node18" class="node"><title>Basic Block 18</title>
<polygon fill="#ffffcc" stroke="black" points="1794,-180.359 1694,-180.359 1694,-144.359 1794,-144.359 1794,-180.359"/>
<text text-anchor="middle" x="1744" y="-159.259" font-family="Times Roman,serif" font-size="14.00">Basic Block 18</text>
</g>
<!-- Basic Block 17&#45;&gt;Basic Block 18 -->
<g id="edge56" class="edge"><title>Basic Block 17&#45;&gt;Basic Block 18</title>
<path fill="none" stroke="black" d="M1658.25,-186.317C1666.72,-183.952 1675.58,-181.476 1684.26,-179.051"/>
<polygon fill="black" stroke="black" points="1685.26,-182.405 1693.95,-176.343 1683.38,-175.664 1685.26,-182.405"/>
</g>
<!-- Basic Block 17&#45;&gt;Basic Block 25 -->
<g id="edge54" class="edge"><title>Basic Block 17&#45;&gt;Basic Block 25</title>
<path fill="none" stroke="black" d="M1652.89,-218.49C1706.14,-238.333 1798.05,-267.359 1880,-267.359 1880,-267.359 1880,-267.359 2152,-267.359 2240.18,-267.359 2335.26,-220.85 2386.36,-191.588"/>
<polygon fill="black" stroke="black" points="2388.19,-194.571 2395.08,-186.517 2384.67,-188.52 2388.19,-194.571"/>
</g>
<!-- Basic Block 19 -->
<g id="node19" class="node"><title>Basic Block 19</title>
<polygon fill="#ffffcc" stroke="black" points="2202,-109.359 2102,-109.359 2102,-73.3592 2202,-73.3592 2202,-109.359"/>
<text text-anchor="middle" x="2152" y="-88.2592" font-family="Times Roman,serif" font-size="14.00">Basic Block 19</text>
</g>
<!-- Basic Block 18&#45;&gt;Basic Block 19 -->
<g id="edge60" class="edge"><title>Basic Block 18&#45;&gt;Basic Block 19</title>
<path fill="none" stroke="black" d="M1794.09,-145.075C1805.77,-141.479 1818.24,-137.989 1830,-135.359 1920.16,-115.197 2026.72,-102.826 2091.81,-96.5284"/>
<polygon fill="black" stroke="black" points="2092.27,-100.001 2101.89,-95.5695 2091.6,-93.0321 2092.27,-100.001"/>
</g>
<!-- Basic Block 21 -->
<g id="node21" class="node"><title>Basic Block 21</title>
<polygon fill="#ffffcc" stroke="black" points="1930,-180.359 1830,-180.359 1830,-144.359 1930,-144.359 1930,-180.359"/>
<text text-anchor="middle" x="1880" y="-159.259" font-family="Times Roman,serif" font-size="14.00">Basic Block 21</text>
</g>
<!-- Basic Block 18&#45;&gt;Basic Block 21 -->
<g id="edge58" class="edge"><title>Basic Block 18&#45;&gt;Basic Block 21</title>
<path fill="none" stroke="black" d="M1794.25,-162.359C1802.54,-162.359 1811.2,-162.359 1819.7,-162.359"/>
<polygon fill="black" stroke="black" points="1819.95,-165.859 1829.95,-162.359 1819.95,-158.859 1819.95,-165.859"/>
</g>
<!-- Basic Block 20 -->
<g id="node20" class="node"><title>Basic Block 20</title>
<polygon fill="#ffffcc" stroke="black" points="2338,-71.3592 2238,-71.3592 2238,-35.3592 2338,-35.3592 2338,-71.3592"/>
<text text-anchor="middle" x="2288" y="-50.2592" font-family="Times Roman,serif" font-size="14.00">Basic Block 20</text>
</g>
<!-- Basic Block 19&#45;&gt;Basic Block 20 -->
<g id="edge64" class="edge"><title>Basic Block 19&#45;&gt;Basic Block 20</title>
<path fill="none" stroke="black" d="M2202.25,-77.3174C2210.72,-74.9518 2219.58,-72.4759 2228.26,-70.0509"/>
<polygon fill="black" stroke="black" points="2229.26,-73.4053 2237.95,-67.3433 2227.38,-66.6635 2229.26,-73.4053"/>
</g>
<!-- Basic Block 19&#45;&gt;Basic Block 25 -->
<g id="edge62" class="edge"><title>Basic Block 19&#45;&gt;Basic Block 25</title>
<path fill="none" stroke="black" d="M2202.18,-93.4606C2240.33,-96.2841 2293.63,-102.894 2338,-118.359 2356.27,-124.727 2375.01,-135.095 2390.32,-144.743"/>
<polygon fill="black" stroke="black" points="2388.61,-147.806 2398.91,-150.306 2392.42,-141.931 2388.61,-147.806"/>
</g>
<!-- Basic Block 20&#45;&gt;Basic Block 25 -->
<g id="edge66" class="edge"><title>Basic Block 20&#45;&gt;Basic Block 25</title>
<path fill="none" stroke="black" d="M2318.28,-71.3726C2324.95,-75.7121 2331.85,-80.5046 2338,-85.3592 2360.31,-102.98 2383.38,-125.515 2399.99,-142.656"/>
<polygon fill="black" stroke="black" points="2397.7,-145.323 2407.15,-150.115 2402.75,-140.476 2397.7,-145.323"/>
</g>
<!-- Basic Block 22 -->
<g id="node22" class="node"><title>Basic Block 22</title>
<polygon fill="#ffffcc" stroke="black" points="2066,-201.359 1966,-201.359 1966,-165.359 2066,-165.359 2066,-201.359"/>
<text text-anchor="middle" x="2016" y="-180.259" font-family="Times Roman,serif" font-size="14.00">Basic Block 22</text>
</g>
<!-- Basic Block 21&#45;&gt;Basic Block 22 -->
<g id="edge70" class="edge"><title>Basic Block 21&#45;&gt;Basic Block 22</title>
<path fill="none" stroke="black" d="M1930.25,-170.119C1938.63,-171.412 1947.39,-172.765 1955.98,-174.092"/>
<polygon fill="black" stroke="black" points="1955.53,-177.564 1965.95,-175.631 1956.6,-170.646 1955.53,-177.564"/>
</g>
<!-- Basic Block 24 -->
<g id="node24" class="node"><title>Basic Block 24</title>
<polygon fill="#ffffcc" stroke="black" points="2338,-163.359 2238,-163.359 2238,-127.359 2338,-127.359 2338,-163.359"/>
<text text-anchor="middle" x="2288" y="-142.259" font-family="Times Roman,serif" font-size="14.00">Basic Block 24</text>
</g>
<!-- Basic Block 21&#45;&gt;Basic Block 24 -->
<g id="edge68" class="edge"><title>Basic Block 21&#45;&gt;Basic Block 24</title>
<path fill="none" stroke="black" d="M1930,-158.569C1941.8,-157.758 1954.34,-156.965 1966,-156.359 2057.2,-151.622 2163.04,-148.453 2227.75,-146.779"/>
<polygon fill="black" stroke="black" points="2227.87,-150.277 2237.78,-146.523 2227.69,-143.279 2227.87,-150.277"/>
</g>
<!-- Basic Block 23 -->
<g id="node23" class="node"><title>Basic Block 23</title>
<polygon fill="#ffffcc" stroke="black" points="2202,-201.359 2102,-201.359 2102,-165.359 2202,-165.359 2202,-201.359"/>
<text text-anchor="middle" x="2152" y="-180.259" font-family="Times Roman,serif" font-size="14.00">Basic Block 23</text>
</g>
<!-- Basic Block 22&#45;&gt;Basic Block 23 -->
<g id="edge74" class="edge"><title>Basic Block 22&#45;&gt;Basic Block 23</title>
<path fill="none" stroke="black" d="M2066.25,-183.359C2074.54,-183.359 2083.2,-183.359 2091.7,-183.359"/>
<polygon fill="black" stroke="black" points="2091.95,-186.859 2101.95,-183.359 2091.95,-179.859 2091.95,-186.859"/>
</g>
<!-- Basic Block 22&#45;&gt;Basic Block 25 -->
<g id="edge72" class="edge"><title>Basic Block 22&#45;&gt;Basic Block 25</title>
<path fill="none" stroke="black" d="M2064.51,-201.407C2076.59,-205.114 2089.63,-208.462 2102,-210.359 2193.11,-224.326 2299.19,-203.319 2363.95,-186.316"/>
<polygon fill="black" stroke="black" points="2365.23,-189.597 2373.98,-183.628 2363.42,-182.836 2365.23,-189.597"/>
</g>
<!-- Basic Block 23&#45;&gt;Basic Block 24 -->
<g id="edge78" class="edge"><title>Basic Block 23&#45;&gt;Basic Block 24</title>
<path fill="none" stroke="black" d="M2202.25,-169.317C2210.72,-166.952 2219.58,-164.476 2228.26,-162.051"/>
<polygon fill="black" stroke="black" points="2229.26,-165.405 2237.95,-159.343 2227.38,-158.664 2229.26,-165.405"/>
</g>
<!-- Basic Block 23&#45;&gt;Basic Block 25 -->
<g id="edge76" class="edge"><title>Basic Block 23&#45;&gt;Basic Block 25</title>
<path fill="none" stroke="black" d="M2202.21,-180.59C2247.78,-178.077 2315.07,-174.366 2363.58,-171.691"/>
<polygon fill="black" stroke="black" points="2363.83,-175.183 2373.63,-171.137 2363.45,-168.193 2363.83,-175.183"/>
</g>
<!-- Basic Block 24&#45;&gt;Basic Block 25 -->
<g id="edge80" class="edge"><title>Basic Block 24&#45;&gt;Basic Block 25</title>
<path fill="none" stroke="black" d="M2338.25,-153.858C2346.63,-155.275 2355.39,-156.756 2363.98,-158.209"/>
<polygon fill="black" stroke="black" points="2363.51,-161.679 2373.95,-159.895 2364.68,-154.777 2363.51,-161.679"/>
</g>
<!-- Basic Block 26 -->
<g id="node26" class="node"><title>Basic Block 26</title>
<polygon fill="#ffffcc" stroke="black" points="2610,-213.359 2510,-213.359 2510,-177.359 2610,-177.359 2610,-213.359"/>
<text text-anchor="middle" x="2560" y="-192.259" font-family="Times Roman,serif" font-size="14.00">Basic Block 26</text>
</g>
<!-- Basic Block 25&#45;&gt;Basic Block 26 -->
<g id="edge84" class="edge"><title>Basic Block 25&#45;&gt;Basic Block 26</title>
<path fill="none" stroke="black" d="M2474.25,-178.336C2482.63,-179.999 2491.39,-181.738 2499.98,-183.444"/>
<polygon fill="black" stroke="black" points="2499.46,-186.909 2509.95,-185.423 2500.82,-180.043 2499.46,-186.909"/>
</g>
<!-- Basic Block 34 -->
<g id="node34" class="node"><title>Basic Block 34</title>
<polygon fill="#ffffcc" stroke="black" points="2610,-159.359 2510,-159.359 2510,-123.359 2610,-123.359 2610,-159.359"/>
<text text-anchor="middle" x="2560" y="-138.259" font-family="Times Roman,serif" font-size="14.00">Basic Block 34</text>
</g>
<!-- Basic Block 25&#45;&gt;Basic Block 34 -->
<g id="edge82" class="edge"><title>Basic Block 25&#45;&gt;Basic Block 34</title>
<path fill="none" stroke="black" d="M2474.25,-158.382C2482.63,-156.719 2491.39,-154.98 2499.98,-153.275"/>
<polygon fill="black" stroke="black" points="2500.82,-156.676 2509.95,-151.295 2499.46,-149.81 2500.82,-156.676"/>
</g>
<!-- Basic Block 27 -->
<g id="node27" class="node"><title>Basic Block 27</title>
<polygon fill="#ffffcc" stroke="black" points="2746,-205.359 2646,-205.359 2646,-169.359 2746,-169.359 2746,-205.359"/>
<text text-anchor="middle" x="2696" y="-184.259" font-family="Times Roman,serif" font-size="14.00">Basic Block 27</text>
</g>
<!-- Basic Block 26&#45;&gt;Basic Block 27 -->
<g id="edge88" class="edge"><title>Basic Block 26&#45;&gt;Basic Block 27</title>
<path fill="none" stroke="black" d="M2610.25,-192.403C2618.54,-191.916 2627.2,-191.406 2635.7,-190.906"/>
<polygon fill="black" stroke="black" points="2636.17,-194.384 2645.95,-190.303 2635.76,-187.397 2636.17,-194.384"/>
</g>
<!-- Basic Block 29 -->
<g id="node29" class="node"><title>Basic Block 29</title>
<polygon fill="#ffffcc" stroke="black" points="2746,-259.359 2646,-259.359 2646,-223.359 2746,-223.359 2746,-259.359"/>
<text text-anchor="middle" x="2696" y="-238.259" font-family="Times Roman,serif" font-size="14.00">Basic Block 29</text>
</g>
<!-- Basic Block 26&#45;&gt;Basic Block 29 -->
<g id="edge86" class="edge"><title>Basic Block 26&#45;&gt;Basic Block 29</title>
<path fill="none" stroke="black" d="M2610.25,-212.357C2618.72,-215.221 2627.58,-218.218 2636.26,-221.153"/>
<polygon fill="black" stroke="black" points="2635.36,-224.542 2645.95,-224.431 2637.6,-217.911 2635.36,-224.542"/>
</g>
<!-- Addr 5 -->
<g id="node40" class="node"><title>Addr 5</title>
<polygon fill="lightgrey" stroke="black" points="2859,-205.359 2805,-205.359 2805,-169.359 2859,-169.359 2859,-205.359"/>
<text text-anchor="middle" x="2832" y="-184.259" font-family="Times Roman,serif" font-size="14.00">Addr 5</text>
</g>
<!-- Basic Block 27&#45;&gt;Addr 5 -->
<g id="edge90" class="edge"><title>Basic Block 27&#45;&gt;Addr 5</title>
<path fill="none" stroke="black" d="M2746.25,-187.359C2762.09,-187.359 2779.3,-187.359 2794.12,-187.359"/>
<polygon fill="black" stroke="black" points="2794.43,-190.859 2804.43,-187.359 2794.43,-183.859 2794.43,-190.859"/>
</g>
<!-- Basic Block 28 -->
<g id="node28" class="node"><title>Basic Block 28</title>
<polygon fill="#ffffcc" stroke="black" points="3110,-205.359 3010,-205.359 3010,-169.359 3110,-169.359 3110,-205.359"/>
<text text-anchor="middle" x="3060" y="-184.259" font-family="Times Roman,serif" font-size="14.00">Basic Block 28</text>
</g>
<!-- Basic Block 35 -->
<g id="node35" class="node"><title>Basic Block 35</title>
<polygon fill="#ffffcc" stroke="black" points="3246,-232.359 3146,-232.359 3146,-196.359 3246,-196.359 3246,-232.359"/>
<text text-anchor="middle" x="3196" y="-211.259" font-family="Times Roman,serif" font-size="14.00">Basic Block 35</text>
</g>
<!-- Basic Block 28&#45;&gt;Basic Block 35 -->
<g id="edge94" class="edge"><title>Basic Block 28&#45;&gt;Basic Block 35</title>
<path fill="none" stroke="black" d="M3110.25,-197.336C3118.63,-198.999 3127.39,-200.738 3135.98,-202.444"/>
<polygon fill="black" stroke="black" points="3135.46,-205.909 3145.95,-204.423 3136.82,-199.043 3135.46,-205.909"/>
</g>
<!-- Basic Block 30 -->
<g id="node30" class="node"><title>Basic Block 30</title>
<polygon fill="#ffffcc" stroke="black" points="2882,-313.359 2782,-313.359 2782,-277.359 2882,-277.359 2882,-313.359"/>
<text text-anchor="middle" x="2832" y="-292.259" font-family="Times Roman,serif" font-size="14.00">Basic Block 30</text>
</g>
<!-- Basic Block 29&#45;&gt;Basic Block 30 -->
<g id="edge98" class="edge"><title>Basic Block 29&#45;&gt;Basic Block 30</title>
<path fill="none" stroke="black" d="M2741.66,-259.491C2752.88,-263.943 2765,-268.757 2776.62,-273.369"/>
<polygon fill="black" stroke="black" points="2775.64,-276.746 2786.22,-277.184 2778.22,-270.24 2775.64,-276.746"/>
</g>
<!-- Basic Block 32 -->
<g id="node32" class="node"><title>Basic Block 32</title>
<polygon fill="#ffffcc" stroke="black" points="2882,-259.359 2782,-259.359 2782,-223.359 2882,-223.359 2882,-259.359"/>
<text text-anchor="middle" x="2832" y="-238.259" font-family="Times Roman,serif" font-size="14.00">Basic Block 32</text>
</g>
<!-- Basic Block 29&#45;&gt;Basic Block 32 -->
<g id="edge96" class="edge"><title>Basic Block 29&#45;&gt;Basic Block 32</title>
<path fill="none" stroke="black" d="M2746.25,-241.359C2754.54,-241.359 2763.2,-241.359 2771.7,-241.359"/>
<polygon fill="black" stroke="black" points="2771.95,-244.859 2781.95,-241.359 2771.95,-237.859 2771.95,-244.859"/>
</g>
<!-- Addr 6 -->
<g id="node41" class="node"><title>Addr 6</title>
<polygon fill="lightgrey" stroke="black" points="2973,-313.359 2919,-313.359 2919,-277.359 2973,-277.359 2973,-313.359"/>
<text text-anchor="middle" x="2946" y="-292.259" font-family="Times Roman,serif" font-size="14.00">Addr 6</text>
</g>
<!-- Basic Block 30&#45;&gt;Addr 6 -->
<g id="edge100" class="edge"><title>Basic Block 30&#45;&gt;Addr 6</title>
<path fill="none" stroke="black" d="M2882,-295.359C2890.75,-295.359 2899.72,-295.359 2908.08,-295.359"/>
<polygon fill="black" stroke="black" points="2908.27,-298.859 2918.27,-295.359 2908.27,-291.859 2908.27,-298.859"/>
</g>
<!-- Basic Block 31 -->
<g id="node31" class="node"><title>Basic Block 31</title>
<polygon fill="#ffffcc" stroke="black" points="3110,-313.359 3010,-313.359 3010,-277.359 3110,-277.359 3110,-313.359"/>
<text text-anchor="middle" x="3060" y="-292.259" font-family="Times Roman,serif" font-size="14.00">Basic Block 31</text>
</g>
<!-- Basic Block 31&#45;&gt;Basic Block 35 -->
<g id="edge104" class="edge"><title>Basic Block 31&#45;&gt;Basic Block 35</title>
<path fill="none" stroke="black" d="M3094.06,-277.357C3099.42,-274.408 3104.89,-271.341 3110,-268.359 3126.42,-258.783 3144.27,-247.692 3159.43,-238.063"/>
<polygon fill="black" stroke="black" points="3161.46,-240.915 3168.01,-232.584 3157.7,-235.015 3161.46,-240.915"/>
</g>
<!-- Addr 7 -->
<g id="node42" class="node"><title>Addr 7</title>
<polygon fill="lightgrey" stroke="black" points="2973,-259.359 2919,-259.359 2919,-223.359 2973,-223.359 2973,-259.359"/>
<text text-anchor="middle" x="2946" y="-238.259" font-family="Times Roman,serif" font-size="14.00">Addr 7</text>
</g>
<!-- Basic Block 32&#45;&gt;Addr 7 -->
<g id="edge106" class="edge"><title>Basic Block 32&#45;&gt;Addr 7</title>
<path fill="none" stroke="black" d="M2882,-241.359C2890.75,-241.359 2899.72,-241.359 2908.08,-241.359"/>
<polygon fill="black" stroke="black" points="2908.27,-244.859 2918.27,-241.359 2908.27,-237.859 2908.27,-244.859"/>
</g>
<!-- Basic Block 33 -->
<g id="node33" class="node"><title>Basic Block 33</title>
<polygon fill="#ffffcc" stroke="black" points="3110,-259.359 3010,-259.359 3010,-223.359 3110,-223.359 3110,-259.359"/>
<text text-anchor="middle" x="3060" y="-238.259" font-family="Times Roman,serif" font-size="14.00">Basic Block 33</text>
</g>
<!-- Basic Block 33&#45;&gt;Basic Block 35 -->
<g id="edge110" class="edge"><title>Basic Block 33&#45;&gt;Basic Block 35</title>
<path fill="none" stroke="black" d="M3110.25,-231.382C3118.63,-229.719 3127.39,-227.98 3135.98,-226.275"/>
<polygon fill="black" stroke="black" points="3136.82,-229.676 3145.95,-224.295 3135.46,-222.81 3136.82,-229.676"/>
</g>
<!-- Addr 8 -->
<g id="node43" class="node"><title>Addr 8</title>
<polygon fill="lightgrey" stroke="black" points="2973,-159.359 2919,-159.359 2919,-123.359 2973,-123.359 2973,-159.359"/>
<text text-anchor="middle" x="2946" y="-138.259" font-family="Times Roman,serif" font-size="14.00">Addr 8</text>
</g>
<!-- Basic Block 34&#45;&gt;Addr 8 -->
<g id="edge112" class="edge"><title>Basic Block 34&#45;&gt;Addr 8</title>
<path fill="none" stroke="black" d="M2610.07,-141.359C2688.45,-141.359 2838.41,-141.359 2908.35,-141.359"/>
<polygon fill="black" stroke="black" points="2908.46,-144.859 2918.46,-141.359 2908.46,-137.859 2908.46,-144.859"/>
</g>
<!-- Addr 9 -->
<g id="node44" class="node"><title>Addr 9</title>
<polygon fill="lightgrey" stroke="black" points="3337,-232.359 3283,-232.359 3283,-196.359 3337,-196.359 3337,-232.359"/>
<text text-anchor="middle" x="3310" y="-211.259" font-family="Times Roman,serif" font-size="14.00">Addr 9</text>
</g>
<!-- Basic Block 35&#45;&gt;Addr 9 -->
<g id="edge116" class="edge"><title>Basic Block 35&#45;&gt;Addr 9</title>
<path fill="none" stroke="black" d="M3246,-214.359C3254.75,-214.359 3263.72,-214.359 3272.08,-214.359"/>
<polygon fill="black" stroke="black" points="3272.27,-217.859 3282.27,-214.359 3272.27,-210.859 3272.27,-217.859"/>
</g>
<!-- Addr 1&#45;&gt;Basic Block 5 -->
<g id="edge12" class="edge"><title>Addr 1&#45;&gt;Basic Block 5</title>
<path fill="none" stroke="black" d="M445.724,-63.3592C453.748,-63.3592 462.817,-63.3592 471.942,-63.3592"/>
<polygon fill="black" stroke="black" points="472.215,-66.8593 482.215,-63.3592 472.215,-59.8593 472.215,-66.8593"/>
</g>
<!-- Addr 2&#45;&gt;Basic Block 10 -->
<g id="edge30" class="edge"><title>Addr 2&#45;&gt;Basic Block 10</title>
<path fill="none" stroke="black" d="M955.522,-168.359C969.405,-168.359 986.828,-168.359 1003.62,-168.359"/>
<polygon fill="black" stroke="black" points="1003.96,-171.859 1013.96,-168.359 1003.96,-164.859 1003.96,-171.859"/>
</g>
<!-- Addr 3&#45;&gt;Basic Block 12 -->
<g id="edge36" class="edge"><title>Addr 3&#45;&gt;Basic Block 12</title>
<path fill="none" stroke="black" d="M955.522,-22.3592C969.405,-22.3592 986.828,-22.3592 1003.62,-22.3592"/>
<polygon fill="black" stroke="black" points="1003.96,-25.8593 1013.96,-22.3592 1003.96,-18.8593 1003.96,-25.8593"/>
</g>
<!-- Addr 4&#45;&gt;Basic Block 14 -->
<g id="edge42" class="edge"><title>Addr 4&#45;&gt;Basic Block 14</title>
<path fill="none" stroke="black" d="M1091.52,-115.978C1105.41,-116.795 1122.83,-117.82 1139.62,-118.808"/>
<polygon fill="black" stroke="black" points="1139.77,-122.322 1149.96,-119.416 1140.18,-115.335 1139.77,-122.322"/>
</g>
<!-- Addr 5&#45;&gt;Basic Block 28 -->
<g id="edge92" class="edge"><title>Addr 5&#45;&gt;Basic Block 28</title>
<path fill="none" stroke="black" d="M2859.5,-187.359C2894.08,-187.359 2954.4,-187.359 2999.88,-187.359"/>
<polygon fill="black" stroke="black" points="2999.92,-190.859 3009.92,-187.359 2999.92,-183.859 2999.92,-190.859"/>
</g>
<!-- Addr 6&#45;&gt;Basic Block 31 -->
<g id="edge102" class="edge"><title>Addr 6&#45;&gt;Basic Block 31</title>
<path fill="none" stroke="black" d="M2973.6,-295.359C2981.54,-295.359 2990.54,-295.359 2999.65,-295.359"/>
<polygon fill="black" stroke="black" points="2999.94,-298.859 3009.94,-295.359 2999.94,-291.859 2999.94,-298.859"/>
</g>
<!-- Addr 7&#45;&gt;Basic Block 33 -->
<g id="edge108" class="edge"><title>Addr 7&#45;&gt;Basic Block 33</title>
<path fill="none" stroke="black" d="M2973.6,-241.359C2981.54,-241.359 2990.54,-241.359 2999.65,-241.359"/>
<polygon fill="black" stroke="black" points="2999.94,-244.859 3009.94,-241.359 2999.94,-237.859 2999.94,-244.859"/>
</g>
<!-- Addr 8&#45;&gt;Basic Block 35 -->
<g id="edge114" class="edge"><title>Addr 8&#45;&gt;Basic Block 35</title>
<path fill="none" stroke="black" d="M2973.53,-140.881C3006.79,-141.124 3064.03,-144.201 3110,-160.359 3129.65,-167.265 3149.47,-179.295 3165.13,-190.25"/>
<polygon fill="black" stroke="black" points="3163.21,-193.182 3173.37,-196.187 3167.3,-187.502 3163.21,-193.182"/>
</g>
</g>
</svg>
