<?xml version="1.0" encoding="UTF-8" standalone="no"?>
<!DOCTYPE svg PUBLIC "-//W3C//DTD SVG 1.1//EN"
 "http://www.w3.org/Graphics/SVG/1.1/DTD/svg11.dtd">
<!-- Generated by graphviz version 2.26.0 (20091210.2329)
 -->
<!-- Title: linemap_position_for_column Pages: 1 -->
<svg width="1332pt" height="126pt"
 viewBox="0.00 0.00 1332.00 126.00" xmlns="http://www.w3.org/2000/svg" xmlns:xlink="http://www.w3.org/1999/xlink">
<g id="graph1" class="graph" transform="scale(1 1) rotate(0) translate(4 122)">
<title>linemap_position_for_column</title>
<polygon fill="white" stroke="white" points="-4,5 -4,-122 1329,-122 1329,5 -4,5"/>
<!-- Basic Block 1 -->
<g id="node1" class="node"><title>Basic Block 1</title>
<polygon fill="#800026" stroke="black" points="93,-42 1,-42 1,-6 93,-6 93,-42"/>
<text text-anchor="middle" x="47" y="-20.9" font-family="Times Roman,serif" font-size="14.00">Basic Block 1</text>
</g>
<!-- Basic Block 2 -->
<g id="node2" class="node"><title>Basic Block 2</title>
<polygon fill="#ffffcc" stroke="black" points="223,-66 131,-66 131,-30 223,-30 223,-66"/>
<text text-anchor="middle" x="177" y="-44.9" font-family="Times Roman,serif" font-size="14.00">Basic Block 2</text>
</g>
<!-- Basic Block 1&#45;&gt;Basic Block 2 -->
<g id="edge4" class="edge"><title>Basic Block 1&#45;&gt;Basic Block 2</title>
<path fill="none" stroke="black" d="M93.5658,-32.5968C102.247,-34.1994 111.406,-35.8904 120.351,-37.5418"/>
<polygon fill="black" stroke="black" points="119.853,-41.0089 130.322,-39.3826 121.124,-34.1252 119.853,-41.0089"/>
</g>
<!-- Basic Block 7 -->
<g id="node7" class="node"><title>Basic Block 7</title>
<polygon fill="#fc4e2a" stroke="black" points="835,-45 743,-45 743,-9 835,-9 835,-45"/>
<text text-anchor="middle" x="789" y="-23.9" font-family="Times Roman,serif" font-size="14.00">Basic Block 7</text>
</g>
<!-- Basic Block 1&#45;&gt;Basic Block 7 -->
<g id="edge2" class="edge"><title>Basic Block 1&#45;&gt;Basic Block 7</title>
<path fill="none" stroke="black" d="M93.8496,-17.0582C145.816,-9.97009 232.204,-7.10543e-15 307,-0 307,-0 307,-0 548,-0 611.283,-3.55271e-15 683.335,-9.30789 732.043,-16.9936"/>
<polygon fill="black" stroke="black" points="731.642,-20.474 742.071,-18.605 732.753,-13.5626 731.642,-20.474"/>
</g>
<!-- Basic Block 3 -->
<g id="node3" class="node"><title>Basic Block 3</title>
<polygon fill="#ffffcc" stroke="black" points="353,-66 261,-66 261,-30 353,-30 353,-66"/>
<text text-anchor="middle" x="307" y="-44.9" font-family="Times Roman,serif" font-size="14.00">Basic Block 3</text>
</g>
<!-- Basic Block 2&#45;&gt;Basic Block 3 -->
<g id="edge8" class="edge"><title>Basic Block 2&#45;&gt;Basic Block 3</title>
<path fill="none" stroke="black" d="M223.566,-48C232.154,-48 241.21,-48 250.063,-48"/>
<polygon fill="black" stroke="black" points="250.322,-51.5001 260.322,-48 250.322,-44.5001 250.322,-51.5001"/>
</g>
<!-- Basic Block 4 -->
<g id="node4" class="node"><title>Basic Block 4</title>
<polygon fill="#ffffcc" stroke="black" points="483,-118 391,-118 391,-82 483,-82 483,-118"/>
<text text-anchor="middle" x="437" y="-96.9" font-family="Times Roman,serif" font-size="14.00">Basic Block 4</text>
</g>
<!-- Basic Block 2&#45;&gt;Basic Block 4 -->
<g id="edge6" class="edge"><title>Basic Block 2&#45;&gt;Basic Block 4</title>
<path fill="none" stroke="black" d="M223.566,-64.722C235.342,-68.5137 248.042,-72.2328 260,-75 299.765,-84.202 345.387,-90.5474 380.354,-94.5425"/>
<polygon fill="black" stroke="black" points="380.056,-98.0309 390.382,-95.6574 380.83,-91.0738 380.056,-98.0309"/>
</g>
<!-- Basic Block 3&#45;&gt;Basic Block 4 -->
<g id="edge12" class="edge"><title>Basic Block 3&#45;&gt;Basic Block 4</title>
<path fill="none" stroke="black" d="M352.103,-66.0411C361.884,-69.9535 372.33,-74.132 382.431,-78.1724"/>
<polygon fill="black" stroke="black" points="381.392,-81.5265 391.977,-81.9908 383.992,-75.0271 381.392,-81.5265"/>
</g>
<!-- Basic Block 5 -->
<g id="node5" class="node"><title>Basic Block 5</title>
<polygon fill="#ffffcc" stroke="black" points="483,-64 391,-64 391,-28 483,-28 483,-64"/>
<text text-anchor="middle" x="437" y="-42.9" font-family="Times Roman,serif" font-size="14.00">Basic Block 5</text>
</g>
<!-- Basic Block 3&#45;&gt;Basic Block 5 -->
<g id="edge10" class="edge"><title>Basic Block 3&#45;&gt;Basic Block 5</title>
<path fill="none" stroke="black" d="M353.566,-47.2836C362.154,-47.1515 371.21,-47.0122 380.063,-46.876"/>
<polygon fill="black" stroke="black" points="380.377,-50.3716 390.322,-46.7181 380.27,-43.3725 380.377,-50.3716"/>
</g>
<!-- Basic Block 10 -->
<g id="node10" class="node"><title>Basic Block 10</title>
<polygon fill="#ffeda0" stroke="black" points="1232,-95 1132,-95 1132,-59 1232,-59 1232,-95"/>
<text text-anchor="middle" x="1182" y="-73.9" font-family="Times Roman,serif" font-size="14.00">Basic Block 10</text>
</g>
<!-- Basic Block 4&#45;&gt;Basic Block 10 -->
<g id="edge14" class="edge"><title>Basic Block 4&#45;&gt;Basic Block 10</title>
<path fill="none" stroke="black" d="M483.775,-100C528.702,-100 598.49,-100 659,-100 659,-100 659,-100 919,-100 988.755,-100 1068.52,-91.8712 1121.75,-85.2786"/>
<polygon fill="black" stroke="black" points="1122.21,-88.7478 1131.7,-84.0257 1121.34,-81.8026 1122.21,-88.7478"/>
</g>
<!-- Addr 1 -->
<g id="node11" class="node"><title>Addr 1</title>
<polygon fill="lightgrey" stroke="black" points="575,-64 521,-64 521,-28 575,-28 575,-64"/>
<text text-anchor="middle" x="548" y="-42.9" font-family="Times Roman,serif" font-size="14.00">Addr 1</text>
</g>
<!-- Basic Block 5&#45;&gt;Addr 1 -->
<g id="edge16" class="edge"><title>Basic Block 5&#45;&gt;Addr 1</title>
<path fill="none" stroke="black" d="M483.752,-46C492.598,-46 501.748,-46 510.272,-46"/>
<polygon fill="black" stroke="black" points="510.298,-49.5001 520.298,-46 510.298,-42.5001 510.298,-49.5001"/>
</g>
<!-- Basic Block 6 -->
<g id="node6" class="node"><title>Basic Block 6</title>
<polygon fill="#ffffcc" stroke="black" points="705,-64 613,-64 613,-28 705,-28 705,-64"/>
<text text-anchor="middle" x="659" y="-42.9" font-family="Times Roman,serif" font-size="14.00">Basic Block 6</text>
</g>
<!-- Basic Block 6&#45;&gt;Basic Block 7 -->
<g id="edge20" class="edge"><title>Basic Block 6&#45;&gt;Basic Block 7</title>
<path fill="none" stroke="black" d="M705.566,-39.1942C714.247,-37.9254 723.406,-36.5867 732.351,-35.2794"/>
<polygon fill="black" stroke="black" points="732.934,-38.7316 742.322,-33.8221 731.921,-31.8052 732.934,-38.7316"/>
</g>
<!-- Basic Block 8 -->
<g id="node8" class="node"><title>Basic Block 8</title>
<polygon fill="#feb24c" stroke="black" points="965,-72 873,-72 873,-36 965,-36 965,-72"/>
<text text-anchor="middle" x="919" y="-50.9" font-family="Times Roman,serif" font-size="14.00">Basic Block 8</text>
</g>
<!-- Basic Block 7&#45;&gt;Basic Block 8 -->
<g id="edge24" class="edge"><title>Basic Block 7&#45;&gt;Basic Block 8</title>
<path fill="none" stroke="black" d="M835.566,-36.6714C844.247,-38.4744 853.406,-40.3767 862.351,-42.2345"/>
<polygon fill="black" stroke="black" points="861.82,-45.6987 872.322,-44.3054 863.243,-38.8449 861.82,-45.6987"/>
</g>
<!-- Basic Block 9 -->
<g id="node9" class="node"><title>Basic Block 9</title>
<polygon fill="#ffffcc" stroke="black" points="1095,-72 1003,-72 1003,-36 1095,-36 1095,-72"/>
<text text-anchor="middle" x="1049" y="-50.9" font-family="Times Roman,serif" font-size="14.00">Basic Block 9</text>
</g>
<!-- Basic Block 7&#45;&gt;Basic Block 9 -->
<g id="edge22" class="edge"><title>Basic Block 7&#45;&gt;Basic Block 9</title>
<path fill="none" stroke="black" d="M835.524,-23.0426C871.404,-20.9426 922.144,-20.0462 966,-27 974.699,-28.3793 983.727,-30.5242 992.485,-33.0159"/>
<polygon fill="black" stroke="black" points="991.643,-36.4175 1002.23,-35.9541 993.664,-29.7157 991.643,-36.4175"/>
</g>
<!-- Basic Block 8&#45;&gt;Basic Block 9 -->
<g id="edge26" class="edge"><title>Basic Block 8&#45;&gt;Basic Block 9</title>
<path fill="none" stroke="black" d="M965.566,-54C974.154,-54 983.21,-54 992.063,-54"/>
<polygon fill="black" stroke="black" points="992.322,-57.5001 1002.32,-54 992.322,-50.5001 992.322,-57.5001"/>
</g>
<!-- Basic Block 9&#45;&gt;Basic Block 10 -->
<g id="edge28" class="edge"><title>Basic Block 9&#45;&gt;Basic Block 10</title>
<path fill="none" stroke="black" d="M1095.52,-62.0443C1104.01,-63.5126 1112.98,-65.0637 1121.8,-66.589"/>
<polygon fill="black" stroke="black" points="1121.21,-70.0391 1131.66,-68.2944 1122.4,-63.1415 1121.21,-70.0391"/>
</g>
<!-- Addr 2 -->
<g id="node12" class="node"><title>Addr 2</title>
<polygon fill="lightgrey" stroke="black" points="1323,-95 1269,-95 1269,-59 1323,-59 1323,-95"/>
<text text-anchor="middle" x="1296" y="-73.9" font-family="Times Roman,serif" font-size="14.00">Addr 2</text>
</g>
<!-- Basic Block 10&#45;&gt;Addr 2 -->
<g id="edge30" class="edge"><title>Basic Block 10&#45;&gt;Addr 2</title>
<path fill="none" stroke="black" d="M1232,-77C1240.75,-77 1249.72,-77 1258.08,-77"/>
<polygon fill="black" stroke="black" points="1258.27,-80.5001 1268.27,-77 1258.27,-73.5001 1258.27,-80.5001"/>
</g>
<!-- Addr 1&#45;&gt;Basic Block 6 -->
<g id="edge18" class="edge"><title>Addr 1&#45;&gt;Basic Block 6</title>
<path fill="none" stroke="black" d="M575.724,-46C583.748,-46 592.817,-46 601.942,-46"/>
<polygon fill="black" stroke="black" points="602.215,-49.5001 612.215,-46 602.215,-42.5001 602.215,-49.5001"/>
</g>
</g>
</svg>
