<?xml version="1.0" encoding="UTF-8" standalone="no"?>
<!DOCTYPE svg PUBLIC "-//W3C//DTD SVG 1.1//EN"
 "http://www.w3.org/Graphics/SVG/1.1/DTD/svg11.dtd">
<!-- Generated by graphviz version 2.26.0 (20091210.2329)
 -->
<!-- Title: ggc_round_alloc_size_1 Pages: 1 -->
<svg width="1110pt" height="121pt"
 viewBox="0.00 0.00 1110.00 121.00" xmlns="http://www.w3.org/2000/svg" xmlns:xlink="http://www.w3.org/1999/xlink">
<g id="graph1" class="graph" transform="scale(1 1) rotate(0) translate(4 117)">
<title>ggc_round_alloc_size_1</title>
<polygon fill="white" stroke="white" points="-4,5 -4,-117 1107,-117 1107,5 -4,5"/>
<!-- Basic Block 1 -->
<g id="node1" class="node"><title>Basic Block 1</title>
<polygon fill="#fed976" stroke="black" points="93,-64 1,-64 1,-28 93,-28 93,-64"/>
<text text-anchor="middle" x="47" y="-42.9" font-family="Times Roman,serif" font-size="14.00">Basic Block 1</text>
</g>
<!-- Basic Block 2 -->
<g id="node2" class="node"><title>Basic Block 2</title>
<polygon fill="#800026" stroke="black" points="353,-90 261,-90 261,-54 353,-54 353,-90"/>
<text text-anchor="middle" x="307" y="-68.9" font-family="Times Roman,serif" font-size="14.00">Basic Block 2</text>
</g>
<!-- Basic Block 1&#45;&gt;Basic Block 2 -->
<g id="edge4" class="edge"><title>Basic Block 1&#45;&gt;Basic Block 2</title>
<path fill="none" stroke="black" d="M93.7831,-50.6783C137.642,-55.0642 203.302,-61.6302 250.16,-66.316"/>
<polygon fill="black" stroke="black" points="249.856,-69.803 260.155,-67.3155 250.553,-62.8377 249.856,-69.803"/>
</g>
<!-- Basic Block 3 -->
<g id="node3" class="node"><title>Basic Block 3</title>
<polygon fill="#ffffcc" stroke="black" points="223,-40 131,-40 131,-4 223,-4 223,-40"/>
<text text-anchor="middle" x="177" y="-18.9" font-family="Times Roman,serif" font-size="14.00">Basic Block 3</text>
</g>
<!-- Basic Block 1&#45;&gt;Basic Block 3 -->
<g id="edge2" class="edge"><title>Basic Block 1&#45;&gt;Basic Block 3</title>
<path fill="none" stroke="black" d="M93.5658,-37.4032C102.247,-35.8006 111.406,-34.1096 120.351,-32.4582"/>
<polygon fill="black" stroke="black" points="121.124,-35.8748 130.322,-30.6174 119.853,-28.9911 121.124,-35.8748"/>
</g>
<!-- Basic Block 6 -->
<g id="node6" class="node"><title>Basic Block 6</title>
<polygon fill="#ffffcc" stroke="black" points="483,-90 391,-90 391,-54 483,-54 483,-90"/>
<text text-anchor="middle" x="437" y="-68.9" font-family="Times Roman,serif" font-size="14.00">Basic Block 6</text>
</g>
<!-- Basic Block 2&#45;&gt;Basic Block 6 -->
<g id="edge6" class="edge"><title>Basic Block 2&#45;&gt;Basic Block 6</title>
<path fill="none" stroke="black" d="M353.566,-72C362.154,-72 371.21,-72 380.063,-72"/>
<polygon fill="black" stroke="black" points="380.322,-75.5001 390.322,-72 380.322,-68.5001 380.322,-75.5001"/>
</g>
<!-- Basic Block 5 -->
<g id="node5" class="node"><title>Basic Block 5</title>
<polygon fill="#ffffcc" stroke="black" points="353,-36 261,-36 261,-1.77636e-14 353,-3.55271e-15 353,-36"/>
<text text-anchor="middle" x="307" y="-14.9" font-family="Times Roman,serif" font-size="14.00">Basic Block 5</text>
</g>
<!-- Basic Block 3&#45;&gt;Basic Block 5 -->
<g id="edge8" class="edge"><title>Basic Block 3&#45;&gt;Basic Block 5</title>
<path fill="none" stroke="black" d="M223.566,-20.5672C232.154,-20.303 241.21,-20.0243 250.063,-19.7519"/>
<polygon fill="black" stroke="black" points="250.435,-23.2422 260.322,-19.4362 250.219,-16.2455 250.435,-23.2422"/>
</g>
<!-- Basic Block 4 -->
<g id="node4" class="node"><title>Basic Block 4</title>
<polygon fill="#ffffcc" stroke="black" points="483,-36 391,-36 391,-1.77636e-14 483,-3.55271e-15 483,-36"/>
<text text-anchor="middle" x="437" y="-14.9" font-family="Times Roman,serif" font-size="14.00">Basic Block 4</text>
</g>
<!-- Basic Block 4&#45;&gt;Basic Block 5 -->
<g id="edge10" class="edge"><title>Basic Block 4&#45;&gt;Basic Block 5</title>
<path fill="none" stroke="black" d="M390.322,-24.5058C381.73,-24.7406 372.673,-24.8061 363.822,-24.7023"/>
<polygon fill="black" stroke="black" points="363.632,-21.198 353.566,-24.5027 363.496,-28.1967 363.632,-21.198"/>
</g>
<!-- Basic Block 5&#45;&gt;Basic Block 4 -->
<g id="edge12" class="edge"><title>Basic Block 5&#45;&gt;Basic Block 4</title>
<path fill="none" stroke="black" d="M353.566,-11.4973C362.154,-11.261 371.21,-11.1941 380.063,-11.2964"/>
<polygon fill="black" stroke="black" points="380.257,-14.8007 390.322,-11.4942 380.392,-7.80197 380.257,-14.8007"/>
</g>
<!-- Basic Block 5&#45;&gt;Basic Block 6 -->
<g id="edge14" class="edge"><title>Basic Block 5&#45;&gt;Basic Block 6</title>
<path fill="none" stroke="black" d="M350.65,-36.1314C361.261,-40.5393 372.727,-45.3018 383.728,-49.8718"/>
<polygon fill="black" stroke="black" points="382.667,-53.2206 393.244,-53.8245 385.352,-46.7561 382.667,-53.2206"/>
</g>
<!-- Basic Block 7 -->
<g id="node7" class="node"><title>Basic Block 7</title>
<polygon fill="#ffffcc" stroke="black" points="613,-113 521,-113 521,-77 613,-77 613,-113"/>
<text text-anchor="middle" x="567" y="-91.9" font-family="Times Roman,serif" font-size="14.00">Basic Block 7</text>
</g>
<!-- Basic Block 6&#45;&gt;Basic Block 7 -->
<g id="edge18" class="edge"><title>Basic Block 6&#45;&gt;Basic Block 7</title>
<path fill="none" stroke="black" d="M483.566,-80.2386C492.247,-81.7745 501.406,-83.395 510.351,-84.9776"/>
<polygon fill="black" stroke="black" points="509.866,-88.4459 520.322,-86.7417 511.085,-81.5529 509.866,-88.4459"/>
</g>
<!-- Basic Block 8 -->
<g id="node8" class="node"><title>Basic Block 8</title>
<polygon fill="#ffffcc" stroke="black" points="743,-90 651,-90 651,-54 743,-54 743,-90"/>
<text text-anchor="middle" x="697" y="-68.9" font-family="Times Roman,serif" font-size="14.00">Basic Block 8</text>
</g>
<!-- Basic Block 6&#45;&gt;Basic Block 8 -->
<g id="edge16" class="edge"><title>Basic Block 6&#45;&gt;Basic Block 8</title>
<path fill="none" stroke="black" d="M483.518,-69.363C495.408,-68.7976 508.174,-68.2848 520,-68 561.766,-66.9942 572.234,-66.9942 614,-68 622.5,-68.2047 631.486,-68.5272 640.283,-68.9023"/>
<polygon fill="black" stroke="black" points="640.335,-72.4081 650.482,-69.363 640.65,-65.4153 640.335,-72.4081"/>
</g>
<!-- Basic Block 7&#45;&gt;Basic Block 8 -->
<g id="edge20" class="edge"><title>Basic Block 7&#45;&gt;Basic Block 8</title>
<path fill="none" stroke="black" d="M613.566,-86.7614C622.247,-85.2255 631.406,-83.605 640.351,-82.0224"/>
<polygon fill="black" stroke="black" points="641.085,-85.4471 650.322,-80.2583 639.866,-78.5541 641.085,-85.4471"/>
</g>
<!-- Basic Block 9 -->
<g id="node9" class="node"><title>Basic Block 9</title>
<polygon fill="#ffffcc" stroke="black" points="873,-113 781,-113 781,-77 873,-77 873,-113"/>
<text text-anchor="middle" x="827" y="-91.9" font-family="Times Roman,serif" font-size="14.00">Basic Block 9</text>
</g>
<!-- Basic Block 8&#45;&gt;Basic Block 9 -->
<g id="edge24" class="edge"><title>Basic Block 8&#45;&gt;Basic Block 9</title>
<path fill="none" stroke="black" d="M743.566,-80.2386C752.247,-81.7745 761.406,-83.395 770.351,-84.9776"/>
<polygon fill="black" stroke="black" points="769.866,-88.4459 780.322,-86.7417 771.085,-81.5529 769.866,-88.4459"/>
</g>
<!-- Basic Block 10 -->
<g id="node10" class="node"><title>Basic Block 10</title>
<polygon fill="#ffffcc" stroke="black" points="1010,-90 910,-90 910,-54 1010,-54 1010,-90"/>
<text text-anchor="middle" x="960" y="-68.9" font-family="Times Roman,serif" font-size="14.00">Basic Block 10</text>
</g>
<!-- Basic Block 8&#45;&gt;Basic Block 10 -->
<g id="edge22" class="edge"><title>Basic Block 8&#45;&gt;Basic Block 10</title>
<path fill="none" stroke="black" d="M743.518,-69.363C755.408,-68.7976 768.174,-68.2848 780,-68 821.766,-66.9942 832.234,-67.0292 874,-68 882.377,-68.1947 891.21,-68.496 899.896,-68.8478"/>
<polygon fill="black" stroke="black" points="899.85,-72.3489 909.991,-69.2806 900.15,-65.3553 899.85,-72.3489"/>
</g>
<!-- Basic Block 9&#45;&gt;Basic Block 10 -->
<g id="edge26" class="edge"><title>Basic Block 9&#45;&gt;Basic Block 10</title>
<path fill="none" stroke="black" d="M873.517,-86.9557C882.007,-85.4874 890.977,-83.9363 899.797,-82.411"/>
<polygon fill="black" stroke="black" points="900.402,-85.8585 909.659,-80.7056 899.209,-78.9609 900.402,-85.8585"/>
</g>
<!-- Addr 1 -->
<g id="node11" class="node"><title>Addr 1</title>
<polygon fill="lightgrey" stroke="black" points="1101,-90 1047,-90 1047,-54 1101,-54 1101,-90"/>
<text text-anchor="middle" x="1074" y="-68.9" font-family="Times Roman,serif" font-size="14.00">Addr 1</text>
</g>
<!-- Basic Block 10&#45;&gt;Addr 1 -->
<g id="edge28" class="edge"><title>Basic Block 10&#45;&gt;Addr 1</title>
<path fill="none" stroke="black" d="M1010,-72C1018.75,-72 1027.72,-72 1036.08,-72"/>
<polygon fill="black" stroke="black" points="1036.27,-75.5001 1046.27,-72 1036.27,-68.5001 1036.27,-75.5001"/>
</g>
</g>
</svg>
