<?xml version="1.0" encoding="UTF-8" standalone="no"?>
<!DOCTYPE svg PUBLIC "-//W3C//DTD SVG 1.1//EN"
 "http://www.w3.org/Graphics/SVG/1.1/DTD/svg11.dtd">
<!-- Generated by graphviz version 2.26.0 (20091210.2329)
 -->
<!-- Title: bitmap_find_bit Pages: 1 -->
<svg width="1814pt" height="425pt"
 viewBox="0.00 0.00 1814.00 425.00" xmlns="http://www.w3.org/2000/svg" xmlns:xlink="http://www.w3.org/1999/xlink">
<g id="graph1" class="graph" transform="scale(1 1) rotate(0) translate(4 421)">
<title>bitmap_find_bit</title>
<polygon fill="white" stroke="white" points="-4,5 -4,-421 1811,-421 1811,5 -4,5"/>
<!-- Basic Block 1 -->
<g id="node1" class="node"><title>Basic Block 1</title>
<polygon fill="#800026" stroke="black" points="93,-391 1,-391 1,-355 93,-355 93,-391"/>
<text text-anchor="middle" x="47" y="-369.9" font-family="Times Roman,serif" font-size="14.00">Basic Block 1</text>
</g>
<!-- Basic Block 2 -->
<g id="node2" class="node"><title>Basic Block 2</title>
<polygon fill="#ffeda0" stroke="black" points="223,-368 131,-368 131,-332 223,-332 223,-368"/>
<text text-anchor="middle" x="177" y="-346.9" font-family="Times Roman,serif" font-size="14.00">Basic Block 2</text>
</g>
<!-- Basic Block 1&#45;&gt;Basic Block 2 -->
<g id="edge4" class="edge"><title>Basic Block 1&#45;&gt;Basic Block 2</title>
<path fill="none" stroke="black" d="M93.5658,-364.761C102.247,-363.226 111.406,-361.605 120.351,-360.022"/>
<polygon fill="black" stroke="black" points="121.085,-363.447 130.322,-358.258 119.866,-356.554 121.085,-363.447"/>
</g>
<!-- Basic Block 3 -->
<g id="node3" class="node"><title>Basic Block 3</title>
<polygon fill="#feb24c" stroke="black" points="353,-414 261,-414 261,-378 353,-378 353,-414"/>
<text text-anchor="middle" x="307" y="-392.9" font-family="Times Roman,serif" font-size="14.00">Basic Block 3</text>
</g>
<!-- Basic Block 1&#45;&gt;Basic Block 3 -->
<g id="edge2" class="edge"><title>Basic Block 1&#45;&gt;Basic Block 3</title>
<path fill="none" stroke="black" d="M93.7831,-377.139C137.642,-381.018 203.302,-386.827 250.16,-390.972"/>
<polygon fill="black" stroke="black" points="249.885,-394.461 260.155,-391.856 250.502,-387.488 249.885,-394.461"/>
</g>
<!-- Basic Block 2&#45;&gt;Basic Block 3 -->
<g id="edge8" class="edge"><title>Basic Block 2&#45;&gt;Basic Block 3</title>
<path fill="none" stroke="black" d="M223.566,-366.477C232.34,-369.582 241.603,-372.86 250.64,-376.057"/>
<polygon fill="black" stroke="black" points="249.728,-379.447 260.322,-379.483 252.063,-372.848 249.728,-379.447"/>
</g>
<!-- Basic Block 4 -->
<g id="node4" class="node"><title>Basic Block 4</title>
<polygon fill="#ffffcc" stroke="black" points="353,-337 261,-337 261,-301 353,-301 353,-337"/>
<text text-anchor="middle" x="307" y="-315.9" font-family="Times Roman,serif" font-size="14.00">Basic Block 4</text>
</g>
<!-- Basic Block 2&#45;&gt;Basic Block 4 -->
<g id="edge6" class="edge"><title>Basic Block 2&#45;&gt;Basic Block 4</title>
<path fill="none" stroke="black" d="M223.566,-338.896C232.247,-336.826 241.406,-334.642 250.351,-332.509"/>
<polygon fill="black" stroke="black" points="251.407,-335.855 260.322,-330.131 249.783,-329.046 251.407,-335.855"/>
</g>
<!-- Basic Block 24 -->
<g id="node24" class="node"><title>Basic Block 24</title>
<polygon fill="#ffeda0" stroke="black" points="1714,-356 1614,-356 1614,-320 1714,-320 1714,-356"/>
<text text-anchor="middle" x="1664" y="-334.9" font-family="Times Roman,serif" font-size="14.00">Basic Block 24</text>
</g>
<!-- Basic Block 3&#45;&gt;Basic Block 24 -->
<g id="edge10" class="edge"><title>Basic Block 3&#45;&gt;Basic Block 24</title>
<path fill="none" stroke="black" d="M353.566,-401.85C407.133,-408.063 497.771,-417 576,-417 576,-417 576,-417 1392,-417 1473.88,-417 1564.31,-383.581 1617.53,-360.215"/>
<polygon fill="black" stroke="black" points="1619,-363.393 1626.71,-356.124 1616.15,-357 1619,-363.393"/>
</g>
<!-- Basic Block 5 -->
<g id="node5" class="node"><title>Basic Block 5</title>
<polygon fill="#ffffcc" stroke="black" points="486,-337 394,-337 394,-301 486,-301 486,-337"/>
<text text-anchor="middle" x="440" y="-315.9" font-family="Times Roman,serif" font-size="14.00">Basic Block 5</text>
</g>
<!-- Basic Block 4&#45;&gt;Basic Block 5 -->
<g id="edge14" class="edge"><title>Basic Block 4&#45;&gt;Basic Block 5</title>
<path fill="none" stroke="black" d="M353.517,-319C363.08,-319 373.25,-319 383.13,-319"/>
<polygon fill="black" stroke="black" points="383.285,-322.5 393.285,-319 383.284,-315.5 383.285,-322.5"/>
</g>
<!-- Basic Block 10 -->
<g id="node10" class="node"><title>Basic Block 10</title>
<polygon fill="#ffffcc" stroke="black" points="490,-191 390,-191 390,-155 490,-155 490,-191"/>
<text text-anchor="middle" x="440" y="-169.9" font-family="Times Roman,serif" font-size="14.00">Basic Block 10</text>
</g>
<!-- Basic Block 4&#45;&gt;Basic Block 10 -->
<g id="edge12" class="edge"><title>Basic Block 4&#45;&gt;Basic Block 10</title>
<path fill="none" stroke="black" d="M323.576,-300.804C346.971,-275.122 389.795,-228.112 416.475,-198.824"/>
<polygon fill="black" stroke="black" points="419.069,-201.175 423.215,-191.425 413.894,-196.461 419.069,-201.175"/>
</g>
<!-- Basic Block 7 -->
<g id="node7" class="node"><title>Basic Block 7</title>
<polygon fill="#ffffcc" stroke="black" points="758,-337 666,-337 666,-301 758,-301 758,-337"/>
<text text-anchor="middle" x="712" y="-315.9" font-family="Times Roman,serif" font-size="14.00">Basic Block 7</text>
</g>
<!-- Basic Block 5&#45;&gt;Basic Block 7 -->
<g id="edge16" class="edge"><title>Basic Block 5&#45;&gt;Basic Block 7</title>
<path fill="none" stroke="black" d="M486.758,-319C533.413,-319 605.152,-319 655.089,-319"/>
<polygon fill="black" stroke="black" points="655.397,-322.5 665.397,-319 655.397,-315.5 655.397,-322.5"/>
</g>
<!-- Basic Block 6 -->
<g id="node6" class="node"><title>Basic Block 6</title>
<polygon fill="#ffffcc" stroke="black" points="1030,-389 938,-389 938,-353 1030,-353 1030,-389"/>
<text text-anchor="middle" x="984" y="-367.9" font-family="Times Roman,serif" font-size="14.00">Basic Block 6</text>
</g>
<!-- Basic Block 6&#45;&gt;Basic Block 7 -->
<g id="edge18" class="edge"><title>Basic Block 6&#45;&gt;Basic Block 7</title>
<path fill="none" stroke="black" d="M937.368,-366.959C899.512,-363.146 844.912,-356.437 798,-346 788.376,-343.859 778.281,-341.137 768.529,-338.249"/>
<polygon fill="black" stroke="black" points="769.507,-334.888 758.921,-335.321 767.467,-341.584 769.507,-334.888"/>
</g>
<!-- Basic Block 8 -->
<g id="node8" class="node"><title>Basic Block 8</title>
<polygon fill="#ffffcc" stroke="black" points="894,-337 802,-337 802,-301 894,-301 894,-337"/>
<text text-anchor="middle" x="848" y="-315.9" font-family="Times Roman,serif" font-size="14.00">Basic Block 8</text>
</g>
<!-- Basic Block 7&#45;&gt;Basic Block 8 -->
<g id="edge22" class="edge"><title>Basic Block 7&#45;&gt;Basic Block 8</title>
<path fill="none" stroke="black" d="M758.803,-319C769.168,-319 780.262,-319 790.983,-319"/>
<polygon fill="black" stroke="black" points="791.11,-322.5 801.11,-319 791.11,-315.5 791.11,-322.5"/>
</g>
<!-- Basic Block 20 -->
<g id="node20" class="node"><title>Basic Block 20</title>
<polygon fill="#ffffcc" stroke="black" points="1170,-189 1070,-189 1070,-153 1170,-153 1170,-189"/>
<text text-anchor="middle" x="1120" y="-167.9" font-family="Times Roman,serif" font-size="14.00">Basic Block 20</text>
</g>
<!-- Basic Block 7&#45;&gt;Basic Block 20 -->
<g id="edge20" class="edge"><title>Basic Block 7&#45;&gt;Basic Block 20</title>
<path fill="none" stroke="black" d="M758.542,-303.117C771.241,-299.132 785.067,-295.111 798,-292 901.435,-267.12 938.753,-299.39 1034,-252 1060.12,-239.006 1083.76,-215.451 1099.61,-197.079"/>
<polygon fill="black" stroke="black" points="1102.59,-198.972 1106.33,-189.059 1097.23,-194.477 1102.59,-198.972"/>
</g>
<!-- Basic Block 8&#45;&gt;Basic Block 6 -->
<g id="edge24" class="edge"><title>Basic Block 8&#45;&gt;Basic Block 6</title>
<path fill="none" stroke="black" d="M894.803,-336.895C905.382,-340.94 916.72,-345.275 927.645,-349.453"/>
<polygon fill="black" stroke="black" points="926.52,-352.769 937.11,-353.072 929.02,-346.231 926.52,-352.769"/>
</g>
<!-- Basic Block 9 -->
<g id="node9" class="node"><title>Basic Block 9</title>
<polygon fill="#ffffcc" stroke="black" points="1030,-335 938,-335 938,-299 1030,-299 1030,-335"/>
<text text-anchor="middle" x="984" y="-313.9" font-family="Times Roman,serif" font-size="14.00">Basic Block 9</text>
</g>
<!-- Basic Block 8&#45;&gt;Basic Block 9 -->
<g id="edge26" class="edge"><title>Basic Block 8&#45;&gt;Basic Block 9</title>
<path fill="none" stroke="black" d="M894.803,-318.312C905.168,-318.159 916.262,-317.996 926.983,-317.838"/>
<polygon fill="black" stroke="black" points="927.163,-321.336 937.11,-317.69 927.06,-314.337 927.163,-321.336"/>
</g>
<!-- Basic Block 9&#45;&gt;Basic Block 20 -->
<g id="edge28" class="edge"><title>Basic Block 9&#45;&gt;Basic Block 20</title>
<path fill="none" stroke="black" d="M1015.92,-298.983C1022.22,-294.778 1028.55,-290.041 1034,-285 1062.35,-258.749 1088.06,-222.206 1103.83,-197.634"/>
<polygon fill="black" stroke="black" points="1106.8,-199.488 1109.18,-189.164 1100.88,-195.751 1106.8,-199.488"/>
</g>
<!-- Basic Block 11 -->
<g id="node11" class="node"><title>Basic Block 11</title>
<polygon fill="#ffffcc" stroke="black" points="626,-191 526,-191 526,-155 626,-155 626,-191"/>
<text text-anchor="middle" x="576" y="-169.9" font-family="Times Roman,serif" font-size="14.00">Basic Block 11</text>
</g>
<!-- Basic Block 10&#45;&gt;Basic Block 11 -->
<g id="edge32" class="edge"><title>Basic Block 10&#45;&gt;Basic Block 11</title>
<path fill="none" stroke="black" d="M490.255,-173C498.539,-173 507.201,-173 515.701,-173"/>
<polygon fill="black" stroke="black" points="515.952,-176.5 525.952,-173 515.952,-169.5 515.952,-176.5"/>
</g>
<!-- Basic Block 16 -->
<g id="node16" class="node"><title>Basic Block 16</title>
<polygon fill="#ffffcc" stroke="black" points="626,-114 526,-114 526,-78 626,-78 626,-114"/>
<text text-anchor="middle" x="576" y="-92.9" font-family="Times Roman,serif" font-size="14.00">Basic Block 16</text>
</g>
<!-- Basic Block 10&#45;&gt;Basic Block 16 -->
<g id="edge30" class="edge"><title>Basic Block 10&#45;&gt;Basic Block 16</title>
<path fill="none" stroke="black" d="M471.886,-154.947C490.762,-144.26 514.867,-130.612 535.129,-119.14"/>
<polygon fill="black" stroke="black" points="536.865,-122.179 543.843,-114.207 533.416,-116.088 536.865,-122.179"/>
</g>
<!-- Basic Block 13 -->
<g id="node13" class="node"><title>Basic Block 13</title>
<polygon fill="#ffffcc" stroke="black" points="762,-191 662,-191 662,-155 762,-155 762,-191"/>
<text text-anchor="middle" x="712" y="-169.9" font-family="Times Roman,serif" font-size="14.00">Basic Block 13</text>
</g>
<!-- Basic Block 11&#45;&gt;Basic Block 13 -->
<g id="edge34" class="edge"><title>Basic Block 11&#45;&gt;Basic Block 13</title>
<path fill="none" stroke="black" d="M626.255,-173C634.539,-173 643.201,-173 651.701,-173"/>
<polygon fill="black" stroke="black" points="651.952,-176.5 661.952,-173 651.952,-169.5 651.952,-176.5"/>
</g>
<!-- Basic Block 12 -->
<g id="node12" class="node"><title>Basic Block 12</title>
<polygon fill="#ffffcc" stroke="black" points="1034,-243 934,-243 934,-207 1034,-207 1034,-243"/>
<text text-anchor="middle" x="984" y="-221.9" font-family="Times Roman,serif" font-size="14.00">Basic Block 12</text>
</g>
<!-- Basic Block 12&#45;&gt;Basic Block 13 -->
<g id="edge36" class="edge"><title>Basic Block 12&#45;&gt;Basic Block 13</title>
<path fill="none" stroke="black" d="M933.857,-220.601C896.188,-216.733 843.48,-210.118 798,-200 789.454,-198.099 780.536,-195.739 771.817,-193.212"/>
<polygon fill="black" stroke="black" points="772.671,-189.814 762.087,-190.303 770.666,-196.521 772.671,-189.814"/>
</g>
<!-- Basic Block 14 -->
<g id="node14" class="node"><title>Basic Block 14</title>
<polygon fill="#ffffcc" stroke="black" points="898,-191 798,-191 798,-155 898,-155 898,-191"/>
<text text-anchor="middle" x="848" y="-169.9" font-family="Times Roman,serif" font-size="14.00">Basic Block 14</text>
</g>
<!-- Basic Block 13&#45;&gt;Basic Block 14 -->
<g id="edge40" class="edge"><title>Basic Block 13&#45;&gt;Basic Block 14</title>
<path fill="none" stroke="black" d="M762.255,-173C770.539,-173 779.201,-173 787.701,-173"/>
<polygon fill="black" stroke="black" points="787.952,-176.5 797.952,-173 787.952,-169.5 787.952,-176.5"/>
</g>
<!-- Basic Block 13&#45;&gt;Basic Block 20 -->
<g id="edge38" class="edge"><title>Basic Block 13&#45;&gt;Basic Block 20</title>
<path fill="none" stroke="black" d="M760.98,-154.942C772.932,-151.286 785.794,-147.963 798,-146 901.562,-129.345 930.318,-128.107 1034,-144 1043.09,-145.393 1052.53,-147.569 1061.69,-150.094"/>
<polygon fill="black" stroke="black" points="1060.91,-153.512 1071.49,-152.952 1062.87,-146.792 1060.91,-153.512"/>
</g>
<!-- Basic Block 14&#45;&gt;Basic Block 12 -->
<g id="edge42" class="edge"><title>Basic Block 14&#45;&gt;Basic Block 12</title>
<path fill="none" stroke="black" d="M895.185,-191.041C905.522,-194.994 916.571,-199.218 927.239,-203.297"/>
<polygon fill="black" stroke="black" points="926.308,-206.688 936.899,-206.991 928.808,-200.15 926.308,-206.688"/>
</g>
<!-- Basic Block 15 -->
<g id="node15" class="node"><title>Basic Block 15</title>
<polygon fill="#ffffcc" stroke="black" points="1034,-189 934,-189 934,-153 1034,-153 1034,-189"/>
<text text-anchor="middle" x="984" y="-167.9" font-family="Times Roman,serif" font-size="14.00">Basic Block 15</text>
</g>
<!-- Basic Block 14&#45;&gt;Basic Block 15 -->
<g id="edge44" class="edge"><title>Basic Block 14&#45;&gt;Basic Block 15</title>
<path fill="none" stroke="black" d="M898.255,-172.261C906.539,-172.139 915.201,-172.012 923.701,-171.887"/>
<polygon fill="black" stroke="black" points="924.004,-175.383 933.952,-171.736 923.901,-168.384 924.004,-175.383"/>
</g>
<!-- Basic Block 15&#45;&gt;Basic Block 20 -->
<g id="edge46" class="edge"><title>Basic Block 15&#45;&gt;Basic Block 20</title>
<path fill="none" stroke="black" d="M1034.25,-171C1042.54,-171 1051.2,-171 1059.7,-171"/>
<polygon fill="black" stroke="black" points="1059.95,-174.5 1069.95,-171 1059.95,-167.5 1059.95,-174.5"/>
</g>
<!-- Basic Block 18 -->
<g id="node18" class="node"><title>Basic Block 18</title>
<polygon fill="#ffffcc" stroke="black" points="898,-78 798,-78 798,-42 898,-42 898,-78"/>
<text text-anchor="middle" x="848" y="-56.9" font-family="Times Roman,serif" font-size="14.00">Basic Block 18</text>
</g>
<!-- Basic Block 16&#45;&gt;Basic Block 18 -->
<g id="edge48" class="edge"><title>Basic Block 16&#45;&gt;Basic Block 18</title>
<path fill="none" stroke="black" d="M626.206,-89.3551C671.778,-83.3235 739.073,-74.4168 787.576,-67.9973"/>
<polygon fill="black" stroke="black" points="788.172,-71.449 797.627,-66.6671 787.254,-64.5095 788.172,-71.449"/>
</g>
<!-- Basic Block 17 -->
<g id="node17" class="node"><title>Basic Block 17</title>
<polygon fill="#ffffcc" stroke="black" points="1170,-36 1070,-36 1070,-1.77636e-14 1170,-3.55271e-15 1170,-36"/>
<text text-anchor="middle" x="1120" y="-14.9" font-family="Times Roman,serif" font-size="14.00">Basic Block 17</text>
</g>
<!-- Basic Block 17&#45;&gt;Basic Block 18 -->
<g id="edge50" class="edge"><title>Basic Block 17&#45;&gt;Basic Block 18</title>
<path fill="none" stroke="black" d="M1069.86,-9.83304C1031.96,-5.35293 978.959,-2.73154 934,-14 916.046,-18.4999 897.745,-27.5441 882.666,-36.4313"/>
<polygon fill="black" stroke="black" points="880.428,-33.6972 873.725,-41.9024 884.082,-39.668 880.428,-33.6972"/>
</g>
<!-- Basic Block 19 -->
<g id="node19" class="node"><title>Basic Block 19</title>
<polygon fill="#ffffcc" stroke="black" points="1034,-59 934,-59 934,-23 1034,-23 1034,-59"/>
<text text-anchor="middle" x="984" y="-37.9" font-family="Times Roman,serif" font-size="14.00">Basic Block 19</text>
</g>
<!-- Basic Block 18&#45;&gt;Basic Block 19 -->
<g id="edge54" class="edge"><title>Basic Block 18&#45;&gt;Basic Block 19</title>
<path fill="none" stroke="black" d="M898.255,-52.9791C906.63,-51.809 915.392,-50.585 923.981,-49.385"/>
<polygon fill="black" stroke="black" points="924.532,-52.8421 933.952,-47.9921 923.563,-45.9094 924.532,-52.8421"/>
</g>
<!-- Basic Block 18&#45;&gt;Basic Block 20 -->
<g id="edge52" class="edge"><title>Basic Block 18&#45;&gt;Basic Block 20</title>
<path fill="none" stroke="black" d="M898.186,-68.9084C936.578,-76.8605 990.192,-90.462 1034,-111 1054.21,-120.476 1074.79,-134.641 1090.75,-146.828"/>
<polygon fill="black" stroke="black" points="1088.61,-149.597 1098.65,-152.986 1092.92,-144.077 1088.61,-149.597"/>
</g>
<!-- Basic Block 19&#45;&gt;Basic Block 17 -->
<g id="edge56" class="edge"><title>Basic Block 19&#45;&gt;Basic Block 17</title>
<path fill="none" stroke="black" d="M1034.25,-32.501C1042.63,-31.0846 1051.39,-29.6029 1059.98,-28.1503"/>
<polygon fill="black" stroke="black" points="1060.68,-31.5827 1069.95,-26.4641 1059.51,-24.6807 1060.68,-31.5827"/>
</g>
<!-- Basic Block 19&#45;&gt;Basic Block 20 -->
<g id="edge58" class="edge"><title>Basic Block 19&#45;&gt;Basic Block 20</title>
<path fill="none" stroke="black" d="M1015.37,-59.1606C1021.78,-63.3874 1028.29,-68.0964 1034,-73 1059.2,-94.6549 1083.77,-123.694 1100.15,-144.531"/>
<polygon fill="black" stroke="black" points="1097.55,-146.878 1106.44,-152.635 1103.08,-142.588 1097.55,-146.878"/>
</g>
<!-- Basic Block 21 -->
<g id="node21" class="node"><title>Basic Block 21</title>
<polygon fill="#ffffcc" stroke="black" points="1306,-235 1206,-235 1206,-199 1306,-199 1306,-235"/>
<text text-anchor="middle" x="1256" y="-213.9" font-family="Times Roman,serif" font-size="14.00">Basic Block 21</text>
</g>
<!-- Basic Block 20&#45;&gt;Basic Block 21 -->
<g id="edge62" class="edge"><title>Basic Block 20&#45;&gt;Basic Block 21</title>
<path fill="none" stroke="black" d="M1170.25,-187.998C1178.72,-190.862 1187.58,-193.859 1196.26,-196.794"/>
<polygon fill="black" stroke="black" points="1195.36,-200.183 1205.95,-200.072 1197.6,-193.552 1195.36,-200.183"/>
</g>
<!-- Basic Block 23 -->
<g id="node23" class="node"><title>Basic Block 23</title>
<polygon fill="#ffffcc" stroke="black" points="1578,-254 1478,-254 1478,-218 1578,-218 1578,-254"/>
<text text-anchor="middle" x="1528" y="-232.9" font-family="Times Roman,serif" font-size="14.00">Basic Block 23</text>
</g>
<!-- Basic Block 20&#45;&gt;Basic Block 23 -->
<g id="edge60" class="edge"><title>Basic Block 20&#45;&gt;Basic Block 23</title>
<path fill="none" stroke="black" d="M1170.31,-174.734C1207.83,-177.86 1260.29,-182.948 1306,-190 1361.15,-198.508 1423.31,-211.701 1467.79,-221.78"/>
<polygon fill="black" stroke="black" points="1467.04,-225.199 1477.57,-224.01 1468.6,-218.375 1467.04,-225.199"/>
</g>
<!-- Basic Block 22 -->
<g id="node22" class="node"><title>Basic Block 22</title>
<polygon fill="#ffffcc" stroke="black" points="1442,-277 1342,-277 1342,-241 1442,-241 1442,-277"/>
<text text-anchor="middle" x="1392" y="-255.9" font-family="Times Roman,serif" font-size="14.00">Basic Block 22</text>
</g>
<!-- Basic Block 21&#45;&gt;Basic Block 22 -->
<g id="edge66" class="edge"><title>Basic Block 21&#45;&gt;Basic Block 22</title>
<path fill="none" stroke="black" d="M1306.25,-232.52C1314.72,-235.135 1323.58,-237.871 1332.26,-240.551"/>
<polygon fill="black" stroke="black" points="1331.36,-243.937 1341.95,-243.544 1333.43,-237.249 1331.36,-243.937"/>
</g>
<!-- Basic Block 21&#45;&gt;Basic Block 23 -->
<g id="edge64" class="edge"><title>Basic Block 21&#45;&gt;Basic Block 23</title>
<path fill="none" stroke="black" d="M1306.21,-220.507C1351.78,-223.69 1419.07,-228.391 1467.58,-231.779"/>
<polygon fill="black" stroke="black" points="1467.41,-235.276 1477.63,-232.481 1467.89,-228.293 1467.41,-235.276"/>
</g>
<!-- Basic Block 22&#45;&gt;Basic Block 23 -->
<g id="edge68" class="edge"><title>Basic Block 22&#45;&gt;Basic Block 23</title>
<path fill="none" stroke="black" d="M1442.25,-250.501C1450.63,-249.085 1459.39,-247.603 1467.98,-246.15"/>
<polygon fill="black" stroke="black" points="1468.68,-249.583 1477.95,-244.464 1467.51,-242.681 1468.68,-249.583"/>
</g>
<!-- Basic Block 23&#45;&gt;Basic Block 24 -->
<g id="edge70" class="edge"><title>Basic Block 23&#45;&gt;Basic Block 24</title>
<path fill="none" stroke="black" d="M1552,-254.001C1574.1,-270.577 1607.07,-295.303 1631.52,-313.64"/>
<polygon fill="black" stroke="black" points="1629.68,-316.636 1639.78,-319.836 1633.88,-311.036 1629.68,-316.636"/>
</g>
<!-- Addr 1 -->
<g id="node25" class="node"><title>Addr 1</title>
<polygon fill="lightgrey" stroke="black" points="1805,-356 1751,-356 1751,-320 1805,-320 1805,-356"/>
<text text-anchor="middle" x="1778" y="-334.9" font-family="Times Roman,serif" font-size="14.00">Addr 1</text>
</g>
<!-- Basic Block 24&#45;&gt;Addr 1 -->
<g id="edge72" class="edge"><title>Basic Block 24&#45;&gt;Addr 1</title>
<path fill="none" stroke="black" d="M1714,-338C1722.75,-338 1731.72,-338 1740.08,-338"/>
<polygon fill="black" stroke="black" points="1740.27,-341.5 1750.27,-338 1740.27,-334.5 1740.27,-341.5"/>
</g>
</g>
</svg>
