<?xml version="1.0" encoding="UTF-8" standalone="no"?>
<!DOCTYPE svg PUBLIC "-//W3C//DTD SVG 1.1//EN"
 "http://www.w3.org/Graphics/SVG/1.1/DTD/svg11.dtd">
<!-- Generated by graphviz version 2.26.0 (20091210.2329)
 -->
<!-- Title: ggc_internal_alloc_stat Pages: 1 -->
<svg width="2438pt" height="226pt"
 viewBox="0.00 0.00 2438.00 226.00" xmlns="http://www.w3.org/2000/svg" xmlns:xlink="http://www.w3.org/1999/xlink">
<g id="graph1" class="graph" transform="scale(1 1) rotate(0) translate(4 222)">
<title>ggc_internal_alloc_stat</title>
<polygon fill="white" stroke="white" points="-4,5 -4,-222 2435,-222 2435,5 -4,5"/>
<!-- Basic Block 1 -->
<g id="node1" class="node"><title>Basic Block 1</title>
<polygon fill="#feb24c" stroke="black" points="93,-149 1,-149 1,-113 93,-113 93,-149"/>
<text text-anchor="middle" x="47" y="-127.9" font-family="Times Roman,serif" font-size="14.00">Basic Block 1</text>
</g>
<!-- Addr 1 -->
<g id="node24" class="node"><title>Addr 1</title>
<polygon fill="lightgrey" stroke="black" points="185,-149 131,-149 131,-113 185,-113 185,-149"/>
<text text-anchor="middle" x="158" y="-127.9" font-family="Times Roman,serif" font-size="14.00">Addr 1</text>
</g>
<!-- Basic Block 1&#45;&gt;Addr 1 -->
<g id="edge2" class="edge"><title>Basic Block 1&#45;&gt;Addr 1</title>
<path fill="none" stroke="black" d="M93.7523,-131C102.598,-131 111.748,-131 120.272,-131"/>
<polygon fill="black" stroke="black" points="120.298,-134.5 130.298,-131 120.298,-127.5 120.298,-134.5"/>
</g>
<!-- Basic Block 2 -->
<g id="node2" class="node"><title>Basic Block 2</title>
<polygon fill="#fd8d3c" stroke="black" points="315,-149 223,-149 223,-113 315,-113 315,-149"/>
<text text-anchor="middle" x="269" y="-127.9" font-family="Times Roman,serif" font-size="14.00">Basic Block 2</text>
</g>
<!-- Basic Block 3 -->
<g id="node3" class="node"><title>Basic Block 3</title>
<polygon fill="#fd8d3c" stroke="black" points="445,-126 353,-126 353,-90 445,-90 445,-126"/>
<text text-anchor="middle" x="399" y="-104.9" font-family="Times Roman,serif" font-size="14.00">Basic Block 3</text>
</g>
<!-- Basic Block 2&#45;&gt;Basic Block 3 -->
<g id="edge8" class="edge"><title>Basic Block 2&#45;&gt;Basic Block 3</title>
<path fill="none" stroke="black" d="M315.566,-122.761C324.247,-121.226 333.406,-119.605 342.351,-118.022"/>
<polygon fill="black" stroke="black" points="343.085,-121.447 352.322,-116.258 341.866,-114.554 343.085,-121.447"/>
</g>
<!-- Basic Block 4 -->
<g id="node4" class="node"><title>Basic Block 4</title>
<polygon fill="#ffffcc" stroke="black" points="578,-172 486,-172 486,-136 578,-136 578,-172"/>
<text text-anchor="middle" x="532" y="-150.9" font-family="Times Roman,serif" font-size="14.00">Basic Block 4</text>
</g>
<!-- Basic Block 2&#45;&gt;Basic Block 4 -->
<g id="edge6" class="edge"><title>Basic Block 2&#45;&gt;Basic Block 4</title>
<path fill="none" stroke="black" d="M315.716,-135.085C360.272,-138.982 427.466,-144.858 475.119,-149.026"/>
<polygon fill="black" stroke="black" points="475.01,-152.529 485.277,-149.914 475.62,-145.556 475.01,-152.529"/>
</g>
<!-- Basic Block 3&#45;&gt;Basic Block 4 -->
<g id="edge12" class="edge"><title>Basic Block 3&#45;&gt;Basic Block 4</title>
<path fill="none" stroke="black" d="M445.517,-124.089C455.281,-127.466 465.678,-131.062 475.754,-134.547"/>
<polygon fill="black" stroke="black" points="474.69,-137.882 485.285,-137.843 476.978,-131.266 474.69,-137.882"/>
</g>
<!-- Basic Block 13 -->
<g id="node13" class="node"><title>Basic Block 13</title>
<polygon fill="#800026" stroke="black" points="582,-118 482,-118 482,-82 582,-82 582,-118"/>
<text text-anchor="middle" x="532" y="-96.9" font-family="Times Roman,serif" font-size="14.00">Basic Block 13</text>
</g>
<!-- Basic Block 3&#45;&gt;Basic Block 13 -->
<g id="edge10" class="edge"><title>Basic Block 3&#45;&gt;Basic Block 13</title>
<path fill="none" stroke="black" d="M445.517,-105.202C453.916,-104.697 462.784,-104.163 471.513,-103.638"/>
<polygon fill="black" stroke="black" points="471.887,-107.122 481.659,-103.028 471.467,-100.135 471.887,-107.122"/>
</g>
<!-- Addr 2 -->
<g id="node25" class="node"><title>Addr 2</title>
<polygon fill="lightgrey" stroke="black" points="695,-172 641,-172 641,-136 695,-136 695,-172"/>
<text text-anchor="middle" x="668" y="-150.9" font-family="Times Roman,serif" font-size="14.00">Addr 2</text>
</g>
<!-- Basic Block 4&#45;&gt;Addr 2 -->
<g id="edge14" class="edge"><title>Basic Block 4&#45;&gt;Addr 2</title>
<path fill="none" stroke="black" d="M578.803,-154C595.569,-154 614.245,-154 630.158,-154"/>
<polygon fill="black" stroke="black" points="630.168,-157.5 640.168,-154 630.168,-150.5 630.168,-157.5"/>
</g>
<!-- Basic Block 5 -->
<g id="node5" class="node"><title>Basic Block 5</title>
<polygon fill="#ffffcc" stroke="black" points="850,-172 758,-172 758,-136 850,-136 850,-172"/>
<text text-anchor="middle" x="804" y="-150.9" font-family="Times Roman,serif" font-size="14.00">Basic Block 5</text>
</g>
<!-- Addr 3 -->
<g id="node26" class="node"><title>Addr 3</title>
<polygon fill="lightgrey" stroke="black" points="967,-172 913,-172 913,-136 967,-136 967,-172"/>
<text text-anchor="middle" x="940" y="-150.9" font-family="Times Roman,serif" font-size="14.00">Addr 3</text>
</g>
<!-- Basic Block 5&#45;&gt;Addr 3 -->
<g id="edge18" class="edge"><title>Basic Block 5&#45;&gt;Addr 3</title>
<path fill="none" stroke="black" d="M850.803,-154C867.569,-154 886.245,-154 902.158,-154"/>
<polygon fill="black" stroke="black" points="902.168,-157.5 912.168,-154 902.168,-150.5 902.168,-157.5"/>
</g>
<!-- Basic Block 6 -->
<g id="node6" class="node"><title>Basic Block 6</title>
<polygon fill="#ffffcc" stroke="black" points="1122,-172 1030,-172 1030,-136 1122,-136 1122,-172"/>
<text text-anchor="middle" x="1076" y="-150.9" font-family="Times Roman,serif" font-size="14.00">Basic Block 6</text>
</g>
<!-- Basic Block 8 -->
<g id="node8" class="node"><title>Basic Block 8</title>
<polygon fill="#ffffcc" stroke="black" points="1255,-172 1163,-172 1163,-136 1255,-136 1255,-172"/>
<text text-anchor="middle" x="1209" y="-150.9" font-family="Times Roman,serif" font-size="14.00">Basic Block 8</text>
</g>
<!-- Basic Block 6&#45;&gt;Basic Block 8 -->
<g id="edge22" class="edge"><title>Basic Block 6&#45;&gt;Basic Block 8</title>
<path fill="none" stroke="black" d="M1122.52,-154C1132.08,-154 1142.25,-154 1152.13,-154"/>
<polygon fill="black" stroke="black" points="1152.28,-157.5 1162.28,-154 1152.28,-150.5 1152.28,-157.5"/>
</g>
<!-- Basic Block 7 -->
<g id="node7" class="node"><title>Basic Block 7</title>
<polygon fill="#ffffcc" stroke="black" points="1385,-218 1293,-218 1293,-182 1385,-182 1385,-218"/>
<text text-anchor="middle" x="1339" y="-196.9" font-family="Times Roman,serif" font-size="14.00">Basic Block 7</text>
</g>
<!-- Addr 4 -->
<g id="node27" class="node"><title>Addr 4</title>
<polygon fill="lightgrey" stroke="black" points="1499,-199 1445,-199 1445,-163 1499,-163 1499,-199"/>
<text text-anchor="middle" x="1472" y="-177.9" font-family="Times Roman,serif" font-size="14.00">Addr 4</text>
</g>
<!-- Basic Block 7&#45;&gt;Addr 4 -->
<g id="edge24" class="edge"><title>Basic Block 7&#45;&gt;Addr 4</title>
<path fill="none" stroke="black" d="M1385.52,-193.355C1401.46,-191.077 1419.1,-188.557 1434.26,-186.391"/>
<polygon fill="black" stroke="black" points="1434.91,-189.834 1444.32,-184.955 1433.92,-182.904 1434.91,-189.834"/>
</g>
<!-- Basic Block 8&#45;&gt;Basic Block 7 -->
<g id="edge28" class="edge"><title>Basic Block 8&#45;&gt;Basic Block 7</title>
<path fill="none" stroke="black" d="M1255.57,-170.477C1264.34,-173.582 1273.6,-176.86 1282.64,-180.057"/>
<polygon fill="black" stroke="black" points="1281.73,-183.447 1292.32,-183.483 1284.06,-176.848 1281.73,-183.447"/>
</g>
<!-- Basic Block 9 -->
<g id="node9" class="node"><title>Basic Block 9</title>
<polygon fill="#ffffcc" stroke="black" points="1385,-126 1293,-126 1293,-90 1385,-90 1385,-126"/>
<text text-anchor="middle" x="1339" y="-104.9" font-family="Times Roman,serif" font-size="14.00">Basic Block 9</text>
</g>
<!-- Basic Block 8&#45;&gt;Basic Block 9 -->
<g id="edge30" class="edge"><title>Basic Block 8&#45;&gt;Basic Block 9</title>
<path fill="none" stroke="black" d="M1255.57,-137.523C1264.34,-134.418 1273.6,-131.14 1282.64,-127.943"/>
<polygon fill="black" stroke="black" points="1284.06,-131.152 1292.32,-124.517 1281.73,-124.553 1284.06,-131.152"/>
</g>
<!-- Basic Block 10 -->
<g id="node10" class="node"><title>Basic Block 10</title>
<polygon fill="#ffffcc" stroke="black" points="1522,-136 1422,-136 1422,-100 1522,-100 1522,-136"/>
<text text-anchor="middle" x="1472" y="-114.9" font-family="Times Roman,serif" font-size="14.00">Basic Block 10</text>
</g>
<!-- Basic Block 9&#45;&gt;Basic Block 10 -->
<g id="edge34" class="edge"><title>Basic Block 9&#45;&gt;Basic Block 10</title>
<path fill="none" stroke="black" d="M1385.52,-111.498C1393.92,-112.129 1402.78,-112.796 1411.51,-113.452"/>
<polygon fill="black" stroke="black" points="1411.42,-116.955 1421.66,-114.215 1411.95,-109.975 1411.42,-116.955"/>
</g>
<!-- Basic Block 11 -->
<g id="node11" class="node"><title>Basic Block 11</title>
<polygon fill="#ffffcc" stroke="black" points="1522,-82 1422,-82 1422,-46 1522,-46 1522,-82"/>
<text text-anchor="middle" x="1472" y="-60.9" font-family="Times Roman,serif" font-size="14.00">Basic Block 11</text>
</g>
<!-- Basic Block 9&#45;&gt;Basic Block 11 -->
<g id="edge32" class="edge"><title>Basic Block 9&#45;&gt;Basic Block 11</title>
<path fill="none" stroke="black" d="M1385.52,-92.6109C1394.1,-89.7719 1403.17,-86.7709 1412.08,-83.8225"/>
<polygon fill="black" stroke="black" points="1413.26,-87.1179 1421.66,-80.6541 1411.07,-80.4722 1413.26,-87.1179"/>
</g>
<!-- Basic Block 12 -->
<g id="node12" class="node"><title>Basic Block 12</title>
<polygon fill="#ffffcc" stroke="black" points="1658,-82 1558,-82 1558,-46 1658,-46 1658,-82"/>
<text text-anchor="middle" x="1608" y="-60.9" font-family="Times Roman,serif" font-size="14.00">Basic Block 12</text>
</g>
<!-- Basic Block 10&#45;&gt;Basic Block 12 -->
<g id="edge36" class="edge"><title>Basic Block 10&#45;&gt;Basic Block 12</title>
<path fill="none" stroke="black" d="M1517.66,-99.8686C1528.88,-95.4162 1541,-90.6019 1552.62,-85.9898"/>
<polygon fill="black" stroke="black" points="1554.22,-89.1189 1562.22,-82.1755 1551.64,-82.6129 1554.22,-89.1189"/>
</g>
<!-- Basic Block 11&#45;&gt;Basic Block 12 -->
<g id="edge38" class="edge"><title>Basic Block 11&#45;&gt;Basic Block 12</title>
<path fill="none" stroke="black" d="M1522.25,-64C1530.54,-64 1539.2,-64 1547.7,-64"/>
<polygon fill="black" stroke="black" points="1547.95,-67.5001 1557.95,-64 1547.95,-60.5001 1547.95,-67.5001"/>
</g>
<!-- Basic Block 19 -->
<g id="node19" class="node"><title>Basic Block 19</title>
<polygon fill="#e31a1c" stroke="black" points="1794,-59 1694,-59 1694,-23 1794,-23 1794,-59"/>
<text text-anchor="middle" x="1744" y="-37.9" font-family="Times Roman,serif" font-size="14.00">Basic Block 19</text>
</g>
<!-- Basic Block 12&#45;&gt;Basic Block 19 -->
<g id="edge40" class="edge"><title>Basic Block 12&#45;&gt;Basic Block 19</title>
<path fill="none" stroke="black" d="M1658.25,-55.501C1666.63,-54.0846 1675.39,-52.6029 1683.98,-51.1503"/>
<polygon fill="black" stroke="black" points="1684.68,-54.5827 1693.95,-49.4641 1683.51,-47.6807 1684.68,-54.5827"/>
</g>
<!-- Basic Block 14 -->
<g id="node14" class="node"><title>Basic Block 14</title>
<polygon fill="#ffffcc" stroke="black" points="718,-118 618,-118 618,-82 718,-82 718,-118"/>
<text text-anchor="middle" x="668" y="-96.9" font-family="Times Roman,serif" font-size="14.00">Basic Block 14</text>
</g>
<!-- Basic Block 13&#45;&gt;Basic Block 14 -->
<g id="edge44" class="edge"><title>Basic Block 13&#45;&gt;Basic Block 14</title>
<path fill="none" stroke="black" d="M582.255,-100C590.539,-100 599.201,-100 607.701,-100"/>
<polygon fill="black" stroke="black" points="607.952,-103.5 617.952,-100 607.952,-96.5001 607.952,-103.5"/>
</g>
<!-- Basic Block 18 -->
<g id="node18" class="node"><title>Basic Block 18</title>
<polygon fill="#ffeda0" stroke="black" points="1126,-36 1026,-36 1026,-1.77636e-14 1126,-3.55271e-15 1126,-36"/>
<text text-anchor="middle" x="1076" y="-14.9" font-family="Times Roman,serif" font-size="14.00">Basic Block 18</text>
</g>
<!-- Basic Block 13&#45;&gt;Basic Block 18 -->
<g id="edge42" class="edge"><title>Basic Block 13&#45;&gt;Basic Block 18</title>
<path fill="none" stroke="black" d="M582.215,-83.2328C593.893,-79.6132 606.325,-75.9823 618,-73 737.414,-42.4966 767.376,-31.3875 890,-19 931.67,-14.7905 978.859,-14.5896 1015.28,-15.4161"/>
<polygon fill="black" stroke="black" points="1015.65,-18.9267 1025.73,-15.688 1015.83,-11.9291 1015.65,-18.9267"/>
</g>
<!-- Basic Block 16 -->
<g id="node16" class="node"><title>Basic Block 16</title>
<polygon fill="#ffffcc" stroke="black" points="854,-118 754,-118 754,-82 854,-82 854,-118"/>
<text text-anchor="middle" x="804" y="-96.9" font-family="Times Roman,serif" font-size="14.00">Basic Block 16</text>
</g>
<!-- Basic Block 14&#45;&gt;Basic Block 16 -->
<g id="edge46" class="edge"><title>Basic Block 14&#45;&gt;Basic Block 16</title>
<path fill="none" stroke="black" d="M718.255,-100C726.539,-100 735.201,-100 743.701,-100"/>
<polygon fill="black" stroke="black" points="743.952,-103.5 753.952,-100 743.952,-96.5001 743.952,-103.5"/>
</g>
<!-- Basic Block 15 -->
<g id="node15" class="node"><title>Basic Block 15</title>
<polygon fill="#ffffcc" stroke="black" points="990,-118 890,-118 890,-82 990,-82 990,-118"/>
<text text-anchor="middle" x="940" y="-96.9" font-family="Times Roman,serif" font-size="14.00">Basic Block 15</text>
</g>
<!-- Basic Block 15&#45;&gt;Basic Block 16 -->
<g id="edge48" class="edge"><title>Basic Block 15&#45;&gt;Basic Block 16</title>
<path fill="none" stroke="black" d="M889.952,-106.536C881.674,-106.738 873.013,-106.797 864.511,-106.713"/>
<polygon fill="black" stroke="black" points="864.312,-103.21 854.255,-106.541 864.195,-110.209 864.312,-103.21"/>
</g>
<!-- Basic Block 16&#45;&gt;Basic Block 15 -->
<g id="edge50" class="edge"><title>Basic Block 16&#45;&gt;Basic Block 15</title>
<path fill="none" stroke="black" d="M854.255,-93.4586C862.539,-93.2597 871.201,-93.203 879.701,-93.2886"/>
<polygon fill="black" stroke="black" points="879.893,-96.7923 889.952,-93.4636 880.013,-89.7933 879.893,-96.7923"/>
</g>
<!-- Basic Block 17 -->
<g id="node17" class="node"><title>Basic Block 17</title>
<polygon fill="#ffffcc" stroke="black" points="990,-64 890,-64 890,-28 990,-28 990,-64"/>
<text text-anchor="middle" x="940" y="-42.9" font-family="Times Roman,serif" font-size="14.00">Basic Block 17</text>
</g>
<!-- Basic Block 16&#45;&gt;Basic Block 17 -->
<g id="edge52" class="edge"><title>Basic Block 16&#45;&gt;Basic Block 17</title>
<path fill="none" stroke="black" d="M849.664,-81.8686C860.878,-77.4162 873.003,-72.6019 884.618,-67.9898"/>
<polygon fill="black" stroke="black" points="886.222,-71.1189 894.225,-64.1755 883.639,-64.6129 886.222,-71.1189"/>
</g>
<!-- Basic Block 17&#45;&gt;Basic Block 18 -->
<g id="edge54" class="edge"><title>Basic Block 17&#45;&gt;Basic Block 18</title>
<path fill="none" stroke="black" d="M990.255,-35.6534C998.63,-33.929 1007.39,-32.1252 1015.98,-30.3568"/>
<polygon fill="black" stroke="black" points="1016.86,-33.7488 1025.95,-28.3041 1015.45,-26.8926 1016.86,-33.7488"/>
</g>
<!-- Basic Block 18&#45;&gt;Basic Block 19 -->
<g id="edge56" class="edge"><title>Basic Block 18&#45;&gt;Basic Block 19</title>
<path fill="none" stroke="black" d="M1126.42,-18C1179.36,-18 1265.03,-18 1339,-18 1339,-18 1339,-18 1472,-18 1545.17,-18 1629.01,-26.3655 1684.04,-33.0062"/>
<polygon fill="black" stroke="black" points="1683.62,-36.4807 1693.98,-34.2236 1684.48,-29.5328 1683.62,-36.4807"/>
</g>
<!-- Basic Block 20 -->
<g id="node20" class="node"><title>Basic Block 20</title>
<polygon fill="#ffffcc" stroke="black" points="1930,-82 1830,-82 1830,-46 1930,-46 1930,-82"/>
<text text-anchor="middle" x="1880" y="-60.9" font-family="Times Roman,serif" font-size="14.00">Basic Block 20</text>
</g>
<!-- Basic Block 19&#45;&gt;Basic Block 20 -->
<g id="edge60" class="edge"><title>Basic Block 19&#45;&gt;Basic Block 20</title>
<path fill="none" stroke="black" d="M1794.25,-49.499C1802.63,-50.9154 1811.39,-52.3971 1819.98,-53.8497"/>
<polygon fill="black" stroke="black" points="1819.51,-57.3193 1829.95,-55.5359 1820.68,-50.4173 1819.51,-57.3193"/>
</g>
<!-- Basic Block 23 -->
<g id="node23" class="node"><title>Basic Block 23</title>
<polygon fill="#fc4e2a" stroke="black" points="2338,-93 2238,-93 2238,-57 2338,-57 2338,-93"/>
<text text-anchor="middle" x="2288" y="-71.9" font-family="Times Roman,serif" font-size="14.00">Basic Block 23</text>
</g>
<!-- Basic Block 19&#45;&gt;Basic Block 23 -->
<g id="edge58" class="edge"><title>Basic Block 19&#45;&gt;Basic Block 23</title>
<path fill="none" stroke="black" d="M1794.01,-38.2806C1805.81,-37.7481 1818.34,-37.2709 1830,-37 1874.43,-35.9672 1885.62,-34.6511 1930,-37 2035,-42.5569 2156.59,-57.2199 2227.63,-66.6216"/>
<polygon fill="black" stroke="black" points="2227.36,-70.1167 2237.74,-67.9688 2228.29,-63.178 2227.36,-70.1167"/>
</g>
<!-- Basic Block 21 -->
<g id="node21" class="node"><title>Basic Block 21</title>
<polygon fill="#ffffcc" stroke="black" points="2066,-120 1966,-120 1966,-84 2066,-84 2066,-120"/>
<text text-anchor="middle" x="2016" y="-98.9" font-family="Times Roman,serif" font-size="14.00">Basic Block 21</text>
</g>
<!-- Basic Block 20&#45;&gt;Basic Block 21 -->
<g id="edge64" class="edge"><title>Basic Block 20&#45;&gt;Basic Block 21</title>
<path fill="none" stroke="black" d="M1930.25,-78.0418C1938.72,-80.4074 1947.58,-82.8833 1956.26,-85.3083"/>
<polygon fill="black" stroke="black" points="1955.38,-88.6957 1965.95,-88.0159 1957.26,-81.9539 1955.38,-88.6957"/>
</g>
<!-- Basic Block 20&#45;&gt;Basic Block 23 -->
<g id="edge62" class="edge"><title>Basic Block 20&#45;&gt;Basic Block 23</title>
<path fill="none" stroke="black" d="M1930.03,-65.3488C2005.23,-67.3762 2147.15,-71.2026 2227.87,-73.3789"/>
<polygon fill="black" stroke="black" points="2227.79,-76.8779 2237.88,-73.6488 2227.98,-69.8804 2227.79,-76.8779"/>
</g>
<!-- Basic Block 22 -->
<g id="node22" class="node"><title>Basic Block 22</title>
<polygon fill="#ffffcc" stroke="black" points="2202,-158 2102,-158 2102,-122 2202,-122 2202,-158"/>
<text text-anchor="middle" x="2152" y="-136.9" font-family="Times Roman,serif" font-size="14.00">Basic Block 22</text>
</g>
<!-- Basic Block 21&#45;&gt;Basic Block 22 -->
<g id="edge68" class="edge"><title>Basic Block 21&#45;&gt;Basic Block 22</title>
<path fill="none" stroke="black" d="M2066.25,-116.042C2074.72,-118.407 2083.58,-120.883 2092.26,-123.308"/>
<polygon fill="black" stroke="black" points="2091.38,-126.696 2101.95,-126.016 2093.26,-119.954 2091.38,-126.696"/>
</g>
<!-- Basic Block 21&#45;&gt;Basic Block 23 -->
<g id="edge66" class="edge"><title>Basic Block 21&#45;&gt;Basic Block 23</title>
<path fill="none" stroke="black" d="M2066.21,-97.0163C2111.78,-92.4926 2179.07,-85.8126 2227.58,-80.9979"/>
<polygon fill="black" stroke="black" points="2228.02,-84.4711 2237.63,-80.0003 2227.33,-77.5053 2228.02,-84.4711"/>
</g>
<!-- Basic Block 22&#45;&gt;Basic Block 23 -->
<g id="edge70" class="edge"><title>Basic Block 22&#45;&gt;Basic Block 23</title>
<path fill="none" stroke="black" d="M2189.88,-121.894C2205.8,-114.287 2224.47,-105.362 2241.23,-97.3512"/>
<polygon fill="black" stroke="black" points="2242.81,-100.479 2250.32,-93.009 2239.79,-94.1634 2242.81,-100.479"/>
</g>
<!-- Addr 5 -->
<g id="node28" class="node"><title>Addr 5</title>
<polygon fill="lightgrey" stroke="black" points="2429,-93 2375,-93 2375,-57 2429,-57 2429,-93"/>
<text text-anchor="middle" x="2402" y="-71.9" font-family="Times Roman,serif" font-size="14.00">Addr 5</text>
</g>
<!-- Basic Block 23&#45;&gt;Addr 5 -->
<g id="edge72" class="edge"><title>Basic Block 23&#45;&gt;Addr 5</title>
<path fill="none" stroke="black" d="M2338,-75C2346.75,-75 2355.72,-75 2364.08,-75"/>
<polygon fill="black" stroke="black" points="2364.27,-78.5001 2374.27,-75 2364.27,-71.5001 2364.27,-78.5001"/>
</g>
<!-- Addr 1&#45;&gt;Basic Block 2 -->
<g id="edge4" class="edge"><title>Addr 1&#45;&gt;Basic Block 2</title>
<path fill="none" stroke="black" d="M185.724,-131C193.748,-131 202.817,-131 211.942,-131"/>
<polygon fill="black" stroke="black" points="212.215,-134.5 222.215,-131 212.215,-127.5 212.215,-134.5"/>
</g>
<!-- Addr 2&#45;&gt;Basic Block 5 -->
<g id="edge16" class="edge"><title>Addr 2&#45;&gt;Basic Block 5</title>
<path fill="none" stroke="black" d="M695.522,-154C710.315,-154 729.127,-154 746.915,-154"/>
<polygon fill="black" stroke="black" points="747.232,-157.5 757.232,-154 747.232,-150.5 747.232,-157.5"/>
</g>
<!-- Addr 3&#45;&gt;Basic Block 6 -->
<g id="edge20" class="edge"><title>Addr 3&#45;&gt;Basic Block 6</title>
<path fill="none" stroke="black" d="M967.522,-154C982.315,-154 1001.13,-154 1018.91,-154"/>
<polygon fill="black" stroke="black" points="1019.23,-157.5 1029.23,-154 1019.23,-150.5 1019.23,-157.5"/>
</g>
<!-- Addr 4&#45;&gt;Basic Block 8 -->
<g id="edge26" class="edge"><title>Addr 4&#45;&gt;Basic Block 8</title>
<path fill="none" stroke="black" d="M1444.29,-178.155C1402.07,-173.821 1320.75,-165.473 1265.68,-159.819"/>
<polygon fill="black" stroke="black" points="1266.02,-156.336 1255.72,-158.796 1265.31,-163.299 1266.02,-156.336"/>
</g>
</g>
</svg>
