<?xml version="1.0" encoding="UTF-8" standalone="no"?>
<!DOCTYPE svg PUBLIC "-//W3C//DTD SVG 1.1//EN"
 "http://www.w3.org/Graphics/SVG/1.1/DTD/svg11.dtd">
<!-- Generated by graphviz version 2.26.0 (20091210.2329)
 -->
<!-- Title: ht_lookup_with_hash Pages: 1 -->
<svg width="3878pt" height="514pt"
 viewBox="0.00 0.00 3878.00 514.00" xmlns="http://www.w3.org/2000/svg" xmlns:xlink="http://www.w3.org/1999/xlink">
<g id="graph1" class="graph" transform="scale(1 1) rotate(0) translate(4 510)">
<title>ht_lookup_with_hash</title>
<polygon fill="white" stroke="white" points="-4,5 -4,-510 3875,-510 3875,5 -4,5"/>
<!-- Basic Block 1 -->
<g id="node1" class="node"><title>Basic Block 1</title>
<polygon fill="#800026" stroke="black" points="93,-356 1,-356 1,-320 93,-320 93,-356"/>
<text text-anchor="middle" x="47" y="-334.9" font-family="Times Roman,serif" font-size="14.00">Basic Block 1</text>
</g>
<!-- Basic Block 2 -->
<g id="node2" class="node"><title>Basic Block 2</title>
<polygon fill="#ffffcc" stroke="black" points="223,-305 131,-305 131,-269 223,-269 223,-305"/>
<text text-anchor="middle" x="177" y="-283.9" font-family="Times Roman,serif" font-size="14.00">Basic Block 2</text>
</g>
<!-- Basic Block 1&#45;&gt;Basic Block 2 -->
<g id="edge4" class="edge"><title>Basic Block 1&#45;&gt;Basic Block 2</title>
<path fill="none" stroke="black" d="M93.1992,-319.876C102.395,-316.268 112.139,-312.445 121.606,-308.731"/>
<polygon fill="black" stroke="black" points="122.919,-311.976 130.95,-305.066 120.362,-305.46 122.919,-311.976"/>
</g>
<!-- Basic Block 24 -->
<g id="node24" class="node"><title>Basic Block 24</title>
<polygon fill="#ffffcc" stroke="black" points="1374,-381 1274,-381 1274,-345 1374,-345 1374,-381"/>
<text text-anchor="middle" x="1324" y="-359.9" font-family="Times Roman,serif" font-size="14.00">Basic Block 24</text>
</g>
<!-- Basic Block 1&#45;&gt;Basic Block 24 -->
<g id="edge2" class="edge"><title>Basic Block 1&#45;&gt;Basic Block 24</title>
<path fill="none" stroke="black" d="M93.8804,-353.18C145.513,-368.529 231.276,-390 307,-390 307,-390 307,-390 1052,-390 1125.15,-390 1208.83,-380.21 1263.84,-372.42"/>
<polygon fill="black" stroke="black" points="1264.37,-375.88 1273.77,-370.991 1263.37,-368.951 1264.37,-375.88"/>
</g>
<!-- Basic Block 3 -->
<g id="node3" class="node"><title>Basic Block 3</title>
<polygon fill="#ffffcc" stroke="black" points="483,-305 391,-305 391,-269 483,-269 483,-305"/>
<text text-anchor="middle" x="437" y="-283.9" font-family="Times Roman,serif" font-size="14.00">Basic Block 3</text>
</g>
<!-- Basic Block 2&#45;&gt;Basic Block 3 -->
<g id="edge8" class="edge"><title>Basic Block 2&#45;&gt;Basic Block 3</title>
<path fill="none" stroke="black" d="M223.783,-287C267.55,-287 333.027,-287 379.865,-287"/>
<polygon fill="black" stroke="black" points="380.155,-290.5 390.155,-287 380.155,-283.5 380.155,-290.5"/>
</g>
<!-- Basic Block 4 -->
<g id="node4" class="node"><title>Basic Block 4</title>
<polygon fill="#feb24c" stroke="black" points="353,-259 261,-259 261,-223 353,-223 353,-259"/>
<text text-anchor="middle" x="307" y="-237.9" font-family="Times Roman,serif" font-size="14.00">Basic Block 4</text>
</g>
<!-- Basic Block 2&#45;&gt;Basic Block 4 -->
<g id="edge6" class="edge"><title>Basic Block 2&#45;&gt;Basic Block 4</title>
<path fill="none" stroke="black" d="M223.566,-270.523C232.34,-267.418 241.603,-264.14 250.64,-260.943"/>
<polygon fill="black" stroke="black" points="252.063,-264.152 260.322,-257.517 249.728,-257.553 252.063,-264.152"/>
</g>
<!-- Basic Block 9 -->
<g id="node9" class="node"><title>Basic Block 9</title>
<polygon fill="#ffffcc" stroke="black" points="965,-240 873,-240 873,-204 965,-204 965,-240"/>
<text text-anchor="middle" x="919" y="-218.9" font-family="Times Roman,serif" font-size="14.00">Basic Block 9</text>
</g>
<!-- Basic Block 3&#45;&gt;Basic Block 9 -->
<g id="edge10" class="edge"><title>Basic Block 3&#45;&gt;Basic Block 9</title>
<path fill="none" stroke="black" d="M483.768,-287.724C559.008,-287.895 711.139,-284.134 836,-255 847.68,-252.275 859.878,-248.184 871.216,-243.802"/>
<polygon fill="black" stroke="black" points="872.528,-247.046 880.507,-240.075 869.923,-240.549 872.528,-247.046"/>
</g>
<!-- Basic Block 5 -->
<g id="node5" class="node"><title>Basic Block 5</title>
<polygon fill="#ffffcc" stroke="black" points="483,-213 391,-213 391,-177 483,-177 483,-213"/>
<text text-anchor="middle" x="437" y="-191.9" font-family="Times Roman,serif" font-size="14.00">Basic Block 5</text>
</g>
<!-- Basic Block 4&#45;&gt;Basic Block 5 -->
<g id="edge14" class="edge"><title>Basic Block 4&#45;&gt;Basic Block 5</title>
<path fill="none" stroke="black" d="M353.566,-224.523C362.34,-221.418 371.603,-218.14 380.64,-214.943"/>
<polygon fill="black" stroke="black" points="382.063,-218.152 390.322,-211.517 379.728,-211.553 382.063,-218.152"/>
</g>
<!-- Basic Block 4&#45;&gt;Basic Block 9 -->
<g id="edge12" class="edge"><title>Basic Block 4&#45;&gt;Basic Block 9</title>
<path fill="none" stroke="black" d="M353.97,-241C406.041,-241 492.521,-241 567,-241 567,-241 567,-241 678,-241 741.281,-241 813.619,-234.409 862.395,-228.991"/>
<polygon fill="black" stroke="black" points="862.891,-232.458 872.434,-227.856 862.104,-225.502 862.891,-232.458"/>
</g>
<!-- Basic Block 6 -->
<g id="node6" class="node"><title>Basic Block 6</title>
<polygon fill="#ffffcc" stroke="black" points="613,-175 521,-175 521,-139 613,-139 613,-175"/>
<text text-anchor="middle" x="567" y="-153.9" font-family="Times Roman,serif" font-size="14.00">Basic Block 6</text>
</g>
<!-- Basic Block 5&#45;&gt;Basic Block 6 -->
<g id="edge18" class="edge"><title>Basic Block 5&#45;&gt;Basic Block 6</title>
<path fill="none" stroke="black" d="M483.566,-181.388C492.34,-178.824 501.603,-176.116 510.64,-173.475"/>
<polygon fill="black" stroke="black" points="511.706,-176.809 520.322,-170.644 509.742,-170.091 511.706,-176.809"/>
</g>
<!-- Basic Block 5&#45;&gt;Basic Block 9 -->
<g id="edge16" class="edge"><title>Basic Block 5&#45;&gt;Basic Block 9</title>
<path fill="none" stroke="black" d="M483.654,-197.613C572.555,-202.593 765.928,-213.425 862.194,-218.818"/>
<polygon fill="black" stroke="black" points="862.14,-222.32 872.32,-219.385 862.532,-215.331 862.14,-222.32"/>
</g>
<!-- Addr 1 -->
<g id="node46" class="node"><title>Addr 1</title>
<polygon fill="lightgrey" stroke="black" points="705,-175 651,-175 651,-139 705,-139 705,-175"/>
<text text-anchor="middle" x="678" y="-153.9" font-family="Times Roman,serif" font-size="14.00">Addr 1</text>
</g>
<!-- Basic Block 6&#45;&gt;Addr 1 -->
<g id="edge20" class="edge"><title>Basic Block 6&#45;&gt;Addr 1</title>
<path fill="none" stroke="black" d="M613.752,-157C622.598,-157 631.748,-157 640.272,-157"/>
<polygon fill="black" stroke="black" points="640.298,-160.5 650.298,-157 640.298,-153.5 640.298,-160.5"/>
</g>
<!-- Basic Block 7 -->
<g id="node7" class="node"><title>Basic Block 7</title>
<polygon fill="#ffffcc" stroke="black" points="835,-175 743,-175 743,-139 835,-139 835,-175"/>
<text text-anchor="middle" x="789" y="-153.9" font-family="Times Roman,serif" font-size="14.00">Basic Block 7</text>
</g>
<!-- Basic Block 8 -->
<g id="node8" class="node"><title>Basic Block 8</title>
<polygon fill="#ffffcc" stroke="black" points="1098,-102 1006,-102 1006,-66 1098,-66 1098,-102"/>
<text text-anchor="middle" x="1052" y="-80.9" font-family="Times Roman,serif" font-size="14.00">Basic Block 8</text>
</g>
<!-- Basic Block 7&#45;&gt;Basic Block 8 -->
<g id="edge26" class="edge"><title>Basic Block 7&#45;&gt;Basic Block 8</title>
<path fill="none" stroke="black" d="M835.716,-144.033C880.365,-131.64 947.748,-112.937 995.419,-99.705"/>
<polygon fill="black" stroke="black" points="996.577,-103.016 1005.28,-96.9688 994.705,-96.2709 996.577,-103.016"/>
</g>
<!-- Basic Block 7&#45;&gt;Basic Block 9 -->
<g id="edge24" class="edge"><title>Basic Block 7&#45;&gt;Basic Block 9</title>
<path fill="none" stroke="black" d="M825.212,-175.106C840.285,-182.642 857.946,-191.473 873.852,-199.426"/>
<polygon fill="black" stroke="black" points="872.472,-202.649 882.982,-203.991 875.603,-196.388 872.472,-202.649"/>
</g>
<!-- Basic Block 44 -->
<g id="node44" class="node"><title>Basic Block 44</title>
<polygon fill="#ffffcc" stroke="black" points="3778,-281 3678,-281 3678,-245 3778,-245 3778,-281"/>
<text text-anchor="middle" x="3728" y="-259.9" font-family="Times Roman,serif" font-size="14.00">Basic Block 44</text>
</g>
<!-- Basic Block 8&#45;&gt;Basic Block 44 -->
<g id="edge28" class="edge"><title>Basic Block 8&#45;&gt;Basic Block 44</title>
<path fill="none" stroke="black" d="M1086.58,-65.9799C1137.25,-41.2979 1235.29,-0 1324,-0 1324,-0 1324,-0 3456,-0 3590.61,-0 3684,-168.52 3715.91,-235.768"/>
<polygon fill="black" stroke="black" points="3712.78,-237.333 3720.17,-244.923 3719.13,-234.38 3712.78,-237.333"/>
</g>
<!-- Basic Block 14 -->
<g id="node14" class="node"><title>Basic Block 14</title>
<polygon fill="#fed976" stroke="black" points="1102,-240 1002,-240 1002,-204 1102,-204 1102,-240"/>
<text text-anchor="middle" x="1052" y="-218.9" font-family="Times Roman,serif" font-size="14.00">Basic Block 14</text>
</g>
<!-- Basic Block 9&#45;&gt;Basic Block 14 -->
<g id="edge30" class="edge"><title>Basic Block 9&#45;&gt;Basic Block 14</title>
<path fill="none" stroke="black" d="M965.517,-222C973.916,-222 982.784,-222 991.513,-222"/>
<polygon fill="black" stroke="black" points="991.659,-225.5 1001.66,-222 991.659,-218.5 991.659,-225.5"/>
</g>
<!-- Basic Block 10 -->
<g id="node10" class="node"><title>Basic Block 10</title>
<polygon fill="#ffffcc" stroke="black" points="1510,-123 1410,-123 1410,-87 1510,-87 1510,-123"/>
<text text-anchor="middle" x="1460" y="-101.9" font-family="Times Roman,serif" font-size="14.00">Basic Block 10</text>
</g>
<!-- Basic Block 10&#45;&gt;Basic Block 14 -->
<g id="edge32" class="edge"><title>Basic Block 10&#45;&gt;Basic Block 14</title>
<path fill="none" stroke="black" d="M1409.82,-95.7969C1372.13,-90.4509 1319.42,-86.3126 1274,-95 1210.12,-107.218 1193.75,-115.513 1138,-149 1115.78,-162.345 1093.55,-181.402 1077.26,-196.699"/>
<polygon fill="black" stroke="black" points="1074.57,-194.424 1069.77,-203.864 1079.41,-199.483 1074.57,-194.424"/>
</g>
<!-- Basic Block 11 -->
<g id="node11" class="node"><title>Basic Block 11</title>
<polygon fill="#ffffcc" stroke="black" points="1510,-232 1410,-232 1410,-196 1510,-196 1510,-232"/>
<text text-anchor="middle" x="1460" y="-210.9" font-family="Times Roman,serif" font-size="14.00">Basic Block 11</text>
</g>
<!-- Basic Block 11&#45;&gt;Basic Block 14 -->
<g id="edge34" class="edge"><title>Basic Block 11&#45;&gt;Basic Block 14</title>
<path fill="none" stroke="black" d="M1409.88,-214.983C1334.63,-216.458 1192.7,-219.241 1112.03,-220.823"/>
<polygon fill="black" stroke="black" points="1111.96,-217.324 1102.03,-221.019 1112.1,-224.322 1111.96,-217.324"/>
</g>
<!-- Basic Block 12 -->
<g id="node12" class="node"><title>Basic Block 12</title>
<polygon fill="#ffffcc" stroke="black" points="1646,-251 1546,-251 1546,-215 1646,-215 1646,-251"/>
<text text-anchor="middle" x="1596" y="-229.9" font-family="Times Roman,serif" font-size="14.00">Basic Block 12</text>
</g>
<!-- Basic Block 12&#45;&gt;Basic Block 14 -->
<g id="edge36" class="edge"><title>Basic Block 12&#45;&gt;Basic Block 14</title>
<path fill="none" stroke="black" d="M1545.58,-238.479C1533.91,-239.528 1521.53,-240.465 1510,-241 1344.81,-248.667 1302.86,-245.937 1138,-233 1129.7,-232.348 1120.96,-231.464 1112.37,-230.479"/>
<polygon fill="black" stroke="black" points="1112.74,-226.998 1102.39,-229.283 1111.9,-233.948 1112.74,-226.998"/>
</g>
<!-- Basic Block 13 -->
<g id="node13" class="node"><title>Basic Block 13</title>
<polygon fill="#ffffcc" stroke="black" points="2054,-308 1954,-308 1954,-272 2054,-272 2054,-308"/>
<text text-anchor="middle" x="2004" y="-286.9" font-family="Times Roman,serif" font-size="14.00">Basic Block 13</text>
</g>
<!-- Basic Block 13&#45;&gt;Basic Block 14 -->
<g id="edge38" class="edge"><title>Basic Block 13&#45;&gt;Basic Block 14</title>
<path fill="none" stroke="black" d="M1953.88,-292.357C1899.32,-294.717 1809.48,-298 1732,-298 1324,-298 1324,-298 1324,-298 1243.06,-298 1153.39,-266.394 1099.92,-243.946"/>
<polygon fill="black" stroke="black" points="1101.26,-240.713 1090.69,-240.011 1098.52,-247.153 1101.26,-240.713"/>
</g>
<!-- Basic Block 15 -->
<g id="node15" class="node"><title>Basic Block 15</title>
<polygon fill="#ffffcc" stroke="black" points="1238,-194 1138,-194 1138,-158 1238,-158 1238,-194"/>
<text text-anchor="middle" x="1188" y="-172.9" font-family="Times Roman,serif" font-size="14.00">Basic Block 15</text>
</g>
<!-- Basic Block 14&#45;&gt;Basic Block 15 -->
<g id="edge42" class="edge"><title>Basic Block 14&#45;&gt;Basic Block 15</title>
<path fill="none" stroke="black" d="M1102.25,-205.002C1110.72,-202.138 1119.58,-199.141 1128.26,-196.206"/>
<polygon fill="black" stroke="black" points="1129.6,-199.448 1137.95,-192.928 1127.36,-192.817 1129.6,-199.448"/>
</g>
<!-- Basic Block 23 -->
<g id="node23" class="node"><title>Basic Block 23</title>
<polygon fill="#ffffcc" stroke="black" points="1238,-362 1138,-362 1138,-326 1238,-326 1238,-362"/>
<text text-anchor="middle" x="1188" y="-340.9" font-family="Times Roman,serif" font-size="14.00">Basic Block 23</text>
</g>
<!-- Basic Block 14&#45;&gt;Basic Block 23 -->
<g id="edge40" class="edge"><title>Basic Block 14&#45;&gt;Basic Block 23</title>
<path fill="none" stroke="black" d="M1067.03,-240.139C1083.37,-259.246 1110.8,-289.612 1138,-312 1141.45,-314.84 1145.17,-317.636 1148.96,-320.321"/>
<polygon fill="black" stroke="black" points="1147.07,-323.271 1157.31,-325.998 1151.01,-317.482 1147.07,-323.271"/>
</g>
<!-- Basic Block 16 -->
<g id="node16" class="node"><title>Basic Block 16</title>
<polygon fill="#ffffcc" stroke="black" points="1374,-140 1274,-140 1274,-104 1374,-104 1374,-140"/>
<text text-anchor="middle" x="1324" y="-118.9" font-family="Times Roman,serif" font-size="14.00">Basic Block 16</text>
</g>
<!-- Basic Block 15&#45;&gt;Basic Block 16 -->
<g id="edge46" class="edge"><title>Basic Block 15&#45;&gt;Basic Block 16</title>
<path fill="none" stroke="black" d="M1233.66,-157.869C1244.88,-153.416 1257,-148.602 1268.62,-143.99"/>
<polygon fill="black" stroke="black" points="1270.22,-147.119 1278.22,-140.176 1267.64,-140.613 1270.22,-147.119"/>
</g>
<!-- Basic Block 18 -->
<g id="node18" class="node"><title>Basic Block 18</title>
<polygon fill="#feb24c" stroke="black" points="1374,-194 1274,-194 1274,-158 1374,-158 1374,-194"/>
<text text-anchor="middle" x="1324" y="-172.9" font-family="Times Roman,serif" font-size="14.00">Basic Block 18</text>
</g>
<!-- Basic Block 15&#45;&gt;Basic Block 18 -->
<g id="edge44" class="edge"><title>Basic Block 15&#45;&gt;Basic Block 18</title>
<path fill="none" stroke="black" d="M1238.25,-176C1246.54,-176 1255.2,-176 1263.7,-176"/>
<polygon fill="black" stroke="black" points="1263.95,-179.5 1273.95,-176 1263.95,-172.5 1263.95,-179.5"/>
</g>
<!-- Basic Block 16&#45;&gt;Basic Block 10 -->
<g id="edge48" class="edge"><title>Basic Block 16&#45;&gt;Basic Block 10</title>
<path fill="none" stroke="black" d="M1374.25,-115.718C1382.63,-114.671 1391.39,-113.576 1399.98,-112.502"/>
<polygon fill="black" stroke="black" points="1400.46,-115.969 1409.95,-111.256 1399.59,-109.024 1400.46,-115.969"/>
</g>
<!-- Basic Block 17 -->
<g id="node17" class="node"><title>Basic Block 17</title>
<polygon fill="#ffffcc" stroke="black" points="1510,-66 1410,-66 1410,-30 1510,-30 1510,-66"/>
<text text-anchor="middle" x="1460" y="-44.9" font-family="Times Roman,serif" font-size="14.00">Basic Block 17</text>
</g>
<!-- Basic Block 16&#45;&gt;Basic Block 17 -->
<g id="edge50" class="edge"><title>Basic Block 16&#45;&gt;Basic Block 17</title>
<path fill="none" stroke="black" d="M1357.27,-103.898C1375.46,-93.9981 1398.19,-81.6315 1417.64,-71.0489"/>
<polygon fill="black" stroke="black" points="1419.49,-74.0259 1426.6,-66.172 1416.15,-67.8772 1419.49,-74.0259"/>
</g>
<!-- Basic Block 17&#45;&gt;Basic Block 14 -->
<g id="edge52" class="edge"><title>Basic Block 17&#45;&gt;Basic Block 14</title>
<path fill="none" stroke="black" d="M1409.78,-44.3444C1342.64,-41.8962 1222.34,-46.258 1138,-99 1101.84,-121.615 1076.76,-165.602 1063.37,-194.381"/>
<polygon fill="black" stroke="black" points="1060.02,-193.309 1059.13,-203.866 1066.41,-196.169 1060.02,-193.309"/>
</g>
<!-- Basic Block 18&#45;&gt;Basic Block 11 -->
<g id="edge54" class="edge"><title>Basic Block 18&#45;&gt;Basic Block 11</title>
<path fill="none" stroke="black" d="M1374.25,-190.042C1382.72,-192.407 1391.58,-194.883 1400.26,-197.308"/>
<polygon fill="black" stroke="black" points="1399.38,-200.696 1409.95,-200.016 1401.26,-193.954 1399.38,-200.696"/>
</g>
<!-- Basic Block 19 -->
<g id="node19" class="node"><title>Basic Block 19</title>
<polygon fill="#ffffcc" stroke="black" points="1510,-178 1410,-178 1410,-142 1510,-142 1510,-178"/>
<text text-anchor="middle" x="1460" y="-156.9" font-family="Times Roman,serif" font-size="14.00">Basic Block 19</text>
</g>
<!-- Basic Block 18&#45;&gt;Basic Block 19 -->
<g id="edge56" class="edge"><title>Basic Block 18&#45;&gt;Basic Block 19</title>
<path fill="none" stroke="black" d="M1374.25,-170.088C1382.63,-169.102 1391.39,-168.072 1399.98,-167.061"/>
<polygon fill="black" stroke="black" points="1400.43,-170.533 1409.95,-165.888 1399.61,-163.581 1400.43,-170.533"/>
</g>
<!-- Basic Block 19&#45;&gt;Basic Block 12 -->
<g id="edge58" class="edge"><title>Basic Block 19&#45;&gt;Basic Block 12</title>
<path fill="none" stroke="black" d="M1493.62,-178.045C1511.68,-187.74 1534.14,-199.793 1553.41,-210.139"/>
<polygon fill="black" stroke="black" points="1551.83,-213.264 1562.3,-214.91 1555.14,-207.096 1551.83,-213.264"/>
</g>
<!-- Basic Block 20 -->
<g id="node20" class="node"><title>Basic Block 20</title>
<polygon fill="#ffffcc" stroke="black" points="1646,-187 1546,-187 1546,-151 1646,-151 1646,-187"/>
<text text-anchor="middle" x="1596" y="-165.9" font-family="Times Roman,serif" font-size="14.00">Basic Block 20</text>
</g>
<!-- Basic Block 19&#45;&gt;Basic Block 20 -->
<g id="edge60" class="edge"><title>Basic Block 19&#45;&gt;Basic Block 20</title>
<path fill="none" stroke="black" d="M1510.25,-163.326C1518.54,-163.874 1527.2,-164.447 1535.7,-165.01"/>
<polygon fill="black" stroke="black" points="1535.74,-168.52 1545.95,-165.688 1536.2,-161.535 1535.74,-168.52"/>
</g>
<!-- Addr 2 -->
<g id="node47" class="node"><title>Addr 2</title>
<polygon fill="lightgrey" stroke="black" points="1759,-224 1705,-224 1705,-188 1759,-188 1759,-224"/>
<text text-anchor="middle" x="1732" y="-202.9" font-family="Times Roman,serif" font-size="14.00">Addr 2</text>
</g>
<!-- Basic Block 20&#45;&gt;Addr 2 -->
<g id="edge62" class="edge"><title>Basic Block 20&#45;&gt;Addr 2</title>
<path fill="none" stroke="black" d="M1646.25,-182.672C1662.24,-187.021 1679.63,-191.752 1694.55,-195.81"/>
<polygon fill="black" stroke="black" points="1693.86,-199.251 1704.43,-198.499 1695.7,-192.497 1693.86,-199.251"/>
</g>
<!-- Basic Block 21 -->
<g id="node21" class="node"><title>Basic Block 21</title>
<polygon fill="#ffffcc" stroke="black" points="1918,-262 1818,-262 1818,-226 1918,-226 1918,-262"/>
<text text-anchor="middle" x="1868" y="-240.9" font-family="Times Roman,serif" font-size="14.00">Basic Block 21</text>
</g>
<!-- Basic Block 21&#45;&gt;Basic Block 13 -->
<g id="edge66" class="edge"><title>Basic Block 21&#45;&gt;Basic Block 13</title>
<path fill="none" stroke="black" d="M1918.25,-260.998C1926.72,-263.862 1935.58,-266.859 1944.26,-269.794"/>
<polygon fill="black" stroke="black" points="1943.36,-273.183 1953.95,-273.072 1945.6,-266.552 1943.36,-273.183"/>
</g>
<!-- Basic Block 22 -->
<g id="node22" class="node"><title>Basic Block 22</title>
<polygon fill="#ffffcc" stroke="black" points="2826,-262 2726,-262 2726,-226 2826,-226 2826,-262"/>
<text text-anchor="middle" x="2776" y="-240.9" font-family="Times Roman,serif" font-size="14.00">Basic Block 22</text>
</g>
<!-- Basic Block 21&#45;&gt;Basic Block 22 -->
<g id="edge68" class="edge"><title>Basic Block 21&#45;&gt;Basic Block 22</title>
<path fill="none" stroke="black" d="M1918.13,-244C1972.71,-244 2062.56,-244 2140,-244 2140,-244 2140,-244 2548,-244 2604.86,-244 2669.69,-244 2715.65,-244"/>
<polygon fill="black" stroke="black" points="2715.74,-247.5 2725.74,-244 2715.74,-240.5 2715.74,-247.5"/>
</g>
<!-- Basic Block 22&#45;&gt;Basic Block 44 -->
<g id="edge70" class="edge"><title>Basic Block 22&#45;&gt;Basic Block 44</title>
<path fill="none" stroke="black" d="M2826.13,-244C2880.71,-244 2970.56,-244 3048,-244 3048,-244 3048,-244 3456,-244 3528.93,-244 3612.6,-250.882 3667.66,-256.362"/>
<polygon fill="black" stroke="black" points="3667.64,-259.878 3677.94,-257.402 3668.34,-252.913 3667.64,-259.878"/>
</g>
<!-- Basic Block 23&#45;&gt;Basic Block 24 -->
<g id="edge72" class="edge"><title>Basic Block 23&#45;&gt;Basic Block 24</title>
<path fill="none" stroke="black" d="M1238.25,-351.021C1246.63,-352.191 1255.39,-353.415 1263.98,-354.615"/>
<polygon fill="black" stroke="black" points="1263.56,-358.091 1273.95,-356.008 1264.53,-351.158 1263.56,-358.091"/>
</g>
<!-- Basic Block 25 -->
<g id="node25" class="node"><title>Basic Block 25</title>
<polygon fill="#ffffcc" stroke="black" points="2962,-331 2862,-331 2862,-295 2962,-295 2962,-331"/>
<text text-anchor="middle" x="2912" y="-309.9" font-family="Times Roman,serif" font-size="14.00">Basic Block 25</text>
</g>
<!-- Basic Block 24&#45;&gt;Basic Block 25 -->
<g id="edge76" class="edge"><title>Basic Block 24&#45;&gt;Basic Block 25</title>
<path fill="none" stroke="black" d="M1374.23,-355.009C1428.71,-347.047 1518.29,-336 1596,-336 1596,-336 1596,-336 2662,-336 2727.04,-336 2801.2,-328.186 2851.75,-321.667"/>
<polygon fill="black" stroke="black" points="2852.39,-325.112 2861.85,-320.341 2851.48,-318.172 2852.39,-325.112"/>
</g>
<!-- Basic Block 26 -->
<g id="node26" class="node"><title>Basic Block 26</title>
<polygon fill="#ffffcc" stroke="black" points="1510,-400 1410,-400 1410,-364 1510,-364 1510,-400"/>
<text text-anchor="middle" x="1460" y="-378.9" font-family="Times Roman,serif" font-size="14.00">Basic Block 26</text>
</g>
<!-- Basic Block 24&#45;&gt;Basic Block 26 -->
<g id="edge74" class="edge"><title>Basic Block 24&#45;&gt;Basic Block 26</title>
<path fill="none" stroke="black" d="M1374.25,-370.021C1382.63,-371.191 1391.39,-372.415 1399.98,-373.615"/>
<polygon fill="black" stroke="black" points="1399.56,-377.091 1409.95,-375.008 1400.53,-370.158 1399.56,-377.091"/>
</g>
<!-- Basic Block 25&#45;&gt;Basic Block 44 -->
<g id="edge78" class="edge"><title>Basic Block 25&#45;&gt;Basic Block 44</title>
<path fill="none" stroke="black" d="M2962.19,-303.825C3016.62,-294.684 3106.17,-282 3184,-282 3184,-282 3184,-282 3456,-282 3528.93,-282 3612.6,-275.118 3667.66,-269.638"/>
<polygon fill="black" stroke="black" points="3668.34,-273.087 3677.94,-268.598 3667.64,-266.122 3668.34,-273.087"/>
</g>
<!-- Basic Block 27 -->
<g id="node27" class="node"><title>Basic Block 27</title>
<polygon fill="#ffffcc" stroke="black" points="1646,-442 1546,-442 1546,-406 1646,-406 1646,-442"/>
<text text-anchor="middle" x="1596" y="-420.9" font-family="Times Roman,serif" font-size="14.00">Basic Block 27</text>
</g>
<!-- Basic Block 26&#45;&gt;Basic Block 27 -->
<g id="edge82" class="edge"><title>Basic Block 26&#45;&gt;Basic Block 27</title>
<path fill="none" stroke="black" d="M1510.25,-397.52C1518.72,-400.135 1527.58,-402.871 1536.26,-405.551"/>
<polygon fill="black" stroke="black" points="1535.36,-408.937 1545.95,-408.544 1537.43,-402.249 1535.36,-408.937"/>
</g>
<!-- Basic Block 28 -->
<g id="node28" class="node"><title>Basic Block 28</title>
<polygon fill="#ffffcc" stroke="black" points="1782,-421 1682,-421 1682,-385 1782,-385 1782,-421"/>
<text text-anchor="middle" x="1732" y="-399.9" font-family="Times Roman,serif" font-size="14.00">Basic Block 28</text>
</g>
<!-- Basic Block 26&#45;&gt;Basic Block 28 -->
<g id="edge80" class="edge"><title>Basic Block 26&#45;&gt;Basic Block 28</title>
<path fill="none" stroke="black" d="M1510.21,-385.876C1555.78,-389.395 1623.07,-394.59 1671.58,-398.335"/>
<polygon fill="black" stroke="black" points="1671.39,-401.831 1681.63,-399.111 1671.93,-394.851 1671.39,-401.831"/>
</g>
<!-- Basic Block 27&#45;&gt;Basic Block 28 -->
<g id="edge84" class="edge"><title>Basic Block 27&#45;&gt;Basic Block 28</title>
<path fill="none" stroke="black" d="M1646.25,-416.24C1654.63,-414.947 1663.39,-413.594 1671.98,-412.268"/>
<polygon fill="black" stroke="black" points="1672.6,-415.713 1681.95,-410.728 1671.53,-408.795 1672.6,-415.713"/>
</g>
<!-- Addr 3 -->
<g id="node48" class="node"><title>Addr 3</title>
<polygon fill="lightgrey" stroke="black" points="1895,-421 1841,-421 1841,-385 1895,-385 1895,-421"/>
<text text-anchor="middle" x="1868" y="-399.9" font-family="Times Roman,serif" font-size="14.00">Addr 3</text>
</g>
<!-- Basic Block 28&#45;&gt;Addr 3 -->
<g id="edge86" class="edge"><title>Basic Block 28&#45;&gt;Addr 3</title>
<path fill="none" stroke="black" d="M1782.25,-403C1798.09,-403 1815.3,-403 1830.12,-403"/>
<polygon fill="black" stroke="black" points="1830.43,-406.5 1840.43,-403 1830.43,-399.5 1830.43,-406.5"/>
</g>
<!-- Basic Block 29 -->
<g id="node29" class="node"><title>Basic Block 29</title>
<polygon fill="#ffffcc" stroke="black" points="2054,-421 1954,-421 1954,-385 2054,-385 2054,-421"/>
<text text-anchor="middle" x="2004" y="-399.9" font-family="Times Roman,serif" font-size="14.00">Basic Block 29</text>
</g>
<!-- Basic Block 30 -->
<g id="node30" class="node"><title>Basic Block 30</title>
<polygon fill="#ffffcc" stroke="black" points="2190,-400 2090,-400 2090,-364 2190,-364 2190,-400"/>
<text text-anchor="middle" x="2140" y="-378.9" font-family="Times Roman,serif" font-size="14.00">Basic Block 30</text>
</g>
<!-- Basic Block 29&#45;&gt;Basic Block 30 -->
<g id="edge92" class="edge"><title>Basic Block 29&#45;&gt;Basic Block 30</title>
<path fill="none" stroke="black" d="M2054.25,-395.24C2062.63,-393.947 2071.39,-392.594 2079.98,-391.268"/>
<polygon fill="black" stroke="black" points="2080.6,-394.713 2089.95,-389.728 2079.53,-387.795 2080.6,-394.713"/>
</g>
<!-- Basic Block 33 -->
<g id="node33" class="node"><title>Basic Block 33</title>
<polygon fill="#ffffcc" stroke="black" points="2190,-454 2090,-454 2090,-418 2190,-418 2190,-454"/>
<text text-anchor="middle" x="2140" y="-432.9" font-family="Times Roman,serif" font-size="14.00">Basic Block 33</text>
</g>
<!-- Basic Block 29&#45;&gt;Basic Block 33 -->
<g id="edge90" class="edge"><title>Basic Block 29&#45;&gt;Basic Block 33</title>
<path fill="none" stroke="black" d="M2054.25,-415.194C2062.63,-417.226 2071.39,-419.352 2079.98,-421.437"/>
<polygon fill="black" stroke="black" points="2079.41,-424.899 2089.95,-423.856 2081.06,-418.096 2079.41,-424.899"/>
</g>
<!-- Addr 4 -->
<g id="node49" class="node"><title>Addr 4</title>
<polygon fill="lightgrey" stroke="black" points="2303,-400 2249,-400 2249,-364 2303,-364 2303,-400"/>
<text text-anchor="middle" x="2276" y="-378.9" font-family="Times Roman,serif" font-size="14.00">Addr 4</text>
</g>
<!-- Basic Block 30&#45;&gt;Addr 4 -->
<g id="edge94" class="edge"><title>Basic Block 30&#45;&gt;Addr 4</title>
<path fill="none" stroke="black" d="M2190.25,-382C2206.09,-382 2223.3,-382 2238.12,-382"/>
<polygon fill="black" stroke="black" points="2238.43,-385.5 2248.43,-382 2238.43,-378.5 2238.43,-385.5"/>
</g>
<!-- Basic Block 31 -->
<g id="node31" class="node"><title>Basic Block 31</title>
<polygon fill="#ffffcc" stroke="black" points="2462,-400 2362,-400 2362,-364 2462,-364 2462,-400"/>
<text text-anchor="middle" x="2412" y="-378.9" font-family="Times Roman,serif" font-size="14.00">Basic Block 31</text>
</g>
<!-- Addr 5 -->
<g id="node50" class="node"><title>Addr 5</title>
<polygon fill="lightgrey" stroke="black" points="2575,-400 2521,-400 2521,-364 2575,-364 2575,-400"/>
<text text-anchor="middle" x="2548" y="-378.9" font-family="Times Roman,serif" font-size="14.00">Addr 5</text>
</g>
<!-- Basic Block 31&#45;&gt;Addr 5 -->
<g id="edge98" class="edge"><title>Basic Block 31&#45;&gt;Addr 5</title>
<path fill="none" stroke="black" d="M2462.25,-382C2478.09,-382 2495.3,-382 2510.12,-382"/>
<polygon fill="black" stroke="black" points="2510.43,-385.5 2520.43,-382 2510.43,-378.5 2510.43,-385.5"/>
</g>
<!-- Basic Block 32 -->
<g id="node32" class="node"><title>Basic Block 32</title>
<polygon fill="#ffffcc" stroke="black" points="3098,-400 2998,-400 2998,-364 3098,-364 3098,-400"/>
<text text-anchor="middle" x="3048" y="-378.9" font-family="Times Roman,serif" font-size="14.00">Basic Block 32</text>
</g>
<!-- Basic Block 41 -->
<g id="node41" class="node"><title>Basic Block 41</title>
<polygon fill="#ffffcc" stroke="black" points="3506,-400 3406,-400 3406,-364 3506,-364 3506,-400"/>
<text text-anchor="middle" x="3456" y="-378.9" font-family="Times Roman,serif" font-size="14.00">Basic Block 41</text>
</g>
<!-- Basic Block 32&#45;&gt;Basic Block 41 -->
<g id="edge102" class="edge"><title>Basic Block 32&#45;&gt;Basic Block 41</title>
<path fill="none" stroke="black" d="M3098.03,-382C3173.23,-382 3315.15,-382 3395.87,-382"/>
<polygon fill="black" stroke="black" points="3395.88,-385.5 3405.88,-382 3395.88,-378.5 3395.88,-385.5"/>
</g>
<!-- Basic Block 34 -->
<g id="node34" class="node"><title>Basic Block 34</title>
<polygon fill="#ffffcc" stroke="black" points="2326,-496 2226,-496 2226,-460 2326,-460 2326,-496"/>
<text text-anchor="middle" x="2276" y="-474.9" font-family="Times Roman,serif" font-size="14.00">Basic Block 34</text>
</g>
<!-- Basic Block 33&#45;&gt;Basic Block 34 -->
<g id="edge106" class="edge"><title>Basic Block 33&#45;&gt;Basic Block 34</title>
<path fill="none" stroke="black" d="M2190.25,-451.52C2198.72,-454.135 2207.58,-456.871 2216.26,-459.551"/>
<polygon fill="black" stroke="black" points="2215.36,-462.937 2225.95,-462.544 2217.43,-456.249 2215.36,-462.937"/>
</g>
<!-- Basic Block 35 -->
<g id="node35" class="node"><title>Basic Block 35</title>
<polygon fill="#ffffcc" stroke="black" points="2598,-475 2498,-475 2498,-439 2598,-439 2598,-475"/>
<text text-anchor="middle" x="2548" y="-453.9" font-family="Times Roman,serif" font-size="14.00">Basic Block 35</text>
</g>
<!-- Basic Block 33&#45;&gt;Basic Block 35 -->
<g id="edge104" class="edge"><title>Basic Block 33&#45;&gt;Basic Block 35</title>
<path fill="none" stroke="black" d="M2190.22,-437.98C2253.58,-440.561 2365.91,-445.41 2462,-451 2470.38,-451.487 2479.21,-452.049 2487.9,-452.629"/>
<polygon fill="black" stroke="black" points="2487.78,-456.129 2497.99,-453.315 2488.25,-449.145 2487.78,-456.129"/>
</g>
<!-- Addr 6 -->
<g id="node51" class="node"><title>Addr 6</title>
<polygon fill="lightgrey" stroke="black" points="2439,-496 2385,-496 2385,-460 2439,-460 2439,-496"/>
<text text-anchor="middle" x="2412" y="-474.9" font-family="Times Roman,serif" font-size="14.00">Addr 6</text>
</g>
<!-- Basic Block 34&#45;&gt;Addr 6 -->
<g id="edge108" class="edge"><title>Basic Block 34&#45;&gt;Addr 6</title>
<path fill="none" stroke="black" d="M2326.25,-478C2342.09,-478 2359.3,-478 2374.12,-478"/>
<polygon fill="black" stroke="black" points="2374.43,-481.5 2384.43,-478 2374.43,-474.5 2374.43,-481.5"/>
</g>
<!-- Addr 7 -->
<g id="node52" class="node"><title>Addr 7</title>
<polygon fill="lightgrey" stroke="black" points="2689,-475 2635,-475 2635,-439 2689,-439 2689,-475"/>
<text text-anchor="middle" x="2662" y="-453.9" font-family="Times Roman,serif" font-size="14.00">Addr 7</text>
</g>
<!-- Basic Block 35&#45;&gt;Addr 7 -->
<g id="edge112" class="edge"><title>Basic Block 35&#45;&gt;Addr 7</title>
<path fill="none" stroke="black" d="M2598,-457C2606.75,-457 2615.72,-457 2624.08,-457"/>
<polygon fill="black" stroke="black" points="2624.27,-460.5 2634.27,-457 2624.27,-453.5 2624.27,-460.5"/>
</g>
<!-- Basic Block 36 -->
<g id="node36" class="node"><title>Basic Block 36</title>
<polygon fill="#ffffcc" stroke="black" points="2826,-475 2726,-475 2726,-439 2826,-439 2826,-475"/>
<text text-anchor="middle" x="2776" y="-453.9" font-family="Times Roman,serif" font-size="14.00">Basic Block 36</text>
</g>
<!-- Basic Block 37 -->
<g id="node37" class="node"><title>Basic Block 37</title>
<polygon fill="#ffffcc" stroke="black" points="2962,-506 2862,-506 2862,-470 2962,-470 2962,-506"/>
<text text-anchor="middle" x="2912" y="-484.9" font-family="Times Roman,serif" font-size="14.00">Basic Block 37</text>
</g>
<!-- Basic Block 36&#45;&gt;Basic Block 37 -->
<g id="edge118" class="edge"><title>Basic Block 36&#45;&gt;Basic Block 37</title>
<path fill="none" stroke="black" d="M2826.25,-468.455C2834.63,-470.364 2843.39,-472.361 2851.98,-474.319"/>
<polygon fill="black" stroke="black" points="2851.42,-477.782 2861.95,-476.592 2852.98,-470.957 2851.42,-477.782"/>
</g>
<!-- Basic Block 38 -->
<g id="node38" class="node"><title>Basic Block 38</title>
<polygon fill="#ffffcc" stroke="black" points="3098,-468 2998,-468 2998,-432 3098,-432 3098,-468"/>
<text text-anchor="middle" x="3048" y="-446.9" font-family="Times Roman,serif" font-size="14.00">Basic Block 38</text>
</g>
<!-- Basic Block 36&#45;&gt;Basic Block 38 -->
<g id="edge116" class="edge"><title>Basic Block 36&#45;&gt;Basic Block 38</title>
<path fill="none" stroke="black" d="M2826.21,-455.708C2871.78,-454.535 2939.07,-452.803 2987.58,-451.555"/>
<polygon fill="black" stroke="black" points="2987.72,-455.053 2997.63,-451.296 2987.54,-448.055 2987.72,-455.053"/>
</g>
<!-- Basic Block 37&#45;&gt;Basic Block 38 -->
<g id="edge120" class="edge"><title>Basic Block 37&#45;&gt;Basic Block 38</title>
<path fill="none" stroke="black" d="M2962.25,-473.958C2970.72,-471.593 2979.58,-469.117 2988.26,-466.692"/>
<polygon fill="black" stroke="black" points="2989.26,-470.046 2997.95,-463.984 2987.38,-463.304 2989.26,-470.046"/>
</g>
<!-- Basic Block 39 -->
<g id="node39" class="node"><title>Basic Block 39</title>
<polygon fill="#ffffcc" stroke="black" points="3234,-488 3134,-488 3134,-452 3234,-452 3234,-488"/>
<text text-anchor="middle" x="3184" y="-466.9" font-family="Times Roman,serif" font-size="14.00">Basic Block 39</text>
</g>
<!-- Basic Block 38&#45;&gt;Basic Block 39 -->
<g id="edge124" class="edge"><title>Basic Block 38&#45;&gt;Basic Block 39</title>
<path fill="none" stroke="black" d="M3098.25,-457.39C3106.63,-458.622 3115.39,-459.911 3123.98,-461.174"/>
<polygon fill="black" stroke="black" points="3123.55,-464.648 3133.95,-462.64 3124.57,-457.722 3123.55,-464.648"/>
</g>
<!-- Basic Block 40 -->
<g id="node40" class="node"><title>Basic Block 40</title>
<polygon fill="#ffffcc" stroke="black" points="3370,-446 3270,-446 3270,-410 3370,-410 3370,-446"/>
<text text-anchor="middle" x="3320" y="-424.9" font-family="Times Roman,serif" font-size="14.00">Basic Block 40</text>
</g>
<!-- Basic Block 38&#45;&gt;Basic Block 40 -->
<g id="edge122" class="edge"><title>Basic Block 38&#45;&gt;Basic Block 40</title>
<path fill="none" stroke="black" d="M3098.02,-445.922C3109.82,-444.962 3122.35,-443.944 3134,-443 3176.06,-439.592 3223.47,-435.769 3259.9,-432.835"/>
<polygon fill="black" stroke="black" points="3260.18,-436.324 3269.87,-432.033 3259.62,-429.347 3260.18,-436.324"/>
</g>
<!-- Basic Block 39&#45;&gt;Basic Block 40 -->
<g id="edge126" class="edge"><title>Basic Block 39&#45;&gt;Basic Block 40</title>
<path fill="none" stroke="black" d="M3234.25,-454.48C3242.72,-451.865 3251.58,-449.129 3260.26,-446.449"/>
<polygon fill="black" stroke="black" points="3261.43,-449.751 3269.95,-443.456 3259.36,-443.063 3261.43,-449.751"/>
</g>
<!-- Basic Block 40&#45;&gt;Basic Block 41 -->
<g id="edge128" class="edge"><title>Basic Block 40&#45;&gt;Basic Block 41</title>
<path fill="none" stroke="black" d="M3370.25,-411.002C3378.72,-408.138 3387.58,-405.141 3396.26,-402.206"/>
<polygon fill="black" stroke="black" points="3397.6,-405.448 3405.95,-398.928 3395.36,-398.817 3397.6,-405.448"/>
</g>
<!-- Basic Block 42 -->
<g id="node42" class="node"><title>Basic Block 42</title>
<polygon fill="#ffffcc" stroke="black" points="3642,-400 3542,-400 3542,-364 3642,-364 3642,-400"/>
<text text-anchor="middle" x="3592" y="-378.9" font-family="Times Roman,serif" font-size="14.00">Basic Block 42</text>
</g>
<!-- Basic Block 41&#45;&gt;Basic Block 42 -->
<g id="edge132" class="edge"><title>Basic Block 41&#45;&gt;Basic Block 42</title>
<path fill="none" stroke="black" d="M3506.25,-382C3514.54,-382 3523.2,-382 3531.7,-382"/>
<polygon fill="black" stroke="black" points="3531.95,-385.5 3541.95,-382 3531.95,-378.5 3531.95,-385.5"/>
</g>
<!-- Basic Block 43 -->
<g id="node43" class="node"><title>Basic Block 43</title>
<polygon fill="#ffffcc" stroke="black" points="3642,-346 3542,-346 3542,-310 3642,-310 3642,-346"/>
<text text-anchor="middle" x="3592" y="-324.9" font-family="Times Roman,serif" font-size="14.00">Basic Block 43</text>
</g>
<!-- Basic Block 41&#45;&gt;Basic Block 43 -->
<g id="edge130" class="edge"><title>Basic Block 41&#45;&gt;Basic Block 43</title>
<path fill="none" stroke="black" d="M3501.66,-363.869C3512.88,-359.416 3525,-354.602 3536.62,-349.99"/>
<polygon fill="black" stroke="black" points="3538.22,-353.119 3546.22,-346.176 3535.64,-346.613 3538.22,-353.119"/>
</g>
<!-- Basic Block 45 -->
<g id="node45" class="node"><title>Basic Block 45</title>
<polygon fill="#ffffcc" stroke="black" points="3778,-400 3678,-400 3678,-364 3778,-364 3778,-400"/>
<text text-anchor="middle" x="3728" y="-378.9" font-family="Times Roman,serif" font-size="14.00">Basic Block 45</text>
</g>
<!-- Basic Block 42&#45;&gt;Basic Block 45 -->
<g id="edge134" class="edge"><title>Basic Block 42&#45;&gt;Basic Block 45</title>
<path fill="none" stroke="black" d="M3642.25,-382C3650.54,-382 3659.2,-382 3667.7,-382"/>
<polygon fill="black" stroke="black" points="3667.95,-385.5 3677.95,-382 3667.95,-378.5 3667.95,-385.5"/>
</g>
<!-- Basic Block 43&#45;&gt;Basic Block 44 -->
<g id="edge136" class="edge"><title>Basic Block 43&#45;&gt;Basic Block 44</title>
<path fill="none" stroke="black" d="M3629.88,-309.894C3645.8,-302.287 3664.47,-293.362 3681.23,-285.351"/>
<polygon fill="black" stroke="black" points="3682.81,-288.479 3690.32,-281.009 3679.79,-282.163 3682.81,-288.479"/>
</g>
<!-- Addr 8 -->
<g id="node53" class="node"><title>Addr 8</title>
<polygon fill="lightgrey" stroke="black" points="3869,-281 3815,-281 3815,-245 3869,-245 3869,-281"/>
<text text-anchor="middle" x="3842" y="-259.9" font-family="Times Roman,serif" font-size="14.00">Addr 8</text>
</g>
<!-- Basic Block 44&#45;&gt;Addr 8 -->
<g id="edge138" class="edge"><title>Basic Block 44&#45;&gt;Addr 8</title>
<path fill="none" stroke="black" d="M3778,-263C3786.75,-263 3795.72,-263 3804.08,-263"/>
<polygon fill="black" stroke="black" points="3804.27,-266.5 3814.27,-263 3804.27,-259.5 3804.27,-266.5"/>
</g>
<!-- Addr 9 -->
<g id="node54" class="node"><title>Addr 9</title>
<polygon fill="lightgrey" stroke="black" points="3869,-400 3815,-400 3815,-364 3869,-364 3869,-400"/>
<text text-anchor="middle" x="3842" y="-378.9" font-family="Times Roman,serif" font-size="14.00">Addr 9</text>
</g>
<!-- Basic Block 45&#45;&gt;Addr 9 -->
<g id="edge140" class="edge"><title>Basic Block 45&#45;&gt;Addr 9</title>
<path fill="none" stroke="black" d="M3778,-382C3786.75,-382 3795.72,-382 3804.08,-382"/>
<polygon fill="black" stroke="black" points="3804.27,-385.5 3814.27,-382 3804.27,-378.5 3804.27,-385.5"/>
</g>
<!-- Addr 1&#45;&gt;Basic Block 7 -->
<g id="edge22" class="edge"><title>Addr 1&#45;&gt;Basic Block 7</title>
<path fill="none" stroke="black" d="M705.724,-157C713.748,-157 722.817,-157 731.942,-157"/>
<polygon fill="black" stroke="black" points="732.215,-160.5 742.215,-157 732.215,-153.5 732.215,-160.5"/>
</g>
<!-- Addr 2&#45;&gt;Basic Block 21 -->
<g id="edge64" class="edge"><title>Addr 2&#45;&gt;Basic Block 21</title>
<path fill="none" stroke="black" d="M1759.52,-213.69C1773.54,-217.606 1791.16,-222.529 1808.1,-227.263"/>
<polygon fill="black" stroke="black" points="1807.39,-230.699 1817.96,-230.019 1809.27,-223.957 1807.39,-230.699"/>
</g>
<!-- Addr 3&#45;&gt;Basic Block 29 -->
<g id="edge88" class="edge"><title>Addr 3&#45;&gt;Basic Block 29</title>
<path fill="none" stroke="black" d="M1895.52,-403C1909.41,-403 1926.83,-403 1943.62,-403"/>
<polygon fill="black" stroke="black" points="1943.96,-406.5 1953.96,-403 1943.96,-399.5 1943.96,-406.5"/>
</g>
<!-- Addr 4&#45;&gt;Basic Block 31 -->
<g id="edge96" class="edge"><title>Addr 4&#45;&gt;Basic Block 31</title>
<path fill="none" stroke="black" d="M2303.52,-382C2317.41,-382 2334.83,-382 2351.62,-382"/>
<polygon fill="black" stroke="black" points="2351.96,-385.5 2361.96,-382 2351.96,-378.5 2351.96,-385.5"/>
</g>
<!-- Addr 5&#45;&gt;Basic Block 32 -->
<g id="edge100" class="edge"><title>Addr 5&#45;&gt;Basic Block 32</title>
<path fill="none" stroke="black" d="M2575.59,-382C2653.93,-382 2879.05,-382 2987.79,-382"/>
<polygon fill="black" stroke="black" points="2987.94,-385.5 2997.94,-382 2987.94,-378.5 2987.94,-385.5"/>
</g>
<!-- Addr 6&#45;&gt;Basic Block 35 -->
<g id="edge110" class="edge"><title>Addr 6&#45;&gt;Basic Block 35</title>
<path fill="none" stroke="black" d="M2439.52,-473.75C2453.41,-471.607 2470.83,-468.916 2487.62,-466.323"/>
<polygon fill="black" stroke="black" points="2488.61,-469.712 2497.96,-464.726 2487.55,-462.794 2488.61,-469.712"/>
</g>
<!-- Addr 7&#45;&gt;Basic Block 36 -->
<g id="edge114" class="edge"><title>Addr 7&#45;&gt;Basic Block 36</title>
<path fill="none" stroke="black" d="M2689.6,-457C2697.54,-457 2706.54,-457 2715.65,-457"/>
<polygon fill="black" stroke="black" points="2715.94,-460.5 2725.94,-457 2715.94,-453.5 2715.94,-460.5"/>
</g>
</g>
</svg>
