<?xml version="1.0" encoding="UTF-8" standalone="no"?>
<!DOCTYPE svg PUBLIC "-//W3C//DTD SVG 1.1//EN"
 "http://www.w3.org/Graphics/SVG/1.1/DTD/svg11.dtd">
<!-- Generated by graphviz version 2.26.0 (20091210.2329)
 -->
<!-- Title: lex_identifier Pages: 1 -->
<svg width="3796pt" height="224pt"
 viewBox="0.00 0.00 3796.00 224.00" xmlns="http://www.w3.org/2000/svg" xmlns:xlink="http://www.w3.org/1999/xlink">
<g id="graph1" class="graph" transform="scale(1 1) rotate(0) translate(4 220)">
<title>lex_identifier</title>
<polygon fill="white" stroke="white" points="-4,5 -4,-220 3793,-220 3793,5 -4,5"/>
<!-- Basic Block 1 -->
<g id="node1" class="node"><title>Basic Block 1</title>
<polygon fill="#ffeda0" stroke="black" points="93,-129 1,-129 1,-93 93,-93 93,-129"/>
<text text-anchor="middle" x="47" y="-107.9" font-family="Times Roman,serif" font-size="14.00">Basic Block 1</text>
</g>
<!-- Basic Block 2 -->
<g id="node2" class="node"><title>Basic Block 2</title>
<polygon fill="#ffffcc" stroke="black" points="223,-154 131,-154 131,-118 223,-118 223,-154"/>
<text text-anchor="middle" x="177" y="-132.9" font-family="Times Roman,serif" font-size="14.00">Basic Block 2</text>
</g>
<!-- Basic Block 1&#45;&gt;Basic Block 2 -->
<g id="edge4" class="edge"><title>Basic Block 1&#45;&gt;Basic Block 2</title>
<path fill="none" stroke="black" d="M93.5658,-119.955C102.247,-121.624 111.406,-123.386 120.351,-125.106"/>
<polygon fill="black" stroke="black" points="119.841,-128.572 130.322,-127.024 121.163,-121.698 119.841,-128.572"/>
</g>
<!-- Basic Block 5 -->
<g id="node5" class="node"><title>Basic Block 5</title>
<polygon fill="#ffeda0" stroke="black" points="483,-103 391,-103 391,-67 483,-67 483,-103"/>
<text text-anchor="middle" x="437" y="-81.9" font-family="Times Roman,serif" font-size="14.00">Basic Block 5</text>
</g>
<!-- Basic Block 1&#45;&gt;Basic Block 5 -->
<g id="edge2" class="edge"><title>Basic Block 1&#45;&gt;Basic Block 5</title>
<path fill="none" stroke="black" d="M93.6557,-107.89C165.443,-103.104 302.781,-93.9479 380.232,-88.7845"/>
<polygon fill="black" stroke="black" points="380.546,-92.2715 390.291,-88.114 380.08,-85.287 380.546,-92.2715"/>
</g>
<!-- Basic Block 4 -->
<g id="node4" class="node"><title>Basic Block 4</title>
<polygon fill="#800026" stroke="black" points="353,-156 261,-156 261,-120 353,-120 353,-156"/>
<text text-anchor="middle" x="307" y="-134.9" font-family="Times Roman,serif" font-size="14.00">Basic Block 4</text>
</g>
<!-- Basic Block 2&#45;&gt;Basic Block 4 -->
<g id="edge6" class="edge"><title>Basic Block 2&#45;&gt;Basic Block 4</title>
<path fill="none" stroke="black" d="M223.566,-136.716C232.154,-136.849 241.21,-136.988 250.063,-137.124"/>
<polygon fill="black" stroke="black" points="250.27,-140.628 260.322,-137.282 250.377,-133.628 250.27,-140.628"/>
</g>
<!-- Basic Block 3 -->
<g id="node3" class="node"><title>Basic Block 3</title>
<polygon fill="#feb24c" stroke="black" points="483,-157 391,-157 391,-121 483,-121 483,-157"/>
<text text-anchor="middle" x="437" y="-135.9" font-family="Times Roman,serif" font-size="14.00">Basic Block 3</text>
</g>
<!-- Basic Block 3&#45;&gt;Basic Block 4 -->
<g id="edge8" class="edge"><title>Basic Block 3&#45;&gt;Basic Block 4</title>
<path fill="none" stroke="black" d="M390.322,-145.147C381.73,-145.315 372.673,-145.311 363.822,-145.139"/>
<polygon fill="black" stroke="black" points="363.657,-141.634 353.566,-144.861 363.467,-148.631 363.657,-141.634"/>
</g>
<!-- Basic Block 4&#45;&gt;Basic Block 3 -->
<g id="edge10" class="edge"><title>Basic Block 4&#45;&gt;Basic Block 3</title>
<path fill="none" stroke="black" d="M353.566,-131.855C362.154,-131.685 371.21,-131.688 380.063,-131.858"/>
<polygon fill="black" stroke="black" points="380.232,-135.364 390.322,-132.135 380.42,-128.367 380.232,-135.364"/>
</g>
<!-- Basic Block 4&#45;&gt;Basic Block 5 -->
<g id="edge12" class="edge"><title>Basic Block 4&#45;&gt;Basic Block 5</title>
<path fill="none" stroke="black" d="M351.375,-119.909C361.729,-115.687 372.862,-111.149 383.563,-106.786"/>
<polygon fill="black" stroke="black" points="384.886,-110.026 392.825,-103.01 382.244,-103.544 384.886,-110.026"/>
</g>
<!-- Basic Block 6 -->
<g id="node6" class="node"><title>Basic Block 6</title>
<polygon fill="#ffffcc" stroke="black" points="613,-130 521,-130 521,-94 613,-94 613,-130"/>
<text text-anchor="middle" x="567" y="-108.9" font-family="Times Roman,serif" font-size="14.00">Basic Block 6</text>
</g>
<!-- Basic Block 5&#45;&gt;Basic Block 6 -->
<g id="edge16" class="edge"><title>Basic Block 5&#45;&gt;Basic Block 6</title>
<path fill="none" stroke="black" d="M483.566,-94.6714C492.247,-96.4744 501.406,-98.3767 510.351,-100.235"/>
<polygon fill="black" stroke="black" points="509.82,-103.699 520.322,-102.305 511.243,-96.8449 509.82,-103.699"/>
</g>
<!-- Basic Block 10 -->
<g id="node10" class="node"><title>Basic Block 10</title>
<polygon fill="#ffffcc" stroke="black" points="750,-78 650,-78 650,-42 750,-42 750,-78"/>
<text text-anchor="middle" x="700" y="-56.9" font-family="Times Roman,serif" font-size="14.00">Basic Block 10</text>
</g>
<!-- Basic Block 5&#45;&gt;Basic Block 10 -->
<g id="edge14" class="edge"><title>Basic Block 5&#45;&gt;Basic Block 10</title>
<path fill="none" stroke="black" d="M483.716,-80.5593C527.172,-76.4285 592.162,-70.2508 639.554,-65.7458"/>
<polygon fill="black" stroke="black" points="640.063,-69.2133 649.687,-64.7826 639.401,-62.2447 640.063,-69.2133"/>
</g>
<!-- Addr 1 -->
<g id="node30" class="node"><title>Addr 1</title>
<polygon fill="lightgrey" stroke="black" points="727,-132 673,-132 673,-96 727,-96 727,-132"/>
<text text-anchor="middle" x="700" y="-110.9" font-family="Times Roman,serif" font-size="14.00">Addr 1</text>
</g>
<!-- Basic Block 6&#45;&gt;Addr 1 -->
<g id="edge18" class="edge"><title>Basic Block 6&#45;&gt;Addr 1</title>
<path fill="none" stroke="black" d="M613.517,-112.7C629.463,-112.939 647.099,-113.205 662.264,-113.433"/>
<polygon fill="black" stroke="black" points="662.265,-116.933 672.316,-113.584 662.37,-109.934 662.265,-116.933"/>
</g>
<!-- Basic Block 7 -->
<g id="node7" class="node"><title>Basic Block 7</title>
<polygon fill="#ffffcc" stroke="black" points="879,-132 787,-132 787,-96 879,-96 879,-132"/>
<text text-anchor="middle" x="833" y="-110.9" font-family="Times Roman,serif" font-size="14.00">Basic Block 7</text>
</g>
<!-- Basic Block 8 -->
<g id="node8" class="node"><title>Basic Block 8</title>
<polygon fill="#ffffcc" stroke="black" points="1012,-124 920,-124 920,-88 1012,-88 1012,-124"/>
<text text-anchor="middle" x="966" y="-102.9" font-family="Times Roman,serif" font-size="14.00">Basic Block 8</text>
</g>
<!-- Basic Block 7&#45;&gt;Basic Block 8 -->
<g id="edge24" class="edge"><title>Basic Block 7&#45;&gt;Basic Block 8</title>
<path fill="none" stroke="black" d="M879.517,-111.202C889.08,-110.627 899.25,-110.015 909.13,-109.421"/>
<polygon fill="black" stroke="black" points="909.513,-112.904 919.285,-108.81 909.092,-105.917 909.513,-112.904"/>
</g>
<!-- Basic Block 17 -->
<g id="node17" class="node"><title>Basic Block 17</title>
<polygon fill="#ffeda0" stroke="black" points="1016,-178 916,-178 916,-142 1016,-142 1016,-178"/>
<text text-anchor="middle" x="966" y="-156.9" font-family="Times Roman,serif" font-size="14.00">Basic Block 17</text>
</g>
<!-- Basic Block 7&#45;&gt;Basic Block 17 -->
<g id="edge22" class="edge"><title>Basic Block 7&#45;&gt;Basic Block 17</title>
<path fill="none" stroke="black" d="M879.517,-130.089C888.099,-133.057 897.17,-136.194 906.082,-139.276"/>
<polygon fill="black" stroke="black" points="905.064,-142.628 915.659,-142.589 907.352,-136.012 905.064,-142.628"/>
</g>
<!-- Basic Block 12 -->
<g id="node12" class="node"><title>Basic Block 12</title>
<polygon fill="#ffffcc" stroke="black" points="1152,-105 1052,-105 1052,-69 1152,-69 1152,-105"/>
<text text-anchor="middle" x="1102" y="-83.9" font-family="Times Roman,serif" font-size="14.00">Basic Block 12</text>
</g>
<!-- Basic Block 8&#45;&gt;Basic Block 12 -->
<g id="edge26" class="edge"><title>Basic Block 8&#45;&gt;Basic Block 12</title>
<path fill="none" stroke="black" d="M1012.8,-99.4613C1022.16,-98.1547 1032.1,-96.7651 1041.83,-95.4058"/>
<polygon fill="black" stroke="black" points="1042.44,-98.8549 1051.86,-94.0049 1041.47,-91.9223 1042.44,-98.8549"/>
</g>
<!-- Basic Block 9 -->
<g id="node9" class="node"><title>Basic Block 9</title>
<polygon fill="#ffffcc" stroke="black" points="1284,-132 1192,-132 1192,-96 1284,-96 1284,-132"/>
<text text-anchor="middle" x="1238" y="-110.9" font-family="Times Roman,serif" font-size="14.00">Basic Block 9</text>
</g>
<!-- Basic Block 9&#45;&gt;Basic Block 12 -->
<g id="edge28" class="edge"><title>Basic Block 9&#45;&gt;Basic Block 12</title>
<path fill="none" stroke="black" d="M1191.11,-111.143C1181.8,-109.566 1171.91,-107.688 1162.23,-105.668"/>
<polygon fill="black" stroke="black" points="1162.77,-102.204 1152.25,-103.519 1161.29,-109.047 1162.77,-102.204"/>
</g>
<!-- Basic Block 10&#45;&gt;Basic Block 12 -->
<g id="edge30" class="edge"><title>Basic Block 10&#45;&gt;Basic Block 12</title>
<path fill="none" stroke="black" d="M750.112,-62.5062C812.458,-65.741 922.155,-71.8158 1016,-79 1024.27,-79.6335 1032.99,-80.3669 1041.57,-81.1275"/>
<polygon fill="black" stroke="black" points="1041.27,-84.6147 1051.55,-82.0285 1041.9,-77.6431 1041.27,-84.6147"/>
</g>
<!-- Basic Block 11 -->
<g id="node11" class="node"><title>Basic Block 11</title>
<polygon fill="#ffffcc" stroke="black" points="1696,-90 1596,-90 1596,-54 1696,-54 1696,-90"/>
<text text-anchor="middle" x="1646" y="-68.9" font-family="Times Roman,serif" font-size="14.00">Basic Block 11</text>
</g>
<!-- Basic Block 11&#45;&gt;Basic Block 12 -->
<g id="edge32" class="edge"><title>Basic Block 11&#45;&gt;Basic Block 12</title>
<path fill="none" stroke="black" d="M1595.92,-73.3809C1495.62,-76.1464 1270.49,-82.3541 1162.3,-85.3373"/>
<polygon fill="black" stroke="black" points="1162.1,-81.8413 1152.2,-85.6157 1162.3,-88.8387 1162.1,-81.8413"/>
</g>
<!-- Basic Block 12&#45;&gt;Basic Block 9 -->
<g id="edge34" class="edge"><title>Basic Block 12&#45;&gt;Basic Block 9</title>
<path fill="none" stroke="black" d="M1152.25,-90.4357C1161.69,-92.0822 1171.61,-94.0105 1181.23,-96.0622"/>
<polygon fill="black" stroke="black" points="1180.59,-99.5045 1191.11,-98.2382 1182.09,-92.6684 1180.59,-99.5045"/>
</g>
<!-- Basic Block 13 -->
<g id="node13" class="node"><title>Basic Block 13</title>
<polygon fill="#ffffcc" stroke="black" points="1288,-40 1188,-40 1188,-4 1288,-4 1288,-40"/>
<text text-anchor="middle" x="1238" y="-18.9" font-family="Times Roman,serif" font-size="14.00">Basic Block 13</text>
</g>
<!-- Basic Block 12&#45;&gt;Basic Block 13 -->
<g id="edge36" class="edge"><title>Basic Block 12&#45;&gt;Basic Block 13</title>
<path fill="none" stroke="black" d="M1139.88,-68.8939C1155.8,-61.2871 1174.47,-52.3619 1191.23,-44.3512"/>
<polygon fill="black" stroke="black" points="1192.81,-47.4792 1200.32,-40.009 1189.79,-41.1634 1192.81,-47.4792"/>
</g>
<!-- Addr 2 -->
<g id="node31" class="node"><title>Addr 2</title>
<polygon fill="lightgrey" stroke="black" points="1401,-40 1347,-40 1347,-4 1401,-4 1401,-40"/>
<text text-anchor="middle" x="1374" y="-18.9" font-family="Times Roman,serif" font-size="14.00">Addr 2</text>
</g>
<!-- Basic Block 13&#45;&gt;Addr 2 -->
<g id="edge38" class="edge"><title>Basic Block 13&#45;&gt;Addr 2</title>
<path fill="none" stroke="black" d="M1288.25,-22C1304.09,-22 1321.3,-22 1336.12,-22"/>
<polygon fill="black" stroke="black" points="1336.43,-25.5001 1346.43,-22 1336.43,-18.5001 1336.43,-25.5001"/>
</g>
<!-- Basic Block 14 -->
<g id="node14" class="node"><title>Basic Block 14</title>
<polygon fill="#ffffcc" stroke="black" points="1560,-40 1460,-40 1460,-4 1560,-4 1560,-40"/>
<text text-anchor="middle" x="1510" y="-18.9" font-family="Times Roman,serif" font-size="14.00">Basic Block 14</text>
</g>
<!-- Basic Block 14&#45;&gt;Basic Block 11 -->
<g id="edge42" class="edge"><title>Basic Block 14&#45;&gt;Basic Block 11</title>
<path fill="none" stroke="black" d="M1559.1,-40.0511C1568.25,-43.4144 1577.89,-46.9599 1587.29,-50.4166"/>
<polygon fill="black" stroke="black" points="1586.38,-53.8097 1596.97,-53.9753 1588.79,-47.2396 1586.38,-53.8097"/>
</g>
<!-- Basic Block 15 -->
<g id="node15" class="node"><title>Basic Block 15</title>
<polygon fill="#ffffcc" stroke="black" points="1696,-36 1596,-36 1596,-1.77636e-14 1696,-3.55271e-15 1696,-36"/>
<text text-anchor="middle" x="1646" y="-14.9" font-family="Times Roman,serif" font-size="14.00">Basic Block 15</text>
</g>
<!-- Basic Block 14&#45;&gt;Basic Block 15 -->
<g id="edge44" class="edge"><title>Basic Block 14&#45;&gt;Basic Block 15</title>
<path fill="none" stroke="black" d="M1560.25,-20.5219C1568.54,-20.2783 1577.2,-20.0235 1585.7,-19.7735"/>
<polygon fill="black" stroke="black" points="1586.06,-23.2646 1595.95,-19.472 1585.85,-16.2676 1586.06,-23.2646"/>
</g>
<!-- Addr 3 -->
<g id="node32" class="node"><title>Addr 3</title>
<polygon fill="lightgrey" stroke="black" points="1787,-53 1733,-53 1733,-17 1787,-17 1787,-53"/>
<text text-anchor="middle" x="1760" y="-31.9" font-family="Times Roman,serif" font-size="14.00">Addr 3</text>
</g>
<!-- Basic Block 15&#45;&gt;Addr 3 -->
<g id="edge46" class="edge"><title>Basic Block 15&#45;&gt;Addr 3</title>
<path fill="none" stroke="black" d="M1696,-25.4564C1704.85,-26.7757 1713.92,-28.129 1722.36,-29.3866"/>
<polygon fill="black" stroke="black" points="1721.86,-32.8511 1732.27,-30.8644 1722.89,-25.9277 1721.86,-32.8511"/>
</g>
<!-- Basic Block 16 -->
<g id="node16" class="node"><title>Basic Block 16</title>
<polygon fill="#ffffcc" stroke="black" points="1924,-69 1824,-69 1824,-33 1924,-33 1924,-69"/>
<text text-anchor="middle" x="1874" y="-47.9" font-family="Times Roman,serif" font-size="14.00">Basic Block 16</text>
</g>
<!-- Basic Block 19 -->
<g id="node19" class="node"><title>Basic Block 19</title>
<polygon fill="#ffffcc" stroke="black" points="2060,-108 1960,-108 1960,-72 2060,-72 2060,-108"/>
<text text-anchor="middle" x="2010" y="-86.9" font-family="Times Roman,serif" font-size="14.00">Basic Block 19</text>
</g>
<!-- Basic Block 16&#45;&gt;Basic Block 19 -->
<g id="edge50" class="edge"><title>Basic Block 16&#45;&gt;Basic Block 19</title>
<path fill="none" stroke="black" d="M1924.25,-65.4114C1932.72,-67.8392 1941.58,-70.3802 1950.26,-72.869"/>
<polygon fill="black" stroke="black" points="1949.37,-76.2557 1959.95,-75.6479 1951.3,-69.5269 1949.37,-76.2557"/>
</g>
<!-- Addr 4 -->
<g id="node33" class="node"><title>Addr 4</title>
<polygon fill="lightgrey" stroke="black" points="1129,-178 1075,-178 1075,-142 1129,-142 1129,-178"/>
<text text-anchor="middle" x="1102" y="-156.9" font-family="Times Roman,serif" font-size="14.00">Addr 4</text>
</g>
<!-- Basic Block 17&#45;&gt;Addr 4 -->
<g id="edge52" class="edge"><title>Basic Block 17&#45;&gt;Addr 4</title>
<path fill="none" stroke="black" d="M1016.25,-160C1032.09,-160 1049.3,-160 1064.12,-160"/>
<polygon fill="black" stroke="black" points="1064.43,-163.5 1074.43,-160 1064.43,-156.5 1064.43,-163.5"/>
</g>
<!-- Basic Block 18 -->
<g id="node18" class="node"><title>Basic Block 18</title>
<polygon fill="#ffffcc" stroke="black" points="1424,-166 1324,-166 1324,-130 1424,-130 1424,-166"/>
<text text-anchor="middle" x="1374" y="-144.9" font-family="Times Roman,serif" font-size="14.00">Basic Block 18</text>
</g>
<!-- Basic Block 18&#45;&gt;Basic Block 19 -->
<g id="edge56" class="edge"><title>Basic Block 18&#45;&gt;Basic Block 19</title>
<path fill="none" stroke="black" d="M1424.06,-142.402C1478.57,-136.798 1568.37,-129 1646,-129 1646,-129 1646,-129 1760,-129 1825.34,-129 1899.16,-115.832 1949.54,-104.799"/>
<polygon fill="black" stroke="black" points="1950.61,-108.147 1959.61,-102.555 1949.08,-101.315 1950.61,-108.147"/>
</g>
<!-- Basic Block 20 -->
<g id="node20" class="node"><title>Basic Block 20</title>
<polygon fill="#ffffcc" stroke="black" points="2196,-169 2096,-169 2096,-133 2196,-133 2196,-169"/>
<text text-anchor="middle" x="2146" y="-147.9" font-family="Times Roman,serif" font-size="14.00">Basic Block 20</text>
</g>
<!-- Basic Block 19&#45;&gt;Basic Block 20 -->
<g id="edge60" class="edge"><title>Basic Block 19&#45;&gt;Basic Block 20</title>
<path fill="none" stroke="black" d="M2050.44,-108.137C2064.83,-114.593 2081.21,-121.94 2096.29,-128.704"/>
<polygon fill="black" stroke="black" points="2094.93,-131.929 2105.48,-132.828 2097.79,-125.542 2094.93,-131.929"/>
</g>
<!-- Basic Block 29 -->
<g id="node29" class="node"><title>Basic Block 29</title>
<polygon fill="#ffffcc" stroke="black" points="3696,-154 3596,-154 3596,-118 3696,-118 3696,-154"/>
<text text-anchor="middle" x="3646" y="-132.9" font-family="Times Roman,serif" font-size="14.00">Basic Block 29</text>
</g>
<!-- Basic Block 19&#45;&gt;Basic Block 29 -->
<g id="edge58" class="edge"><title>Basic Block 19&#45;&gt;Basic Block 29</title>
<path fill="none" stroke="black" d="M2060.27,-77.5123C2114.59,-65.1319 2203.88,-48 2282,-48 2282,-48 2282,-48 3418,-48 3489.9,-48 3566.51,-86.5542 3610.09,-112.624"/>
<polygon fill="black" stroke="black" points="3608.52,-115.763 3618.88,-117.98 3612.16,-109.786 3608.52,-115.763"/>
</g>
<!-- Basic Block 21 -->
<g id="node21" class="node"><title>Basic Block 21</title>
<polygon fill="#ffffcc" stroke="black" points="2332,-169 2232,-169 2232,-133 2332,-133 2332,-169"/>
<text text-anchor="middle" x="2282" y="-147.9" font-family="Times Roman,serif" font-size="14.00">Basic Block 21</text>
</g>
<!-- Basic Block 20&#45;&gt;Basic Block 21 -->
<g id="edge64" class="edge"><title>Basic Block 20&#45;&gt;Basic Block 21</title>
<path fill="none" stroke="black" d="M2196.25,-151C2204.54,-151 2213.2,-151 2221.7,-151"/>
<polygon fill="black" stroke="black" points="2221.95,-154.5 2231.95,-151 2221.95,-147.5 2221.95,-154.5"/>
</g>
<!-- Basic Block 20&#45;&gt;Basic Block 29 -->
<g id="edge62" class="edge"><title>Basic Block 20&#45;&gt;Basic Block 29</title>
<path fill="none" stroke="black" d="M2192.37,-169.106C2245.87,-188.339 2336.92,-216 2418,-216 2418,-216 2418,-216 3418,-216 3487.32,-216 3562.15,-182.667 3606.49,-159.034"/>
<polygon fill="black" stroke="black" points="3608.36,-162.001 3615.48,-154.153 3605.02,-155.85 3608.36,-162.001"/>
</g>
<!-- Basic Block 22 -->
<g id="node22" class="node"><title>Basic Block 22</title>
<polygon fill="#ffffcc" stroke="black" points="2468,-150 2368,-150 2368,-114 2468,-114 2468,-150"/>
<text text-anchor="middle" x="2418" y="-128.9" font-family="Times Roman,serif" font-size="14.00">Basic Block 22</text>
</g>
<!-- Basic Block 21&#45;&gt;Basic Block 22 -->
<g id="edge68" class="edge"><title>Basic Block 21&#45;&gt;Basic Block 22</title>
<path fill="none" stroke="black" d="M2332.25,-143.979C2340.63,-142.809 2349.39,-141.585 2357.98,-140.385"/>
<polygon fill="black" stroke="black" points="2358.53,-143.842 2367.95,-138.992 2357.56,-136.909 2358.53,-143.842"/>
</g>
<!-- Basic Block 24 -->
<g id="node24" class="node"><title>Basic Block 24</title>
<polygon fill="#ffffcc" stroke="black" points="2832,-158 2732,-158 2732,-122 2832,-122 2832,-158"/>
<text text-anchor="middle" x="2782" y="-136.9" font-family="Times Roman,serif" font-size="14.00">Basic Block 24</text>
</g>
<!-- Basic Block 21&#45;&gt;Basic Block 24 -->
<g id="edge66" class="edge"><title>Basic Block 21&#45;&gt;Basic Block 24</title>
<path fill="none" stroke="black" d="M2332.42,-156.479C2344.09,-157.528 2356.47,-158.465 2368,-159 2513.66,-165.76 2550.66,-162.82 2696,-151 2704.3,-150.325 2713.04,-149.427 2721.62,-148.435"/>
<polygon fill="black" stroke="black" points="2722.09,-151.904 2731.6,-147.235 2721.26,-144.954 2722.09,-151.904"/>
</g>
<!-- Basic Block 23 -->
<g id="node23" class="node"><title>Basic Block 23</title>
<polygon fill="#ffffcc" stroke="black" points="2604,-112 2504,-112 2504,-76 2604,-76 2604,-112"/>
<text text-anchor="middle" x="2554" y="-90.9" font-family="Times Roman,serif" font-size="14.00">Basic Block 23</text>
</g>
<!-- Basic Block 22&#45;&gt;Basic Block 23 -->
<g id="edge72" class="edge"><title>Basic Block 22&#45;&gt;Basic Block 23</title>
<path fill="none" stroke="black" d="M2468.25,-117.958C2476.72,-115.593 2485.58,-113.117 2494.26,-110.692"/>
<polygon fill="black" stroke="black" points="2495.26,-114.046 2503.95,-107.984 2493.38,-107.304 2495.26,-114.046"/>
</g>
<!-- Basic Block 22&#45;&gt;Basic Block 24 -->
<g id="edge70" class="edge"><title>Basic Block 22&#45;&gt;Basic Block 24</title>
<path fill="none" stroke="black" d="M2468.23,-133.104C2534.5,-134.56 2651,-137.121 2721.88,-138.679"/>
<polygon fill="black" stroke="black" points="2721.92,-142.18 2731.99,-138.901 2722.07,-135.182 2721.92,-142.18"/>
</g>
<!-- Addr 5 -->
<g id="node34" class="node"><title>Addr 5</title>
<polygon fill="lightgrey" stroke="black" points="2695,-112 2641,-112 2641,-76 2695,-76 2695,-112"/>
<text text-anchor="middle" x="2668" y="-90.9" font-family="Times Roman,serif" font-size="14.00">Addr 5</text>
</g>
<!-- Basic Block 23&#45;&gt;Addr 5 -->
<g id="edge74" class="edge"><title>Basic Block 23&#45;&gt;Addr 5</title>
<path fill="none" stroke="black" d="M2604,-94C2612.75,-94 2621.72,-94 2630.08,-94"/>
<polygon fill="black" stroke="black" points="2630.27,-97.5001 2640.27,-94 2630.27,-90.5001 2630.27,-97.5001"/>
</g>
<!-- Basic Block 25 -->
<g id="node25" class="node"><title>Basic Block 25</title>
<polygon fill="#ffffcc" stroke="black" points="2968,-150 2868,-150 2868,-114 2968,-114 2968,-150"/>
<text text-anchor="middle" x="2918" y="-128.9" font-family="Times Roman,serif" font-size="14.00">Basic Block 25</text>
</g>
<!-- Basic Block 24&#45;&gt;Basic Block 25 -->
<g id="edge80" class="edge"><title>Basic Block 24&#45;&gt;Basic Block 25</title>
<path fill="none" stroke="black" d="M2832.25,-137.044C2840.54,-136.557 2849.2,-136.047 2857.7,-135.547"/>
<polygon fill="black" stroke="black" points="2858.17,-139.025 2867.95,-134.944 2857.76,-132.037 2858.17,-139.025"/>
</g>
<!-- Basic Block 27 -->
<g id="node27" class="node"><title>Basic Block 27</title>
<polygon fill="#ffffcc" stroke="black" points="3332,-158 3232,-158 3232,-122 3332,-122 3332,-158"/>
<text text-anchor="middle" x="3282" y="-136.9" font-family="Times Roman,serif" font-size="14.00">Basic Block 27</text>
</g>
<!-- Basic Block 24&#45;&gt;Basic Block 27 -->
<g id="edge78" class="edge"><title>Basic Block 24&#45;&gt;Basic Block 27</title>
<path fill="none" stroke="black" d="M2832.17,-153.004C2843.85,-155.495 2856.3,-157.722 2868,-159 2993.35,-172.682 3141.1,-158.726 3221.83,-148.562"/>
<polygon fill="black" stroke="black" points="3222.34,-152.025 3231.82,-147.281 3221.45,-145.082 3222.34,-152.025"/>
</g>
<!-- Basic Block 26 -->
<g id="node26" class="node"><title>Basic Block 26</title>
<polygon fill="#ffffcc" stroke="black" points="3104,-112 3004,-112 3004,-76 3104,-76 3104,-112"/>
<text text-anchor="middle" x="3054" y="-90.9" font-family="Times Roman,serif" font-size="14.00">Basic Block 26</text>
</g>
<!-- Basic Block 25&#45;&gt;Basic Block 26 -->
<g id="edge84" class="edge"><title>Basic Block 25&#45;&gt;Basic Block 26</title>
<path fill="none" stroke="black" d="M2968.25,-117.958C2976.72,-115.593 2985.58,-113.117 2994.26,-110.692"/>
<polygon fill="black" stroke="black" points="2995.26,-114.046 3003.95,-107.984 2993.38,-107.304 2995.26,-114.046"/>
</g>
<!-- Basic Block 25&#45;&gt;Basic Block 27 -->
<g id="edge82" class="edge"><title>Basic Block 25&#45;&gt;Basic Block 27</title>
<path fill="none" stroke="black" d="M2968.23,-133.104C3034.5,-134.56 3151,-137.121 3221.88,-138.679"/>
<polygon fill="black" stroke="black" points="3221.92,-142.18 3231.99,-138.901 3222.07,-135.182 3221.92,-142.18"/>
</g>
<!-- Addr 6 -->
<g id="node35" class="node"><title>Addr 6</title>
<polygon fill="lightgrey" stroke="black" points="3195,-112 3141,-112 3141,-76 3195,-76 3195,-112"/>
<text text-anchor="middle" x="3168" y="-90.9" font-family="Times Roman,serif" font-size="14.00">Addr 6</text>
</g>
<!-- Basic Block 26&#45;&gt;Addr 6 -->
<g id="edge86" class="edge"><title>Basic Block 26&#45;&gt;Addr 6</title>
<path fill="none" stroke="black" d="M3104,-94C3112.75,-94 3121.72,-94 3130.08,-94"/>
<polygon fill="black" stroke="black" points="3130.27,-97.5001 3140.27,-94 3130.27,-90.5001 3130.27,-97.5001"/>
</g>
<!-- Basic Block 28 -->
<g id="node28" class="node"><title>Basic Block 28</title>
<polygon fill="#ffffcc" stroke="black" points="3468,-131 3368,-131 3368,-95 3468,-95 3468,-131"/>
<text text-anchor="middle" x="3418" y="-109.9" font-family="Times Roman,serif" font-size="14.00">Basic Block 28</text>
</g>
<!-- Basic Block 27&#45;&gt;Basic Block 28 -->
<g id="edge92" class="edge"><title>Basic Block 27&#45;&gt;Basic Block 28</title>
<path fill="none" stroke="black" d="M3332.25,-130.023C3340.63,-128.36 3349.39,-126.621 3357.98,-124.916"/>
<polygon fill="black" stroke="black" points="3358.82,-128.316 3367.95,-122.936 3357.46,-121.45 3358.82,-128.316"/>
</g>
<!-- Basic Block 27&#45;&gt;Basic Block 29 -->
<g id="edge90" class="edge"><title>Basic Block 27&#45;&gt;Basic Block 29</title>
<path fill="none" stroke="black" d="M3332.23,-140.701C3387.91,-141.316 3480.39,-141.85 3560,-140 3568.38,-139.805 3577.21,-139.504 3585.9,-139.152"/>
<polygon fill="black" stroke="black" points="3586.15,-142.645 3595.99,-138.719 3585.85,-135.651 3586.15,-142.645"/>
</g>
<!-- Addr 7 -->
<g id="node36" class="node"><title>Addr 7</title>
<polygon fill="lightgrey" stroke="black" points="3559,-131 3505,-131 3505,-95 3559,-95 3559,-131"/>
<text text-anchor="middle" x="3532" y="-109.9" font-family="Times Roman,serif" font-size="14.00">Addr 7</text>
</g>
<!-- Basic Block 28&#45;&gt;Addr 7 -->
<g id="edge94" class="edge"><title>Basic Block 28&#45;&gt;Addr 7</title>
<path fill="none" stroke="black" d="M3468,-113C3476.75,-113 3485.72,-113 3494.08,-113"/>
<polygon fill="black" stroke="black" points="3494.27,-116.5 3504.27,-113 3494.27,-109.5 3494.27,-116.5"/>
</g>
<!-- Addr 8 -->
<g id="node37" class="node"><title>Addr 8</title>
<polygon fill="lightgrey" stroke="black" points="3787,-154 3733,-154 3733,-118 3787,-118 3787,-154"/>
<text text-anchor="middle" x="3760" y="-132.9" font-family="Times Roman,serif" font-size="14.00">Addr 8</text>
</g>
<!-- Basic Block 29&#45;&gt;Addr 8 -->
<g id="edge98" class="edge"><title>Basic Block 29&#45;&gt;Addr 8</title>
<path fill="none" stroke="black" d="M3696,-136C3704.75,-136 3713.72,-136 3722.08,-136"/>
<polygon fill="black" stroke="black" points="3722.27,-139.5 3732.27,-136 3722.27,-132.5 3722.27,-139.5"/>
</g>
<!-- Addr 1&#45;&gt;Basic Block 7 -->
<g id="edge20" class="edge"><title>Addr 1&#45;&gt;Basic Block 7</title>
<path fill="none" stroke="black" d="M727.558,-114C741.609,-114 759.241,-114 776.044,-114"/>
<polygon fill="black" stroke="black" points="776.359,-117.5 786.359,-114 776.359,-110.5 776.359,-117.5"/>
</g>
<!-- Addr 2&#45;&gt;Basic Block 14 -->
<g id="edge40" class="edge"><title>Addr 2&#45;&gt;Basic Block 14</title>
<path fill="none" stroke="black" d="M1401.52,-22C1415.41,-22 1432.83,-22 1449.62,-22"/>
<polygon fill="black" stroke="black" points="1449.96,-25.5001 1459.96,-22 1449.96,-18.5001 1449.96,-25.5001"/>
</g>
<!-- Addr 3&#45;&gt;Basic Block 16 -->
<g id="edge48" class="edge"><title>Addr 3&#45;&gt;Basic Block 16</title>
<path fill="none" stroke="black" d="M1787.6,-38.8732C1795.63,-40.0006 1804.74,-41.2787 1813.95,-42.5717"/>
<polygon fill="black" stroke="black" points="1813.55,-46.0502 1823.94,-43.9742 1814.52,-39.1182 1813.55,-46.0502"/>
</g>
<!-- Addr 4&#45;&gt;Basic Block 18 -->
<g id="edge54" class="edge"><title>Addr 4&#45;&gt;Basic Block 18</title>
<path fill="none" stroke="black" d="M1129.58,-158.783C1172.51,-156.889 1256.37,-153.19 1313.77,-150.657"/>
<polygon fill="black" stroke="black" points="1313.97,-154.152 1323.81,-150.214 1313.66,-147.159 1313.97,-154.152"/>
</g>
<!-- Addr 5&#45;&gt;Basic Block 24 -->
<g id="edge76" class="edge"><title>Addr 5&#45;&gt;Basic Block 24</title>
<path fill="none" stroke="black" d="M2695.6,-105.135C2705.38,-109.082 2716.75,-113.671 2727.97,-118.198"/>
<polygon fill="black" stroke="black" points="2726.73,-121.474 2737.32,-121.97 2729.35,-114.982 2726.73,-121.474"/>
</g>
<!-- Addr 6&#45;&gt;Basic Block 27 -->
<g id="edge88" class="edge"><title>Addr 6&#45;&gt;Basic Block 27</title>
<path fill="none" stroke="black" d="M3195.6,-105.135C3205.38,-109.082 3216.75,-113.671 3227.97,-118.198"/>
<polygon fill="black" stroke="black" points="3226.73,-121.474 3237.32,-121.97 3229.35,-114.982 3226.73,-121.474"/>
</g>
<!-- Addr 7&#45;&gt;Basic Block 29 -->
<g id="edge96" class="edge"><title>Addr 7&#45;&gt;Basic Block 29</title>
<path fill="none" stroke="black" d="M3559.6,-118.568C3567.63,-120.188 3576.74,-122.026 3585.95,-123.884"/>
<polygon fill="black" stroke="black" points="3585.45,-127.353 3595.94,-125.9 3586.83,-120.492 3585.45,-127.353"/>
</g>
</g>
</svg>
