<?xml version="1.0" encoding="UTF-8" standalone="no"?>
<!DOCTYPE svg PUBLIC "-//W3C//DTD SVG 1.1//EN"
 "http://www.w3.org/Graphics/SVG/1.1/DTD/svg11.dtd">
<!-- Generated by graphviz version 2.26.0 (20091210.2329)
 -->
<!-- Title: acc_char_cmp Pages: 1 -->
<svg width="194pt" height="44pt"
 viewBox="0.00 0.00 194.00 44.00" xmlns="http://www.w3.org/2000/svg" xmlns:xlink="http://www.w3.org/1999/xlink">
<g id="graph1" class="graph" transform="scale(1 1) rotate(0) translate(4 40)">
<title>acc_char_cmp</title>
<polygon fill="white" stroke="white" points="-4,5 -4,-40 191,-40 191,5 -4,5"/>
<!-- Basic Block 1 -->
<g id="node1" class="node"><title>Basic Block 1</title>
<polygon fill="#800026" stroke="black" points="93,-36 1,-36 1,-1.77636e-14 93,-3.55271e-15 93,-36"/>
<text text-anchor="middle" x="47" y="-14.9" font-family="Times Roman,serif" font-size="14.00">Basic Block 1</text>
</g>
<!-- Addr 1 -->
<g id="node2" class="node"><title>Addr 1</title>
<polygon fill="lightgrey" stroke="black" points="185,-36 131,-36 131,-1.77636e-14 185,-3.55271e-15 185,-36"/>
<text text-anchor="middle" x="158" y="-14.9" font-family="Times Roman,serif" font-size="14.00">Addr 1</text>
</g>
<!-- Basic Block 1&#45;&gt;Addr 1 -->
<g id="edge2" class="edge"><title>Basic Block 1&#45;&gt;Addr 1</title>
<path fill="none" stroke="black" d="M93.7523,-18C102.598,-18 111.748,-18 120.272,-18"/>
<polygon fill="black" stroke="black" points="120.298,-21.5001 130.298,-18 120.298,-14.5001 120.298,-21.5001"/>
</g>
</g>
</svg>
