<?xml version="1.0" encoding="UTF-8" standalone="no"?>
<!DOCTYPE svg PUBLIC "-//W3C//DTD SVG 1.1//EN"
 "http://www.w3.org/Graphics/SVG/1.1/DTD/svg11.dtd">
<!-- Generated by graphviz version 2.26.0 (20091210.2329)
 -->
<!-- Title: preprocess_constraints Pages: 1 -->
<svg width="3728pt" height="774pt"
 viewBox="0.00 0.00 3728.00 774.00" xmlns="http://www.w3.org/2000/svg" xmlns:xlink="http://www.w3.org/1999/xlink">
<g id="graph1" class="graph" transform="scale(1 1) rotate(0) translate(4 770)">
<title>preprocess_constraints</title>
<polygon fill="white" stroke="white" points="-4,5 -4,-770 3725,-770 3725,5 -4,5"/>
<!-- Basic Block 1 -->
<g id="node1" class="node"><title>Basic Block 1</title>
<polygon fill="#ffffcc" stroke="black" points="93,-342 1,-342 1,-306 93,-306 93,-342"/>
<text text-anchor="middle" x="47" y="-320.9" font-family="Times Roman,serif" font-size="14.00">Basic Block 1</text>
</g>
<!-- Basic Block 4 -->
<g id="node4" class="node"><title>Basic Block 4</title>
<polygon fill="#ffffcc" stroke="black" points="223,-342 131,-342 131,-306 223,-306 223,-342"/>
<text text-anchor="middle" x="177" y="-320.9" font-family="Times Roman,serif" font-size="14.00">Basic Block 4</text>
</g>
<!-- Basic Block 1&#45;&gt;Basic Block 4 -->
<g id="edge2" class="edge"><title>Basic Block 1&#45;&gt;Basic Block 4</title>
<path fill="none" stroke="black" d="M93.5658,-324C102.154,-324 111.21,-324 120.063,-324"/>
<polygon fill="black" stroke="black" points="120.322,-327.5 130.322,-324 120.322,-320.5 120.322,-327.5"/>
</g>
<!-- Basic Block 2 -->
<g id="node2" class="node"><title>Basic Block 2</title>
<polygon fill="#ffffcc" stroke="black" points="353,-342 261,-342 261,-306 353,-306 353,-342"/>
<text text-anchor="middle" x="307" y="-320.9" font-family="Times Roman,serif" font-size="14.00">Basic Block 2</text>
</g>
<!-- Addr 1 -->
<g id="node53" class="node"><title>Addr 1</title>
<polygon fill="lightgrey" stroke="black" points="467,-342 413,-342 413,-306 467,-306 467,-342"/>
<text text-anchor="middle" x="440" y="-320.9" font-family="Times Roman,serif" font-size="14.00">Addr 1</text>
</g>
<!-- Basic Block 2&#45;&gt;Addr 1 -->
<g id="edge4" class="edge"><title>Basic Block 2&#45;&gt;Addr 1</title>
<path fill="none" stroke="black" d="M353.517,-324C369.463,-324 387.099,-324 402.264,-324"/>
<polygon fill="black" stroke="black" points="402.316,-327.5 412.316,-324 402.316,-320.5 402.316,-327.5"/>
</g>
<!-- Basic Block 3 -->
<g id="node3" class="node"><title>Basic Block 3</title>
<polygon fill="#ffffcc" stroke="black" points="622,-384 530,-384 530,-348 622,-348 622,-384"/>
<text text-anchor="middle" x="576" y="-362.9" font-family="Times Roman,serif" font-size="14.00">Basic Block 3</text>
</g>
<!-- Basic Block 3&#45;&gt;Basic Block 4 -->
<g id="edge8" class="edge"><title>Basic Block 3&#45;&gt;Basic Block 4</title>
<path fill="none" stroke="black" d="M529.242,-367.646C467.174,-368.955 354.41,-368.274 260,-351 251.336,-349.415 242.328,-347.157 233.578,-344.615"/>
<polygon fill="black" stroke="black" points="234.427,-341.215 223.841,-341.644 232.384,-347.91 234.427,-341.215"/>
</g>
<!-- Basic Block 4&#45;&gt;Basic Block 2 -->
<g id="edge10" class="edge"><title>Basic Block 4&#45;&gt;Basic Block 2</title>
<path fill="none" stroke="black" d="M223.566,-324C232.154,-324 241.21,-324 250.063,-324"/>
<polygon fill="black" stroke="black" points="250.322,-327.5 260.322,-324 250.322,-320.5 250.322,-327.5"/>
</g>
<!-- Basic Block 5 -->
<g id="node5" class="node"><title>Basic Block 5</title>
<polygon fill="#ffffcc" stroke="black" points="353,-288 261,-288 261,-252 353,-252 353,-288"/>
<text text-anchor="middle" x="307" y="-266.9" font-family="Times Roman,serif" font-size="14.00">Basic Block 5</text>
</g>
<!-- Basic Block 4&#45;&gt;Basic Block 5 -->
<g id="edge12" class="edge"><title>Basic Block 4&#45;&gt;Basic Block 5</title>
<path fill="none" stroke="black" d="M220.65,-305.869C231.261,-301.461 242.727,-296.698 253.728,-292.128"/>
<polygon fill="black" stroke="black" points="255.352,-295.244 263.244,-288.176 252.667,-288.779 255.352,-295.244"/>
</g>
<!-- Basic Block 51 -->
<g id="node51" class="node"><title>Basic Block 51</title>
<polygon fill="#ffffcc" stroke="black" points="490,-288 390,-288 390,-252 490,-252 490,-288"/>
<text text-anchor="middle" x="440" y="-266.9" font-family="Times Roman,serif" font-size="14.00">Basic Block 51</text>
</g>
<!-- Basic Block 5&#45;&gt;Basic Block 51 -->
<g id="edge14" class="edge"><title>Basic Block 5&#45;&gt;Basic Block 51</title>
<path fill="none" stroke="black" d="M353.517,-270C361.916,-270 370.784,-270 379.513,-270"/>
<polygon fill="black" stroke="black" points="379.659,-273.5 389.659,-270 379.659,-266.5 379.659,-273.5"/>
</g>
<!-- Basic Block 6 -->
<g id="node6" class="node"><title>Basic Block 6</title>
<polygon fill="#ffffcc" stroke="black" points="622,-288 530,-288 530,-252 622,-252 622,-288"/>
<text text-anchor="middle" x="576" y="-266.9" font-family="Times Roman,serif" font-size="14.00">Basic Block 6</text>
</g>
<!-- Basic Block 49 -->
<g id="node49" class="node"><title>Basic Block 49</title>
<polygon fill="#ffffcc" stroke="black" points="762,-288 662,-288 662,-252 762,-252 762,-288"/>
<text text-anchor="middle" x="712" y="-266.9" font-family="Times Roman,serif" font-size="14.00">Basic Block 49</text>
</g>
<!-- Basic Block 6&#45;&gt;Basic Block 49 -->
<g id="edge16" class="edge"><title>Basic Block 6&#45;&gt;Basic Block 49</title>
<path fill="none" stroke="black" d="M622.803,-270C632.156,-270 642.103,-270 651.832,-270"/>
<polygon fill="black" stroke="black" points="651.86,-273.5 661.86,-270 651.86,-266.5 651.86,-273.5"/>
</g>
<!-- Basic Block 7 -->
<g id="node7" class="node"><title>Basic Block 7</title>
<polygon fill="#800026" stroke="black" points="894,-219 802,-219 802,-183 894,-183 894,-219"/>
<text text-anchor="middle" x="848" y="-197.9" font-family="Times Roman,serif" font-size="14.00">Basic Block 7</text>
</g>
<!-- Basic Block 8 -->
<g id="node8" class="node"><title>Basic Block 8</title>
<polygon fill="#ffffcc" stroke="black" points="1030,-165 938,-165 938,-129 1030,-129 1030,-165"/>
<text text-anchor="middle" x="984" y="-143.9" font-family="Times Roman,serif" font-size="14.00">Basic Block 8</text>
</g>
<!-- Basic Block 7&#45;&gt;Basic Block 8 -->
<g id="edge20" class="edge"><title>Basic Block 7&#45;&gt;Basic Block 8</title>
<path fill="none" stroke="black" d="M893.664,-182.869C904.878,-178.416 917.003,-173.602 928.618,-168.99"/>
<polygon fill="black" stroke="black" points="930.222,-172.119 938.225,-165.176 927.639,-165.613 930.222,-172.119"/>
</g>
<!-- Basic Block 10 -->
<g id="node10" class="node"><title>Basic Block 10</title>
<polygon fill="#ffffcc" stroke="black" points="1034,-219 934,-219 934,-183 1034,-183 1034,-219"/>
<text text-anchor="middle" x="984" y="-197.9" font-family="Times Roman,serif" font-size="14.00">Basic Block 10</text>
</g>
<!-- Basic Block 7&#45;&gt;Basic Block 10 -->
<g id="edge18" class="edge"><title>Basic Block 7&#45;&gt;Basic Block 10</title>
<path fill="none" stroke="black" d="M894.803,-201C904.156,-201 914.103,-201 923.832,-201"/>
<polygon fill="black" stroke="black" points="923.86,-204.5 933.86,-201 923.86,-197.5 923.86,-204.5"/>
</g>
<!-- Addr 2 -->
<g id="node54" class="node"><title>Addr 2</title>
<polygon fill="lightgrey" stroke="black" points="1147,-146 1093,-146 1093,-110 1147,-110 1147,-146"/>
<text text-anchor="middle" x="1120" y="-124.9" font-family="Times Roman,serif" font-size="14.00">Addr 2</text>
</g>
<!-- Basic Block 8&#45;&gt;Addr 2 -->
<g id="edge22" class="edge"><title>Basic Block 8&#45;&gt;Addr 2</title>
<path fill="none" stroke="black" d="M1030.8,-140.461C1047.57,-138.119 1066.25,-135.51 1082.16,-133.287"/>
<polygon fill="black" stroke="black" points="1082.75,-136.738 1092.17,-131.888 1081.78,-129.806 1082.75,-136.738"/>
</g>
<!-- Basic Block 9 -->
<g id="node9" class="node"><title>Basic Block 9</title>
<polygon fill="#ffffcc" stroke="black" points="1438,-36 1346,-36 1346,-1.77636e-14 1438,-3.55271e-15 1438,-36"/>
<text text-anchor="middle" x="1392" y="-14.9" font-family="Times Roman,serif" font-size="14.00">Basic Block 9</text>
</g>
<!-- Basic Block 48 -->
<g id="node48" class="node"><title>Basic Block 48</title>
<polygon fill="#ffffcc" stroke="black" points="2122,-256 2022,-256 2022,-220 2122,-220 2122,-256"/>
<text text-anchor="middle" x="2072" y="-234.9" font-family="Times Roman,serif" font-size="14.00">Basic Block 48</text>
</g>
<!-- Basic Block 9&#45;&gt;Basic Block 48 -->
<g id="edge26" class="edge"><title>Basic Block 9&#45;&gt;Basic Block 48</title>
<path fill="none" stroke="black" d="M1438.66,-25.8289C1476.3,-32.1919 1530.59,-41.4782 1578,-50 1669.72,-66.4883 1914.26,-87.5149 1986,-147 2011.12,-167.831 1998.72,-188.123 2022,-211 2022.93,-211.914 2023.9,-212.806 2024.9,-213.675"/>
<polygon fill="black" stroke="black" points="2022.98,-216.613 2033.05,-219.895 2027.22,-211.047 2022.98,-216.613"/>
</g>
<!-- Basic Block 11 -->
<g id="node11" class="node"><title>Basic Block 11</title>
<polygon fill="#ffffcc" stroke="black" points="1170,-200 1070,-200 1070,-164 1170,-164 1170,-200"/>
<text text-anchor="middle" x="1120" y="-178.9" font-family="Times Roman,serif" font-size="14.00">Basic Block 11</text>
</g>
<!-- Basic Block 10&#45;&gt;Basic Block 11 -->
<g id="edge30" class="edge"><title>Basic Block 10&#45;&gt;Basic Block 11</title>
<path fill="none" stroke="black" d="M1034.25,-193.979C1042.63,-192.809 1051.39,-191.585 1059.98,-190.385"/>
<polygon fill="black" stroke="black" points="1060.53,-193.842 1069.95,-188.992 1059.56,-186.909 1060.53,-193.842"/>
</g>
<!-- Basic Block 12 -->
<g id="node12" class="node"><title>Basic Block 12</title>
<polygon fill="#ffffcc" stroke="black" points="1306,-242 1206,-242 1206,-206 1306,-206 1306,-242"/>
<text text-anchor="middle" x="1256" y="-220.9" font-family="Times Roman,serif" font-size="14.00">Basic Block 12</text>
</g>
<!-- Basic Block 10&#45;&gt;Basic Block 12 -->
<g id="edge28" class="edge"><title>Basic Block 10&#45;&gt;Basic Block 12</title>
<path fill="none" stroke="black" d="M1034.01,-205.757C1045.81,-206.85 1058.35,-207.988 1070,-209 1112.04,-212.65 1159.45,-216.469 1195.89,-219.34"/>
<polygon fill="black" stroke="black" points="1195.61,-222.83 1205.86,-220.124 1196.16,-215.851 1195.61,-222.83"/>
</g>
<!-- Basic Block 11&#45;&gt;Basic Block 12 -->
<g id="edge34" class="edge"><title>Basic Block 11&#45;&gt;Basic Block 12</title>
<path fill="none" stroke="black" d="M1170.25,-197.52C1178.72,-200.135 1187.58,-202.871 1196.26,-205.551"/>
<polygon fill="black" stroke="black" points="1195.36,-208.937 1205.95,-208.544 1197.43,-202.249 1195.36,-208.937"/>
</g>
<!-- Basic Block 13 -->
<g id="node13" class="node"><title>Basic Block 13</title>
<polygon fill="#800026" stroke="black" points="1306,-120 1206,-120 1206,-84 1306,-84 1306,-120"/>
<text text-anchor="middle" x="1256" y="-98.9" font-family="Times Roman,serif" font-size="14.00">Basic Block 13</text>
</g>
<!-- Basic Block 11&#45;&gt;Basic Block 13 -->
<g id="edge32" class="edge"><title>Basic Block 11&#45;&gt;Basic Block 13</title>
<path fill="none" stroke="black" d="M1154.03,-163.96C1159.4,-161.016 1164.87,-157.96 1170,-155 1186.25,-145.615 1203.94,-134.816 1219.03,-125.425"/>
<polygon fill="black" stroke="black" points="1220.96,-128.348 1227.58,-120.08 1217.25,-122.412 1220.96,-128.348"/>
</g>
<!-- Basic Block 12&#45;&gt;Basic Block 48 -->
<g id="edge36" class="edge"><title>Basic Block 12&#45;&gt;Basic Block 48</title>
<path fill="none" stroke="black" d="M1306.12,-226.357C1360.68,-228.717 1450.52,-232 1528,-232 1528,-232 1528,-232 1800,-232 1872.77,-232 1956.47,-234.173 2011.59,-235.904"/>
<polygon fill="black" stroke="black" points="2011.77,-239.411 2021.88,-236.232 2011.99,-232.415 2011.77,-239.411"/>
</g>
<!-- Basic Block 14 -->
<g id="node14" class="node"><title>Basic Block 14</title>
<polygon fill="#ffffcc" stroke="black" points="1442,-185 1342,-185 1342,-149 1442,-149 1442,-185"/>
<text text-anchor="middle" x="1392" y="-163.9" font-family="Times Roman,serif" font-size="14.00">Basic Block 14</text>
</g>
<!-- Basic Block 13&#45;&gt;Basic Block 14 -->
<g id="edge40" class="edge"><title>Basic Block 13&#45;&gt;Basic Block 14</title>
<path fill="none" stroke="black" d="M1293.88,-120.106C1309.8,-127.713 1328.47,-136.638 1345.23,-144.649"/>
<polygon fill="black" stroke="black" points="1343.79,-147.837 1354.32,-148.991 1346.81,-141.521 1343.79,-147.837"/>
</g>
<!-- Basic Block 16 -->
<g id="node16" class="node"><title>Basic Block 16</title>
<polygon fill="#ffffcc" stroke="black" points="1714,-158 1614,-158 1614,-122 1714,-122 1714,-158"/>
<text text-anchor="middle" x="1664" y="-136.9" font-family="Times Roman,serif" font-size="14.00">Basic Block 16</text>
</g>
<!-- Basic Block 13&#45;&gt;Basic Block 16 -->
<g id="edge38" class="edge"><title>Basic Block 13&#45;&gt;Basic Block 16</title>
<path fill="none" stroke="black" d="M1306.03,-106.66C1381.23,-113.663 1523.15,-126.882 1603.87,-134.4"/>
<polygon fill="black" stroke="black" points="1603.6,-137.89 1613.88,-135.332 1604.25,-130.92 1603.6,-137.89"/>
</g>
<!-- Basic Block 15 -->
<g id="node15" class="node"><title>Basic Block 15</title>
<polygon fill="#ffffcc" stroke="black" points="1578,-204 1478,-204 1478,-168 1578,-168 1578,-204"/>
<text text-anchor="middle" x="1528" y="-182.9" font-family="Times Roman,serif" font-size="14.00">Basic Block 15</text>
</g>
<!-- Basic Block 14&#45;&gt;Basic Block 15 -->
<g id="edge44" class="edge"><title>Basic Block 14&#45;&gt;Basic Block 15</title>
<path fill="none" stroke="black" d="M1442.25,-167.479C1450.63,-168.449 1459.39,-169.617 1467.98,-170.907"/>
<polygon fill="black" stroke="black" points="1467.53,-174.378 1477.95,-172.471 1468.62,-167.463 1467.53,-174.378"/>
</g>
<!-- Basic Block 14&#45;&gt;Basic Block 16 -->
<g id="edge42" class="edge"><title>Basic Block 14&#45;&gt;Basic Block 16</title>
<path fill="none" stroke="black" d="M1442.21,-162.016C1487.78,-157.493 1555.07,-150.813 1603.58,-145.998"/>
<polygon fill="black" stroke="black" points="1604.02,-149.471 1613.63,-145 1603.33,-142.505 1604.02,-149.471"/>
</g>
<!-- Basic Block 15&#45;&gt;Basic Block 14 -->
<g id="edge46" class="edge"><title>Basic Block 15&#45;&gt;Basic Block 14</title>
<path fill="none" stroke="black" d="M1477.95,-185.544C1469.58,-184.579 1460.82,-183.413 1452.23,-182.125"/>
<polygon fill="black" stroke="black" points="1452.68,-178.652 1442.25,-180.562 1451.59,-185.568 1452.68,-178.652"/>
</g>
<!-- Basic Block 15&#45;&gt;Basic Block 16 -->
<g id="edge48" class="edge"><title>Basic Block 15&#45;&gt;Basic Block 16</title>
<path fill="none" stroke="black" d="M1578.25,-169.002C1586.72,-166.138 1595.58,-163.141 1604.26,-160.206"/>
<polygon fill="black" stroke="black" points="1605.6,-163.448 1613.95,-156.928 1603.36,-156.817 1605.6,-163.448"/>
</g>
<!-- Basic Block 17 -->
<g id="node17" class="node"><title>Basic Block 17</title>
<polygon fill="#ffeda0" stroke="black" points="1850,-146 1750,-146 1750,-110 1850,-110 1850,-146"/>
<text text-anchor="middle" x="1800" y="-124.9" font-family="Times Roman,serif" font-size="14.00">Basic Block 17</text>
</g>
<!-- Basic Block 16&#45;&gt;Basic Block 17 -->
<g id="edge52" class="edge"><title>Basic Block 16&#45;&gt;Basic Block 17</title>
<path fill="none" stroke="black" d="M1714.25,-135.566C1722.63,-134.827 1731.39,-134.054 1739.98,-133.296"/>
<polygon fill="black" stroke="black" points="1740.3,-136.782 1749.95,-132.416 1739.68,-129.809 1740.3,-136.782"/>
</g>
<!-- Basic Block 18 -->
<g id="node18" class="node"><title>Basic Block 18</title>
<polygon fill="#ffeda0" stroke="black" points="1986,-192 1886,-192 1886,-156 1986,-156 1986,-192"/>
<text text-anchor="middle" x="1936" y="-170.9" font-family="Times Roman,serif" font-size="14.00">Basic Block 18</text>
</g>
<!-- Basic Block 16&#45;&gt;Basic Block 18 -->
<g id="edge50" class="edge"><title>Basic Block 16&#45;&gt;Basic Block 18</title>
<path fill="none" stroke="black" d="M1714.38,-149.403C1726.05,-151.41 1738.44,-153.403 1750,-155 1791.88,-160.784 1839.3,-165.601 1875.77,-168.938"/>
<polygon fill="black" stroke="black" points="1875.48,-172.426 1885.76,-169.839 1876.11,-165.454 1875.48,-172.426"/>
</g>
<!-- Basic Block 17&#45;&gt;Basic Block 18 -->
<g id="edge56" class="edge"><title>Basic Block 17&#45;&gt;Basic Block 18</title>
<path fill="none" stroke="black" d="M1850.25,-144.998C1858.72,-147.862 1867.58,-150.859 1876.26,-153.794"/>
<polygon fill="black" stroke="black" points="1875.36,-157.183 1885.95,-157.072 1877.6,-150.552 1875.36,-157.183"/>
</g>
<!-- Basic Block 19 -->
<g id="node19" class="node"><title>Basic Block 19</title>
<polygon fill="#ffffcc" stroke="black" points="1986,-94 1886,-94 1886,-58 1986,-58 1986,-94"/>
<text text-anchor="middle" x="1936" y="-72.9" font-family="Times Roman,serif" font-size="14.00">Basic Block 19</text>
</g>
<!-- Basic Block 17&#45;&gt;Basic Block 19 -->
<g id="edge54" class="edge"><title>Basic Block 17&#45;&gt;Basic Block 19</title>
<path fill="none" stroke="black" d="M1847.18,-109.959C1857.52,-106.006 1868.57,-101.782 1879.24,-97.7027"/>
<polygon fill="black" stroke="black" points="1880.81,-100.85 1888.9,-94.0092 1878.31,-94.3115 1880.81,-100.85"/>
</g>
<!-- Basic Block 18&#45;&gt;Basic Block 48 -->
<g id="edge58" class="edge"><title>Basic Block 18&#45;&gt;Basic Block 48</title>
<path fill="none" stroke="black" d="M1974.61,-192.169C1989.97,-199.397 2007.81,-207.792 2023.99,-215.407"/>
<polygon fill="black" stroke="black" points="2022.76,-218.695 2033.3,-219.786 2025.74,-212.361 2022.76,-218.695"/>
</g>
<!-- Basic Block 20 -->
<g id="node20" class="node"><title>Basic Block 20</title>
<polygon fill="#fed976" stroke="black" points="2122,-94 2022,-94 2022,-58 2122,-58 2122,-94"/>
<text text-anchor="middle" x="2072" y="-72.9" font-family="Times Roman,serif" font-size="14.00">Basic Block 20</text>
</g>
<!-- Basic Block 19&#45;&gt;Basic Block 20 -->
<g id="edge62" class="edge"><title>Basic Block 19&#45;&gt;Basic Block 20</title>
<path fill="none" stroke="black" d="M1986.25,-76C1994.54,-76 2003.2,-76 2011.7,-76"/>
<polygon fill="black" stroke="black" points="2011.95,-79.5001 2021.95,-76 2011.95,-72.5001 2011.95,-79.5001"/>
</g>
<!-- Basic Block 35 -->
<g id="node35" class="node"><title>Basic Block 35</title>
<polygon fill="#ffffcc" stroke="black" points="2122,-148 2022,-148 2022,-112 2122,-112 2122,-148"/>
<text text-anchor="middle" x="2072" y="-126.9" font-family="Times Roman,serif" font-size="14.00">Basic Block 35</text>
</g>
<!-- Basic Block 19&#45;&gt;Basic Block 35 -->
<g id="edge60" class="edge"><title>Basic Block 19&#45;&gt;Basic Block 35</title>
<path fill="none" stroke="black" d="M1981.66,-94.1314C1992.88,-98.5838 2005,-103.398 2016.62,-108.01"/>
<polygon fill="black" stroke="black" points="2015.64,-111.387 2026.22,-111.824 2018.22,-104.881 2015.64,-111.387"/>
</g>
<!-- Addr 3 -->
<g id="node55" class="node"><title>Addr 3</title>
<polygon fill="lightgrey" stroke="black" points="2235,-121 2181,-121 2181,-85 2235,-85 2235,-121"/>
<text text-anchor="middle" x="2208" y="-99.9" font-family="Times Roman,serif" font-size="14.00">Addr 3</text>
</g>
<!-- Basic Block 20&#45;&gt;Addr 3 -->
<g id="edge64" class="edge"><title>Basic Block 20&#45;&gt;Addr 3</title>
<path fill="none" stroke="black" d="M2122.25,-85.9771C2138.24,-89.1505 2155.63,-92.6032 2170.55,-95.5644"/>
<polygon fill="black" stroke="black" points="2169.94,-99.0121 2180.43,-97.5265 2171.3,-92.1461 2169.94,-99.0121"/>
</g>
<!-- Basic Block 21 -->
<g id="node21" class="node"><title>Basic Block 21</title>
<polygon fill="#ffffcc" stroke="black" points="2486,-349 2386,-349 2386,-313 2486,-313 2486,-349"/>
<text text-anchor="middle" x="2436" y="-327.9" font-family="Times Roman,serif" font-size="14.00">Basic Block 21</text>
</g>
<!-- Basic Block 46 -->
<g id="node46" class="node"><title>Basic Block 46</title>
<polygon fill="#ffeda0" stroke="black" points="3486,-418 3386,-418 3386,-382 3486,-382 3486,-418"/>
<text text-anchor="middle" x="3436" y="-396.9" font-family="Times Roman,serif" font-size="14.00">Basic Block 46</text>
</g>
<!-- Basic Block 21&#45;&gt;Basic Block 46 -->
<g id="edge68" class="edge"><title>Basic Block 21&#45;&gt;Basic Block 46</title>
<path fill="none" stroke="black" d="M2441.11,-349.175C2459.64,-410.8 2529.46,-608 2664,-608 2664,-608 2664,-608 3164,-608 3247.1,-608 3282.5,-637.47 3350,-589 3403.58,-550.521 3424.5,-470.481 3432.08,-427.959"/>
<polygon fill="black" stroke="black" points="3435.55,-428.442 3433.73,-418.004 3428.64,-427.297 3435.55,-428.442"/>
</g>
<!-- Basic Block 22 -->
<g id="node22" class="node"><title>Basic Block 22</title>
<polygon fill="#ffffcc" stroke="black" points="3350,-580 3250,-580 3250,-544 3350,-544 3350,-580"/>
<text text-anchor="middle" x="3300" y="-558.9" font-family="Times Roman,serif" font-size="14.00">Basic Block 22</text>
</g>
<!-- Basic Block 22&#45;&gt;Basic Block 46 -->
<g id="edge70" class="edge"><title>Basic Block 22&#45;&gt;Basic Block 46</title>
<path fill="none" stroke="black" d="M3338.52,-543.88C3342.61,-541.191 3346.53,-538.226 3350,-535 3383.45,-503.878 3409.41,-457.047 3423.7,-427.523"/>
<polygon fill="black" stroke="black" points="3426.99,-428.758 3428.09,-418.221 3420.66,-425.769 3426.99,-428.758"/>
</g>
<!-- Basic Block 23 -->
<g id="node23" class="node"><title>Basic Block 23</title>
<polygon fill="#ffffcc" stroke="black" points="3350,-526 3250,-526 3250,-490 3350,-490 3350,-526"/>
<text text-anchor="middle" x="3300" y="-504.9" font-family="Times Roman,serif" font-size="14.00">Basic Block 23</text>
</g>
<!-- Basic Block 23&#45;&gt;Basic Block 46 -->
<g id="edge72" class="edge"><title>Basic Block 23&#45;&gt;Basic Block 46</title>
<path fill="none" stroke="black" d="M3336.2,-489.922C3340.96,-487.122 3345.68,-484.118 3350,-481 3372.79,-464.551 3395.82,-442.506 3412.3,-425.568"/>
<polygon fill="black" stroke="black" points="3414.99,-427.821 3419.39,-418.183 3409.94,-422.973 3414.99,-427.821"/>
</g>
<!-- Basic Block 24 -->
<g id="node24" class="node"><title>Basic Block 24</title>
<polygon fill="#ffffcc" stroke="black" points="898,-92 798,-92 798,-56 898,-56 898,-92"/>
<text text-anchor="middle" x="848" y="-70.9" font-family="Times Roman,serif" font-size="14.00">Basic Block 24</text>
</g>
<!-- Addr 4 -->
<g id="node56" class="node"><title>Addr 4</title>
<polygon fill="lightgrey" stroke="black" points="1011,-92 957,-92 957,-56 1011,-56 1011,-92"/>
<text text-anchor="middle" x="984" y="-70.9" font-family="Times Roman,serif" font-size="14.00">Addr 4</text>
</g>
<!-- Basic Block 24&#45;&gt;Addr 4 -->
<g id="edge74" class="edge"><title>Basic Block 24&#45;&gt;Addr 4</title>
<path fill="none" stroke="black" d="M898.255,-74C914.086,-74 931.296,-74 946.116,-74"/>
<polygon fill="black" stroke="black" points="946.43,-77.5001 956.43,-74 946.43,-70.5001 946.43,-77.5001"/>
</g>
<!-- Basic Block 25 -->
<g id="node25" class="node"><title>Basic Block 25</title>
<polygon fill="#ffffcc" stroke="black" points="1170,-92 1070,-92 1070,-56 1170,-56 1170,-92"/>
<text text-anchor="middle" x="1120" y="-70.9" font-family="Times Roman,serif" font-size="14.00">Basic Block 25</text>
</g>
<!-- Basic Block 25&#45;&gt;Basic Block 13 -->
<g id="edge78" class="edge"><title>Basic Block 25&#45;&gt;Basic Block 13</title>
<path fill="none" stroke="black" d="M1170.25,-84.3466C1178.63,-86.071 1187.39,-87.8748 1195.98,-89.6432"/>
<polygon fill="black" stroke="black" points="1195.45,-93.1074 1205.95,-91.6959 1196.86,-86.2512 1195.45,-93.1074"/>
</g>
<!-- Basic Block 26 -->
<g id="node26" class="node"><title>Basic Block 26</title>
<polygon fill="#ffeda0" stroke="black" points="3350,-472 3250,-472 3250,-436 3350,-436 3350,-472"/>
<text text-anchor="middle" x="3300" y="-450.9" font-family="Times Roman,serif" font-size="14.00">Basic Block 26</text>
</g>
<!-- Basic Block 26&#45;&gt;Basic Block 46 -->
<g id="edge80" class="edge"><title>Basic Block 26&#45;&gt;Basic Block 46</title>
<path fill="none" stroke="black" d="M3345.66,-435.869C3356.88,-431.416 3369,-426.602 3380.62,-421.99"/>
<polygon fill="black" stroke="black" points="3382.22,-425.119 3390.22,-418.176 3379.64,-418.613 3382.22,-425.119"/>
</g>
<!-- Basic Block 27 -->
<g id="node27" class="node"><title>Basic Block 27</title>
<polygon fill="#ffffcc" stroke="black" points="3350,-418 3250,-418 3250,-382 3350,-382 3350,-418"/>
<text text-anchor="middle" x="3300" y="-396.9" font-family="Times Roman,serif" font-size="14.00">Basic Block 27</text>
</g>
<!-- Basic Block 27&#45;&gt;Basic Block 46 -->
<g id="edge82" class="edge"><title>Basic Block 27&#45;&gt;Basic Block 46</title>
<path fill="none" stroke="black" d="M3350.25,-400C3358.54,-400 3367.2,-400 3375.7,-400"/>
<polygon fill="black" stroke="black" points="3375.95,-403.5 3385.95,-400 3375.95,-396.5 3375.95,-403.5"/>
</g>
<!-- Basic Block 28 -->
<g id="node28" class="node"><title>Basic Block 28</title>
<polygon fill="#ffffcc" stroke="black" points="3350,-364 3250,-364 3250,-328 3350,-328 3350,-364"/>
<text text-anchor="middle" x="3300" y="-342.9" font-family="Times Roman,serif" font-size="14.00">Basic Block 28</text>
</g>
<!-- Basic Block 28&#45;&gt;Basic Block 46 -->
<g id="edge84" class="edge"><title>Basic Block 28&#45;&gt;Basic Block 46</title>
<path fill="none" stroke="black" d="M3345.66,-364.131C3356.88,-368.584 3369,-373.398 3380.62,-378.01"/>
<polygon fill="black" stroke="black" points="3379.64,-381.387 3390.22,-381.824 3382.22,-374.881 3379.64,-381.387"/>
</g>
<!-- Basic Block 29 -->
<g id="node29" class="node"><title>Basic Block 29</title>
<polygon fill="#ffffcc" stroke="black" points="3350,-310 3250,-310 3250,-274 3350,-274 3350,-310"/>
<text text-anchor="middle" x="3300" y="-288.9" font-family="Times Roman,serif" font-size="14.00">Basic Block 29</text>
</g>
<!-- Basic Block 29&#45;&gt;Basic Block 46 -->
<g id="edge86" class="edge"><title>Basic Block 29&#45;&gt;Basic Block 46</title>
<path fill="none" stroke="black" d="M3336.2,-310.078C3340.96,-312.878 3345.68,-315.882 3350,-319 3372.79,-335.449 3395.82,-357.494 3412.3,-374.432"/>
<polygon fill="black" stroke="black" points="3409.94,-377.027 3419.39,-381.817 3414.99,-372.179 3409.94,-377.027"/>
</g>
<!-- Basic Block 30 -->
<g id="node30" class="node"><title>Basic Block 30</title>
<polygon fill="#ffffcc" stroke="black" points="3350,-256 3250,-256 3250,-220 3350,-220 3350,-256"/>
<text text-anchor="middle" x="3300" y="-234.9" font-family="Times Roman,serif" font-size="14.00">Basic Block 30</text>
</g>
<!-- Basic Block 30&#45;&gt;Basic Block 46 -->
<g id="edge88" class="edge"><title>Basic Block 30&#45;&gt;Basic Block 46</title>
<path fill="none" stroke="black" d="M3338.52,-256.12C3342.61,-258.809 3346.53,-261.774 3350,-265 3383.45,-296.122 3409.41,-342.953 3423.7,-372.477"/>
<polygon fill="black" stroke="black" points="3420.66,-374.231 3428.09,-381.779 3426.99,-371.242 3420.66,-374.231"/>
</g>
<!-- Basic Block 31 -->
<g id="node31" class="node"><title>Basic Block 31</title>
<polygon fill="#ffffcc" stroke="black" points="3350,-202 3250,-202 3250,-166 3350,-166 3350,-202"/>
<text text-anchor="middle" x="3300" y="-180.9" font-family="Times Roman,serif" font-size="14.00">Basic Block 31</text>
</g>
<!-- Basic Block 31&#45;&gt;Basic Block 46 -->
<g id="edge90" class="edge"><title>Basic Block 31&#45;&gt;Basic Block 46</title>
<path fill="none" stroke="black" d="M3339.48,-202.003C3343.3,-204.687 3346.9,-207.684 3350,-211 3394.16,-258.278 3418.67,-332.152 3429.38,-372.098"/>
<polygon fill="black" stroke="black" points="3426.03,-373.144 3431.92,-381.951 3432.81,-371.394 3426.03,-373.144"/>
</g>
<!-- Basic Block 32 -->
<g id="node32" class="node"><title>Basic Block 32</title>
<polygon fill="#ffffcc" stroke="black" points="3078,-148 2978,-148 2978,-112 3078,-112 3078,-148"/>
<text text-anchor="middle" x="3028" y="-126.9" font-family="Times Roman,serif" font-size="14.00">Basic Block 32</text>
</g>
<!-- Addr 5 -->
<g id="node57" class="node"><title>Addr 5</title>
<polygon fill="lightgrey" stroke="black" points="3191,-148 3137,-148 3137,-112 3191,-112 3191,-148"/>
<text text-anchor="middle" x="3164" y="-126.9" font-family="Times Roman,serif" font-size="14.00">Addr 5</text>
</g>
<!-- Basic Block 32&#45;&gt;Addr 5 -->
<g id="edge92" class="edge"><title>Basic Block 32&#45;&gt;Addr 5</title>
<path fill="none" stroke="black" d="M3078.25,-130C3094.09,-130 3111.3,-130 3126.12,-130"/>
<polygon fill="black" stroke="black" points="3126.43,-133.5 3136.43,-130 3126.43,-126.5 3126.43,-133.5"/>
</g>
<!-- Basic Block 33 -->
<g id="node33" class="node"><title>Basic Block 33</title>
<polygon fill="#ffffcc" stroke="black" points="3350,-148 3250,-148 3250,-112 3350,-112 3350,-148"/>
<text text-anchor="middle" x="3300" y="-126.9" font-family="Times Roman,serif" font-size="14.00">Basic Block 33</text>
</g>
<!-- Basic Block 33&#45;&gt;Basic Block 46 -->
<g id="edge96" class="edge"><title>Basic Block 33&#45;&gt;Basic Block 46</title>
<path fill="none" stroke="black" d="M3340.27,-148.097C3343.85,-150.74 3347.18,-153.702 3350,-157 3404.92,-221.165 3425.6,-322.79 3432.68,-371.77"/>
<polygon fill="black" stroke="black" points="3429.25,-372.503 3434.06,-381.941 3436.19,-371.561 3429.25,-372.503"/>
</g>
<!-- Basic Block 34 -->
<g id="node34" class="node"><title>Basic Block 34</title>
<polygon fill="#fed976" stroke="black" points="3350,-94 3250,-94 3250,-58 3350,-58 3350,-94"/>
<text text-anchor="middle" x="3300" y="-72.9" font-family="Times Roman,serif" font-size="14.00">Basic Block 34</text>
</g>
<!-- Basic Block 34&#45;&gt;Basic Block 46 -->
<g id="edge98" class="edge"><title>Basic Block 34&#45;&gt;Basic Block 46</title>
<path fill="none" stroke="black" d="M3340.95,-94.2973C3344.31,-96.8814 3347.4,-99.7749 3350,-103 3384.08,-145.251 3417.99,-306.105 3430.72,-371.799"/>
<polygon fill="black" stroke="black" points="3427.33,-372.687 3432.65,-381.849 3434.21,-371.369 3427.33,-372.687"/>
</g>
<!-- Basic Block 37 -->
<g id="node37" class="node"><title>Basic Block 37</title>
<polygon fill="#ffffcc" stroke="black" points="2258,-202 2158,-202 2158,-166 2258,-166 2258,-202"/>
<text text-anchor="middle" x="2208" y="-180.9" font-family="Times Roman,serif" font-size="14.00">Basic Block 37</text>
</g>
<!-- Basic Block 35&#45;&gt;Basic Block 37 -->
<g id="edge100" class="edge"><title>Basic Block 35&#45;&gt;Basic Block 37</title>
<path fill="none" stroke="black" d="M2117.66,-148.131C2128.88,-152.584 2141,-157.398 2152.62,-162.01"/>
<polygon fill="black" stroke="black" points="2151.64,-165.387 2162.22,-165.824 2154.22,-158.881 2151.64,-165.387"/>
</g>
<!-- Basic Block 36 -->
<g id="node36" class="node"><title>Basic Block 36</title>
<polygon fill="#ffffcc" stroke="black" points="2122,-202 2022,-202 2022,-166 2122,-166 2122,-202"/>
<text text-anchor="middle" x="2072" y="-180.9" font-family="Times Roman,serif" font-size="14.00">Basic Block 36</text>
</g>
<!-- Basic Block 36&#45;&gt;Basic Block 37 -->
<g id="edge102" class="edge"><title>Basic Block 36&#45;&gt;Basic Block 37</title>
<path fill="none" stroke="black" d="M2122.25,-184C2130.54,-184 2139.2,-184 2147.7,-184"/>
<polygon fill="black" stroke="black" points="2147.95,-187.5 2157.95,-184 2147.95,-180.5 2147.95,-187.5"/>
</g>
<!-- Addr 6 -->
<g id="node58" class="node"><title>Addr 6</title>
<polygon fill="lightgrey" stroke="black" points="2349,-319 2295,-319 2295,-283 2349,-283 2349,-319"/>
<text text-anchor="middle" x="2322" y="-297.9" font-family="Times Roman,serif" font-size="14.00">Addr 6</text>
</g>
<!-- Basic Block 37&#45;&gt;Addr 6 -->
<g id="edge104" class="edge"><title>Basic Block 37&#45;&gt;Addr 6</title>
<path fill="none" stroke="black" d="M2225.56,-202.025C2244.67,-221.635 2275.37,-253.147 2296.99,-275.337"/>
<polygon fill="black" stroke="black" points="2294.74,-278.042 2304.23,-282.762 2299.76,-273.157 2294.74,-278.042"/>
</g>
<!-- Basic Block 38 -->
<g id="node38" class="node"><title>Basic Block 38</title>
<polygon fill="#ffffcc" stroke="black" points="2486,-554 2386,-554 2386,-518 2486,-518 2486,-554"/>
<text text-anchor="middle" x="2436" y="-532.9" font-family="Times Roman,serif" font-size="14.00">Basic Block 38</text>
</g>
<!-- Addr 7 -->
<g id="node59" class="node"><title>Addr 7</title>
<polygon fill="lightgrey" stroke="black" points="2577,-672 2523,-672 2523,-636 2577,-636 2577,-672"/>
<text text-anchor="middle" x="2550" y="-650.9" font-family="Times Roman,serif" font-size="14.00">Addr 7</text>
</g>
<!-- Basic Block 38&#45;&gt;Addr 7 -->
<g id="edge108" class="edge"><title>Basic Block 38&#45;&gt;Addr 7</title>
<path fill="none" stroke="black" d="M2453.56,-554.179C2472.87,-574.159 2504,-606.39 2525.66,-628.802"/>
<polygon fill="black" stroke="black" points="2523.14,-631.234 2532.6,-635.994 2528.17,-626.37 2523.14,-631.234"/>
</g>
<!-- Basic Block 39 -->
<g id="node39" class="node"><title>Basic Block 39</title>
<polygon fill="#ffffcc" stroke="black" points="2714,-672 2614,-672 2614,-636 2714,-636 2714,-672"/>
<text text-anchor="middle" x="2664" y="-650.9" font-family="Times Roman,serif" font-size="14.00">Basic Block 39</text>
</g>
<!-- Basic Block 40 -->
<g id="node40" class="node"><title>Basic Block 40</title>
<polygon fill="#ffffcc" stroke="black" points="2850,-749 2750,-749 2750,-713 2850,-713 2850,-749"/>
<text text-anchor="middle" x="2800" y="-727.9" font-family="Times Roman,serif" font-size="14.00">Basic Block 40</text>
</g>
<!-- Basic Block 39&#45;&gt;Basic Block 40 -->
<g id="edge114" class="edge"><title>Basic Block 39&#45;&gt;Basic Block 40</title>
<path fill="none" stroke="black" d="M2695.89,-672.053C2714.76,-682.74 2738.87,-696.388 2759.13,-707.86"/>
<polygon fill="black" stroke="black" points="2757.42,-710.912 2767.84,-712.793 2760.86,-704.821 2757.42,-710.912"/>
</g>
<!-- Basic Block 42 -->
<g id="node42" class="node"><title>Basic Block 42</title>
<polygon fill="#ffeda0" stroke="black" points="2850,-672 2750,-672 2750,-636 2850,-636 2850,-672"/>
<text text-anchor="middle" x="2800" y="-650.9" font-family="Times Roman,serif" font-size="14.00">Basic Block 42</text>
</g>
<!-- Basic Block 39&#45;&gt;Basic Block 42 -->
<g id="edge112" class="edge"><title>Basic Block 39&#45;&gt;Basic Block 42</title>
<path fill="none" stroke="black" d="M2714.25,-654C2722.54,-654 2731.2,-654 2739.7,-654"/>
<polygon fill="black" stroke="black" points="2739.95,-657.5 2749.95,-654 2739.95,-650.5 2739.95,-657.5"/>
</g>
<!-- Addr 8 -->
<g id="node60" class="node"><title>Addr 8</title>
<polygon fill="lightgrey" stroke="black" points="2941,-749 2887,-749 2887,-713 2941,-713 2941,-749"/>
<text text-anchor="middle" x="2914" y="-727.9" font-family="Times Roman,serif" font-size="14.00">Addr 8</text>
</g>
<!-- Basic Block 40&#45;&gt;Addr 8 -->
<g id="edge116" class="edge"><title>Basic Block 40&#45;&gt;Addr 8</title>
<path fill="none" stroke="black" d="M2850,-731C2858.75,-731 2867.72,-731 2876.08,-731"/>
<polygon fill="black" stroke="black" points="2876.27,-734.5 2886.27,-731 2876.27,-727.5 2876.27,-734.5"/>
</g>
<!-- Basic Block 41 -->
<g id="node41" class="node"><title>Basic Block 41</title>
<polygon fill="#ffffcc" stroke="black" points="3214,-766 3114,-766 3114,-730 3214,-730 3214,-766"/>
<text text-anchor="middle" x="3164" y="-744.9" font-family="Times Roman,serif" font-size="14.00">Basic Block 41</text>
</g>
<!-- Basic Block 41&#45;&gt;Basic Block 46 -->
<g id="edge120" class="edge"><title>Basic Block 41&#45;&gt;Basic Block 46</title>
<path fill="none" stroke="black" d="M3214.07,-759.146C3255.25,-765.202 3312.7,-766.081 3350,-735 3397.61,-695.333 3424.35,-501.858 3432.93,-428.382"/>
<polygon fill="black" stroke="black" points="3436.45,-428.384 3434.11,-418.052 3429.5,-427.591 3436.45,-428.384"/>
</g>
<!-- Addr 9 -->
<g id="node61" class="node"><title>Addr 9</title>
<polygon fill="lightgrey" stroke="black" points="2941,-672 2887,-672 2887,-636 2941,-636 2941,-672"/>
<text text-anchor="middle" x="2914" y="-650.9" font-family="Times Roman,serif" font-size="14.00">Addr 9</text>
</g>
<!-- Basic Block 42&#45;&gt;Addr 9 -->
<g id="edge122" class="edge"><title>Basic Block 42&#45;&gt;Addr 9</title>
<path fill="none" stroke="black" d="M2850,-654C2858.75,-654 2867.72,-654 2876.08,-654"/>
<polygon fill="black" stroke="black" points="2876.27,-657.5 2886.27,-654 2876.27,-650.5 2876.27,-657.5"/>
</g>
<!-- Basic Block 43 -->
<g id="node43" class="node"><title>Basic Block 43</title>
<polygon fill="#ffffcc" stroke="black" points="3078,-672 2978,-672 2978,-636 3078,-636 3078,-672"/>
<text text-anchor="middle" x="3028" y="-650.9" font-family="Times Roman,serif" font-size="14.00">Basic Block 43</text>
</g>
<!-- Addr 10 -->
<g id="node62" class="node"><title>Addr 10</title>
<polygon fill="lightgrey" stroke="black" points="3195,-672 3133,-672 3133,-636 3195,-636 3195,-672"/>
<text text-anchor="middle" x="3164" y="-650.9" font-family="Times Roman,serif" font-size="14.00">Addr 10</text>
</g>
<!-- Basic Block 43&#45;&gt;Addr 10 -->
<g id="edge126" class="edge"><title>Basic Block 43&#45;&gt;Addr 10</title>
<path fill="none" stroke="black" d="M3078.25,-654C3092.85,-654 3108.61,-654 3122.59,-654"/>
<polygon fill="black" stroke="black" points="3122.89,-657.5 3132.89,-654 3122.89,-650.5 3122.89,-657.5"/>
</g>
<!-- Basic Block 44 -->
<g id="node44" class="node"><title>Basic Block 44</title>
<polygon fill="#ffeda0" stroke="black" points="3350,-672 3250,-672 3250,-636 3350,-636 3350,-672"/>
<text text-anchor="middle" x="3300" y="-650.9" font-family="Times Roman,serif" font-size="14.00">Basic Block 44</text>
</g>
<!-- Basic Block 44&#45;&gt;Basic Block 46 -->
<g id="edge130" class="edge"><title>Basic Block 44&#45;&gt;Basic Block 46</title>
<path fill="none" stroke="black" d="M3334.63,-635.985C3340.28,-631.943 3345.69,-627.265 3350,-622 3398.45,-562.76 3421.8,-473.081 3431.02,-427.984"/>
<polygon fill="black" stroke="black" points="3434.48,-428.522 3432.97,-418.036 3427.61,-427.176 3434.48,-428.522"/>
</g>
<!-- Basic Block 45 -->
<g id="node45" class="node"><title>Basic Block 45</title>
<polygon fill="#ffeda0" stroke="black" points="3350,-726 3250,-726 3250,-690 3350,-690 3350,-726"/>
<text text-anchor="middle" x="3300" y="-704.9" font-family="Times Roman,serif" font-size="14.00">Basic Block 45</text>
</g>
<!-- Basic Block 45&#45;&gt;Basic Block 46 -->
<g id="edge132" class="edge"><title>Basic Block 45&#45;&gt;Basic Block 46</title>
<path fill="none" stroke="black" d="M3340.9,-689.661C3344.26,-687.086 3347.37,-684.205 3350,-681 3412.59,-604.595 3429.7,-483.051 3434.32,-428.333"/>
<polygon fill="black" stroke="black" points="3437.81,-428.552 3435.09,-418.314 3430.83,-428.017 3437.81,-428.552"/>
</g>
<!-- Addr 11 -->
<g id="node63" class="node"><title>Addr 11</title>
<polygon fill="lightgrey" stroke="black" points="3584,-256 3522,-256 3522,-220 3584,-220 3584,-256"/>
<text text-anchor="middle" x="3553" y="-234.9" font-family="Times Roman,serif" font-size="14.00">Addr 11</text>
</g>
<!-- Basic Block 46&#45;&gt;Addr 11 -->
<g id="edge134" class="edge"><title>Basic Block 46&#45;&gt;Addr 11</title>
<path fill="none" stroke="black" d="M3449.19,-381.731C3469.82,-353.17 3509.81,-297.798 3533.69,-264.742"/>
<polygon fill="black" stroke="black" points="3536.66,-266.606 3539.67,-256.45 3530.98,-262.508 3536.66,-266.606"/>
</g>
<!-- Basic Block 47 -->
<g id="node47" class="node"><title>Basic Block 47</title>
<polygon fill="#ffeda0" stroke="black" points="3720,-152 3620,-152 3620,-116 3720,-116 3720,-152"/>
<text text-anchor="middle" x="3670" y="-130.9" font-family="Times Roman,serif" font-size="14.00">Basic Block 47</text>
</g>
<!-- Basic Block 47&#45;&gt;Basic Block 13 -->
<g id="edge138" class="edge"><title>Basic Block 47&#45;&gt;Basic Block 13</title>
<path fill="none" stroke="black" d="M3646.93,-115.885C3606.6,-86.0879 3519.58,-30 3436,-30 2072,-30 2072,-30 2072,-30 1890.04,-30 1845.96,-64 1664,-64 1528,-64 1528,-64 1528,-64 1454.61,-64 1371.14,-77.737 1316.25,-88.6923"/>
<polygon fill="black" stroke="black" points="1315.44,-85.284 1306.34,-90.7016 1316.83,-92.1444 1315.44,-85.284"/>
</g>
<!-- Basic Block 48&#45;&gt;Basic Block 49 -->
<g id="edge140" class="edge"><title>Basic Block 48&#45;&gt;Basic Block 49</title>
<path fill="none" stroke="black" d="M2021.83,-247.471C1967.4,-256.907 1877.86,-270 1800,-270 984,-270 984,-270 984,-270 911.245,-270 827.542,-270 772.422,-270"/>
<polygon fill="black" stroke="black" points="772.132,-266.5 762.132,-270 772.132,-273.5 772.132,-266.5"/>
</g>
<!-- Basic Block 49&#45;&gt;Basic Block 7 -->
<g id="edge142" class="edge"><title>Basic Block 49&#45;&gt;Basic Block 7</title>
<path fill="none" stroke="black" d="M747.732,-251.871C764.755,-243.235 785.29,-232.816 803.331,-223.663"/>
<polygon fill="black" stroke="black" points="805.172,-226.654 812.506,-219.008 802.005,-220.411 805.172,-226.654"/>
</g>
<!-- Basic Block 50 -->
<g id="node50" class="node"><title>Basic Block 50</title>
<polygon fill="#ffffcc" stroke="black" points="898,-334 798,-334 798,-298 898,-298 898,-334"/>
<text text-anchor="middle" x="848" y="-312.9" font-family="Times Roman,serif" font-size="14.00">Basic Block 50</text>
</g>
<!-- Basic Block 49&#45;&gt;Basic Block 50 -->
<g id="edge144" class="edge"><title>Basic Block 49&#45;&gt;Basic Block 50</title>
<path fill="none" stroke="black" d="M762.255,-286.998C770.721,-289.862 779.582,-292.859 788.261,-295.794"/>
<polygon fill="black" stroke="black" points="787.357,-299.183 797.952,-299.072 789.6,-292.552 787.357,-299.183"/>
</g>
<!-- Basic Block 50&#45;&gt;Basic Block 51 -->
<g id="edge146" class="edge"><title>Basic Block 50&#45;&gt;Basic Block 51</title>
<path fill="none" stroke="black" d="M797.901,-316.822C734.183,-317.006 621.012,-314.444 526,-297 517.501,-295.44 508.667,-293.296 500.038,-290.894"/>
<polygon fill="black" stroke="black" points="500.992,-287.526 490.412,-288.089 499.033,-294.247 500.992,-287.526"/>
</g>
<!-- Basic Block 51&#45;&gt;Basic Block 6 -->
<g id="edge148" class="edge"><title>Basic Block 51&#45;&gt;Basic Block 6</title>
<path fill="none" stroke="black" d="M490.255,-270C499.59,-270 509.405,-270 518.927,-270"/>
<polygon fill="black" stroke="black" points="519.107,-273.5 529.107,-270 519.107,-266.5 519.107,-273.5"/>
</g>
<!-- Basic Block 52 -->
<g id="node52" class="node"><title>Basic Block 52</title>
<polygon fill="#ffffcc" stroke="black" points="626,-234 526,-234 526,-198 626,-198 626,-234"/>
<text text-anchor="middle" x="576" y="-212.9" font-family="Times Roman,serif" font-size="14.00">Basic Block 52</text>
</g>
<!-- Basic Block 51&#45;&gt;Basic Block 52 -->
<g id="edge150" class="edge"><title>Basic Block 51&#45;&gt;Basic Block 52</title>
<path fill="none" stroke="black" d="M485.664,-251.869C496.878,-247.416 509.003,-242.602 520.618,-237.99"/>
<polygon fill="black" stroke="black" points="522.222,-241.119 530.225,-234.176 519.639,-234.613 522.222,-241.119"/>
</g>
<!-- Addr 12 -->
<g id="node64" class="node"><title>Addr 12</title>
<polygon fill="lightgrey" stroke="black" points="743,-234 681,-234 681,-198 743,-198 743,-234"/>
<text text-anchor="middle" x="712" y="-212.9" font-family="Times Roman,serif" font-size="14.00">Addr 12</text>
</g>
<!-- Basic Block 52&#45;&gt;Addr 12 -->
<g id="edge152" class="edge"><title>Basic Block 52&#45;&gt;Addr 12</title>
<path fill="none" stroke="black" d="M626.255,-216C640.847,-216 656.611,-216 670.594,-216"/>
<polygon fill="black" stroke="black" points="670.891,-219.5 680.891,-216 670.891,-212.5 670.891,-219.5"/>
</g>
<!-- Addr 1&#45;&gt;Basic Block 3 -->
<g id="edge6" class="edge"><title>Addr 1&#45;&gt;Basic Block 3</title>
<path fill="none" stroke="black" d="M467.522,-332.499C482.453,-337.111 501.478,-342.986 519.413,-348.525"/>
<polygon fill="black" stroke="black" points="518.645,-351.95 529.232,-351.557 520.71,-345.262 518.645,-351.95"/>
</g>
<!-- Addr 2&#45;&gt;Basic Block 9 -->
<g id="edge24" class="edge"><title>Addr 2&#45;&gt;Basic Block 9</title>
<path fill="none" stroke="black" d="M1147.62,-113.918C1155,-109.93 1162.9,-105.456 1170,-101 1186.72,-90.5111 1188.33,-83.7872 1206,-75 1247.36,-54.4328 1297.62,-39.5718 1335.47,-30.1907"/>
<polygon fill="black" stroke="black" points="1336.4,-33.5647 1345.3,-27.8069 1334.75,-26.7618 1336.4,-33.5647"/>
</g>
<!-- Addr 3&#45;&gt;Basic Block 21 -->
<g id="edge66" class="edge"><title>Addr 3&#45;&gt;Basic Block 21</title>
<path fill="none" stroke="black" d="M2226.27,-121.273C2266.81,-161.813 2364.35,-259.351 2410.71,-305.709"/>
<polygon fill="black" stroke="black" points="2408.41,-308.36 2417.96,-312.957 2413.36,-303.411 2408.41,-308.36"/>
</g>
<!-- Addr 4&#45;&gt;Basic Block 25 -->
<g id="edge76" class="edge"><title>Addr 4&#45;&gt;Basic Block 25</title>
<path fill="none" stroke="black" d="M1011.52,-74C1025.41,-74 1042.83,-74 1059.62,-74"/>
<polygon fill="black" stroke="black" points="1059.96,-77.5001 1069.96,-74 1059.96,-70.5001 1059.96,-77.5001"/>
</g>
<!-- Addr 5&#45;&gt;Basic Block 33 -->
<g id="edge94" class="edge"><title>Addr 5&#45;&gt;Basic Block 33</title>
<path fill="none" stroke="black" d="M3191.52,-130C3205.41,-130 3222.83,-130 3239.62,-130"/>
<polygon fill="black" stroke="black" points="3239.96,-133.5 3249.96,-130 3239.96,-126.5 3239.96,-133.5"/>
</g>
<!-- Addr 6&#45;&gt;Basic Block 38 -->
<g id="edge106" class="edge"><title>Addr 6&#45;&gt;Basic Block 38</title>
<path fill="none" stroke="black" d="M2330.76,-319.05C2350.61,-359.974 2399.14,-460.017 2422.71,-508.613"/>
<polygon fill="black" stroke="black" points="2419.7,-510.419 2427.21,-517.889 2426,-507.364 2419.7,-510.419"/>
</g>
<!-- Addr 7&#45;&gt;Basic Block 39 -->
<g id="edge110" class="edge"><title>Addr 7&#45;&gt;Basic Block 39</title>
<path fill="none" stroke="black" d="M2577.6,-654C2585.54,-654 2594.54,-654 2603.65,-654"/>
<polygon fill="black" stroke="black" points="2603.94,-657.5 2613.94,-654 2603.94,-650.5 2603.94,-657.5"/>
</g>
<!-- Addr 8&#45;&gt;Basic Block 41 -->
<g id="edge118" class="edge"><title>Addr 8&#45;&gt;Basic Block 41</title>
<path fill="none" stroke="black" d="M2941.71,-732.884C2980.56,-735.526 3052.24,-740.4 3103.71,-743.9"/>
<polygon fill="black" stroke="black" points="3103.5,-747.394 3113.71,-744.581 3103.97,-740.41 3103.5,-747.394"/>
</g>
<!-- Addr 9&#45;&gt;Basic Block 43 -->
<g id="edge124" class="edge"><title>Addr 9&#45;&gt;Basic Block 43</title>
<path fill="none" stroke="black" d="M2941.6,-654C2949.54,-654 2958.54,-654 2967.65,-654"/>
<polygon fill="black" stroke="black" points="2967.94,-657.5 2977.94,-654 2967.94,-650.5 2967.94,-657.5"/>
</g>
<!-- Addr 10&#45;&gt;Basic Block 44 -->
<g id="edge128" class="edge"><title>Addr 10&#45;&gt;Basic Block 44</title>
<path fill="none" stroke="black" d="M3195.2,-654C3208.33,-654 3224.07,-654 3239.32,-654"/>
<polygon fill="black" stroke="black" points="3239.76,-657.5 3249.76,-654 3239.76,-650.5 3239.76,-657.5"/>
</g>
<!-- Addr 11&#45;&gt;Basic Block 47 -->
<g id="edge136" class="edge"><title>Addr 11&#45;&gt;Basic Block 47</title>
<path fill="none" stroke="black" d="M3573.38,-219.885C3592.31,-203.062 3620.66,-177.858 3641.76,-159.1"/>
<polygon fill="black" stroke="black" points="3644.31,-161.516 3649.46,-152.257 3639.66,-156.285 3644.31,-161.516"/>
</g>
</g>
</svg>
